# Blender 4.0.1
# www.blender.org
mtllib headlight_cover.mtl
o headlight_cover
v -0.168452 -0.605271 -0.097088
v -0.178173 -0.600692 -0.092808
v -0.160096 -0.604990 0.040952
v -0.185184 -0.449541 -0.103265
v -0.168973 -0.597242 0.044269
v -0.188024 -0.420288 -0.090873
v -0.188476 -0.417851 -0.082328
v -0.186498 -0.433339 0.044208
v -0.187687 -0.420299 0.034392
v -0.167927 -0.613403 -0.078851
v -0.169331 -0.597273 -0.100843
v -0.186927 -0.433353 -0.100689
v -0.167331 -0.610247 0.034446
v -0.167677 -0.610265 -0.091022
v -0.170771 -0.581131 0.046793
v -0.178088 -0.598378 0.038052
v -0.197072 -0.427776 0.029802
v -0.195773 -0.441813 -0.096251
v -0.178411 -0.604923 -0.086372
v -0.176525 -0.608875 0.012194
v -0.180570 -0.578909 -0.098346
v -0.183318 -0.578010 0.009378
v -0.196160 -0.459498 0.012229
v -0.196345 -0.458512 -0.074502
v -0.183757 -0.575960 -0.072075
v -0.181637 -0.580481 0.033953
v -0.188117 -0.544002 -0.050327
v -0.160472 -0.605005 -0.097574
v -0.159459 -0.613617 -0.070566
v -0.159255 -0.613563 0.014216
v -0.180413 -0.423787 -0.097456
v -0.164277 -0.570001 -0.104070
v -0.179805 -0.425898 0.042709
v -0.167329 -0.613585 0.021752
v -0.168096 -0.605247 0.040514
v -0.171316 -0.581009 -0.103330
v -0.188328 -0.417049 0.021964
v -0.159925 -0.609999 -0.091369
v -0.159631 -0.612547 -0.082848
v -0.159334 -0.612534 0.026220
v -0.179446 -0.432047 -0.100875
v -0.177879 -0.443069 -0.103147
v -0.162581 -0.585853 -0.103287
v -0.180579 -0.418876 0.034817
v -0.177337 -0.448805 0.047478
v -0.181259 -0.415403 -0.078746
v -0.180925 -0.418861 -0.091326
v -0.160974 -0.596920 0.044752
v -0.162641 -0.581855 0.047155
v -0.180979 -0.415471 0.022481
v -0.187745 -0.425340 -0.096933
v -0.193611 -0.453636 0.041773
v -0.187354 -0.425339 0.040452
v -0.177745 -0.606248 0.027832
v -0.180070 -0.578925 0.041920
v -0.196927 -0.424351 0.018952
v -0.193503 -0.453567 -0.098602
v -0.195678 -0.434165 0.038008
v -0.179987 -0.591795 -0.095803
v -0.177479 -0.608233 -0.075532
v -0.196533 -0.429152 -0.090646
v -0.197061 -0.424167 -0.075426
v -0.197428 -0.436763 -0.072944
v -0.194763 -0.459143 0.032266
v -0.192145 -0.507839 -0.011334
v -0.161370 -0.596933 -0.101370
v -0.176242 -0.458496 -0.103920
v -0.159582 -0.609984 0.034745
v -0.167912 -0.535365 0.047342
v -0.185408 -0.449194 0.046526
v -0.188605 -0.416856 -0.070077
v -0.195681 0.434160 0.037995
v -0.195450 0.452269 0.032364
v -0.160472 0.605004 -0.097574
v -0.179872 0.423908 -0.097411
v -0.179493 0.423921 0.040894
v -0.178449 0.598391 -0.094579
v -0.177528 0.603363 0.034274
v -0.168096 0.605247 0.040514
v -0.180702 0.593997 -0.077117
v -0.160095 0.604991 0.040949
v -0.168470 0.605259 -0.097095
v -0.187745 0.425340 -0.096933
v -0.187369 0.425354 0.040459
v -0.197045 0.424142 -0.075383
v -0.196706 0.427157 -0.086995
v -0.177614 0.605370 -0.087147
v -0.180587 0.578784 -0.098342
v -0.193592 0.453775 0.041779
v -0.196045 0.434148 -0.094424
v -0.193874 0.453572 -0.098313
v -0.196902 0.424335 0.019035
v -0.179469 0.592040 0.039338
v -0.177097 0.608322 0.019082
v -0.195720 0.451963 -0.090476
v -0.197189 0.427688 0.029334
v -0.180173 0.595878 0.015669
v -0.197437 0.436985 -0.072274
v -0.182915 0.573214 -0.088490
v -0.195719 0.465625 0.009619
v -0.195234 0.475159 -0.058927
v -0.193250 0.497378 -0.024009
v -0.186320 0.558523 -0.059703
v -0.184857 0.566195 0.013983
v -0.163813 0.570341 0.047468
v -0.162173 0.585837 0.046675
v -0.160973 0.596923 0.044749
v -0.180395 0.418916 -0.091211
v -0.180647 0.416368 -0.082701
v -0.180712 0.415320 -0.070621
v -0.178641 0.431998 0.044690
v -0.177466 0.443082 0.046615
v -0.175707 0.459186 0.047458
v -0.180516 0.415384 0.014213
v -0.180348 0.416381 0.026190
v -0.180050 0.418931 0.034699
v -0.161370 0.596932 -0.101369
v -0.162581 0.585853 -0.103286
v -0.164277 0.570128 -0.104050
v -0.176327 0.458044 -0.103856
v -0.177877 0.443073 -0.103145
v -0.179041 0.431983 -0.101212
v -0.159581 0.609984 0.034744
v -0.159334 0.612533 0.026219
v -0.159278 0.613546 0.014202
v -0.159484 0.613578 -0.070789
v -0.159631 0.612545 -0.082849
v -0.159925 0.609996 -0.091372
v -0.167731 0.613544 -0.078425
v -0.167680 0.610263 -0.091024
v -0.167339 0.610250 0.034438
v -0.167172 0.613602 0.021902
v -0.185728 0.449018 -0.103035
v -0.186927 0.433353 -0.100689
v -0.169368 0.597253 -0.100845
v -0.172027 0.582192 -0.102941
v -0.168412 0.567036 -0.104224
v -0.188462 0.417092 0.021837
v -0.187689 0.420300 0.034393
v -0.186530 0.433366 0.044210
v -0.188033 0.420286 -0.090864
v -0.188561 0.416983 -0.078292
v -0.170933 0.580984 0.046767
v -0.168973 0.597241 0.044269
v -0.180206 0.578765 0.041830
v -0.185318 0.449022 0.046547
v -0.177453 0.608274 -0.075441
vn -0.8918 -0.4523 0.0064
vn -0.9096 -0.0947 -0.4046
vn -0.9889 -0.1044 -0.1062
vn -0.9507 -0.1009 -0.2932
vn -0.9909 -0.0636 0.1188
vn -0.9785 -0.1034 0.1785
vn -0.9996 0.0294 0.0015
vn -0.9979 -0.0360 -0.0539
vn -0.9657 -0.1416 0.2176
vn -0.9856 -0.1610 0.0512
vn -0.9815 -0.1914 0.0035
vn -0.9925 -0.1093 0.0550
vn -0.9950 -0.0989 -0.0111
vn -0.9965 -0.0833 0.0012
vn -0.9934 -0.1073 -0.0414
vn -0.9906 -0.1364 0.0019
vn -0.9925 -0.1218 0.0104
vn -0.0607 -0.0082 0.9981
vn -0.0205 -0.9680 -0.2500
vn -0.0013 -0.7791 -0.6269
vn 0.0215 -0.9577 0.2871
vn 0.0826 -0.9929 0.0857
vn -0.0099 -0.7723 0.6352
vn -0.1120 0.1444 -0.9832
vn -0.0949 0.4146 -0.9050
vn -0.0574 -0.1763 -0.9827
vn -0.0238 -0.0519 -0.9984
vn -0.0406 -0.4289 -0.9024
vn 0.0033 -1.0000 0.0006
vn -0.2202 0.9409 0.2574
vn -0.1848 0.7252 0.6633
vn -0.0066 0.2031 0.9791
vn -0.2062 0.9421 -0.2644
vn -0.2034 0.7474 -0.6325
vn -0.0582 -0.1608 0.9853
vn -0.0372 -0.4278 0.9031
vn -0.5335 -0.8399 0.0994
vn -0.5636 -0.6709 0.4819
vn -0.4765 -0.4157 0.7747
vn -0.6713 0.7078 0.2197
vn -0.6906 0.5091 0.5137
vn -0.5083 0.0817 -0.8573
vn -0.6353 0.2737 -0.7221
vn -0.4985 -0.1895 -0.8459
vn -0.5448 -0.3651 -0.7549
vn -0.5104 -0.8301 -0.2245
vn -0.5376 -0.6954 -0.4770
vn -0.6948 0.6760 -0.2455
vn -0.6241 0.5858 -0.5171
vn -0.9727 0.1032 -0.2079
vn -0.9991 -0.0220 -0.0349
vn -0.9772 0.1981 -0.0763
vn -0.9731 0.2265 -0.0428
vn -0.9786 0.1363 -0.1542
vn -0.9808 0.0693 0.1825
vn -0.9974 -0.0724 -0.0042
vn -0.9995 -0.0309 0.0016
vn -0.9742 0.0656 -0.2160
vn -0.9726 0.2275 0.0467
vn -0.9919 0.1040 0.0728
vn -0.9991 0.0420 0.0063
vn -0.9967 0.0644 0.0496
vn -0.9868 0.1527 0.0541
vn -0.9969 0.0702 -0.0363
vn -0.9925 0.1055 -0.0623
vn -0.9899 0.1325 -0.0495
vn -0.9931 0.1170 0.0075
vn -0.1046 0.0097 0.9945
vn -0.0847 0.0090 0.9964
vn -0.0183 0.9675 -0.2521
vn -0.0134 0.7725 -0.6349
vn -0.0105 0.9661 0.2581
vn -0.0099 0.7725 0.6350
vn -0.1184 -0.1382 -0.9833
vn -0.1310 -0.4098 -0.9027
vn -0.0956 0.1537 -0.9835
vn -0.0179 0.0801 -0.9966
vn -0.0420 0.4277 -0.9030
vn -0.0036 1.0000 -0.0006
vn -0.2188 -0.9421 0.2542
vn -0.1719 -0.7524 0.6359
vn -0.1130 -0.1382 0.9839
vn -0.1260 -0.4098 0.9034
vn -0.2161 -0.9421 -0.2565
vn -0.1754 -0.7524 -0.6349
vn -0.0786 0.1606 0.9839
vn -0.0371 0.4278 0.9031
vn -0.2388 0.0253 -0.9707
vn -0.5499 0.8087 0.2089
vn -0.4842 0.7040 0.5195
vn -0.4930 0.1899 0.8490
vn -0.5597 0.4015 0.7250
vn -0.6696 -0.7087 0.2223
vn -0.6827 -0.5432 0.4886
vn -0.5573 -0.3051 -0.7722
vn -0.6445 -0.7646 0.0015
vn -0.5530 -0.3051 0.7753
vn -0.4808 0.4156 -0.7721
vn -0.4989 0.8382 -0.2204
vn -0.5317 0.6862 -0.4964
vn -0.6637 -0.7161 -0.2160
vn -0.6642 -0.5587 -0.4967
vn -0.9717 -0.1048 0.2116
vn -0.9989 0.0209 -0.0415
vn -0.9966 -0.0446 -0.0696
vn -0.9427 -0.2618 -0.2069
vn -0.9841 -0.0732 0.1617
vn -0.9991 0.0418 -0.0002
vn -0.9995 -0.0322 0.0063
vn -0.9802 -0.1716 0.0992
vn -0.9647 -0.2632 0.0026
vn -0.9833 -0.1819 0.0007
vn -0.9918 -0.1063 0.0710
vn -0.9988 -0.0498 0.0016
vn -0.9925 -0.1080 0.0570
vn -0.9905 -0.1079 -0.0854
vn -0.9863 -0.1561 -0.0525
vn -0.9952 -0.0677 0.0706
vn -0.1166 -0.0109 0.9931
vn 0.0605 -0.9943 -0.0875
vn 0.0200 -0.9577 -0.2871
vn -0.0128 -0.7728 -0.6345
vn -0.0150 -0.9670 0.2543
vn -0.2010 0.9796 0.0019
vn 0.0023 -0.7790 0.6270
vn -0.0258 0.0473 -0.9985
vn -0.0581 0.1935 -0.9794
vn -0.1428 0.3643 -0.9203
vn -0.0842 -0.1606 -0.9834
vn -0.0414 -0.4283 -0.9027
vn -0.0236 -0.9997 -0.0017
vn -0.2045 0.9419 0.2666
vn -0.1346 0.7582 0.6380
vn -0.1225 0.1353 0.9832
vn -0.2368 0.3920 0.8890
vn -0.1816 0.9431 -0.2786
vn -0.2840 0.9554 -0.0806
vn -0.1920 0.7571 -0.6244
vn -0.0528 -0.1630 0.9852
vn -0.0356 -0.4289 0.9026
vn -0.0453 -0.0091 0.9989
vn -0.5137 -0.2044 0.8333
vn -0.0906 -0.0091 -0.9958
vn -0.0803 -0.0073 -0.9967
vn -0.4702 -0.8536 0.2244
vn -0.5729 -0.6586 0.4879
vn -0.6515 0.7586 0.0030
vn -0.6748 0.7064 0.2139
vn -0.6768 0.5473 0.4923
vn -0.5139 0.0718 -0.8549
vn -0.6318 0.2817 -0.7221
vn -0.4763 -0.0508 0.8778
vn -0.5509 0.0936 0.8293
vn -0.4763 -0.0504 -0.8778
vn -0.5516 0.3053 0.7762
vn -0.4980 -0.1901 -0.8461
vn -0.5221 -0.4088 -0.7485
vn -0.4662 -0.8847 -0.0000
vn -0.5205 -0.8281 -0.2081
vn -0.5491 -0.6783 -0.4882
vn -0.6269 0.7760 -0.0697
vn -0.7052 0.6711 -0.2287
vn -0.9973 0.0303 -0.0666
vn -0.9756 0.1031 0.1937
vn -0.9795 0.1062 -0.1714
vn -0.9842 0.1532 -0.0885
vn -0.9876 0.1568 0.0028
vn -0.9891 0.1081 0.1000
vn -0.9898 0.0537 0.1321
vn -0.9789 0.1949 0.0607
vn -0.9751 0.2218 0.0011
vn -0.9710 0.2390 0.0035
vn -0.9984 0.0573 0.0009
vn -0.2087 -0.9780 0.0012
vn -0.9924 0.1058 -0.0634
vn -0.9966 0.0821 0.0044
vn -0.9943 0.1062 -0.0111
vn -0.9940 0.1062 0.0273
vn 0.0472 -0.0068 -0.9989
vn 0.0756 0.9934 -0.0860
vn 0.0200 0.9577 -0.2871
vn -0.0013 0.7791 -0.6269
vn 0.0216 0.9577 0.2871
vn 0.0890 0.9925 0.0840
vn 0.0021 0.7790 0.6270
vn -0.0462 -0.0426 -0.9980
vn -0.0932 -0.1615 -0.9825
vn -0.1296 -0.4114 -0.9022
vn -0.0900 0.0032 -0.9959
vn -0.0573 0.1763 -0.9827
vn -0.0576 0.0546 -0.9968
vn -0.0403 0.4289 -0.9025
vn 0.0075 1.0000 0.0004
vn -0.1316 -0.9877 0.0841
vn -0.1801 -0.9405 0.2881
vn -0.1616 -0.7613 0.6279
vn -0.0878 -0.1614 0.9830
vn -0.0444 -0.0474 0.9979
vn -0.1246 -0.4113 0.9029
vn -0.1817 -0.9405 -0.2870
vn -0.1250 -0.9884 -0.0865
vn -0.1650 -0.7614 -0.6269
vn -0.0189 0.0531 0.9984
vn -0.0519 0.1764 0.9830
vn -0.0354 0.4290 0.9026
vn -0.5551 -0.0936 -0.8265
vn -0.5095 0.8222 0.2539
vn -0.4961 0.1868 0.8479
vn -0.5477 0.4180 0.7248
vn -0.6760 -0.7060 0.2110
vn -0.6938 -0.5137 0.5046
vn -0.4778 0.0507 0.8770
vn -0.6517 -0.7584 0.0025
vn -0.5518 -0.0922 0.8289
vn -0.5321 0.2121 -0.8196
vn -0.4839 0.0508 -0.8736
vn -0.4731 0.8810 0.0017
vn -0.5137 0.8344 -0.1999
vn -0.5676 0.6310 -0.5288
vn -0.6712 -0.7124 -0.2046
vn -0.6876 -0.4972 -0.5291
vt 0.812133 0.352862
vt 0.832971 0.356736
vt 0.694629 0.353840
vt 0.663350 0.394021
vt 0.666050 0.578794
vt 0.662829 0.562887
vt 0.666998 0.376247
vt 0.696811 0.550350
vt 0.846060 0.588842
vt 0.835938 0.597733
vt 0.838227 0.555113
vt 0.852021 0.562444
vt 0.837266 0.399926
vt 0.694537 0.602552
vt 0.698410 0.584739
vt 0.820795 0.602538
vt 0.674363 0.595145
vt 0.851964 0.393796
vt 0.846299 0.367562
vt 0.806013 0.397275
vt 0.679466 0.358576
vt 0.806972 0.553229
vt 0.773337 0.488673
vt 0.733623 0.442554
vt 0.706691 0.400549
vt 0.858163 0.390512
vt 0.859919 0.452290
vt 0.859214 0.569122
vt 0.673537 0.351287
vt 0.684374 0.347924
vt 0.690172 0.347566
vt 0.664660 0.358041
vt 0.672922 0.351353
vt 0.842179 0.351342
vt 0.831389 0.347976
vt 0.842838 0.351412
vt 0.825232 0.347596
vt 0.815239 0.346697
vt 0.851094 0.358103
vt 0.850288 0.358071
vt 0.660421 0.590094
vt 0.656978 0.577175
vt 0.657549 0.568393
vt 0.665447 0.600877
vt 0.659519 0.592257
vt 0.660367 0.368762
vt 0.656939 0.383889
vt 0.659562 0.368875
vt 0.657511 0.390553
vt 0.655966 0.405423
vt 0.665411 0.358001
vt 0.700791 0.346634
vt 0.841916 0.607690
vt 0.825819 0.613887
vt 0.825185 0.611368
vt 0.852630 0.600075
vt 0.842812 0.610037
vt 0.855077 0.590147
vt 0.673550 0.607673
vt 0.690027 0.613888
vt 0.672698 0.610015
vt 0.664418 0.603296
vt 0.855312 0.368840
vt 0.859095 0.389484
vt 0.856183 0.368939
vt 0.850032 0.600913
vt 0.670949 0.363982
vt 0.684967 0.610939
vt 0.485928 0.210410
vt 0.470740 0.048073
vt 0.470639 0.216861
vt 0.501955 0.256577
vt 0.506560 0.238352
vt 0.485981 0.252683
vt 0.476686 0.021507
vt 0.501032 0.026166
vt 0.485942 0.011652
vt 0.502101 0.007832
vt 0.484833 0.055464
vt 0.659406 0.216385
vt 0.645660 0.218565
vt 0.653420 0.242829
vt 0.642656 0.251746
vt 0.628340 0.256136
vt 0.476742 0.242822
vt 0.628571 0.007896
vt 0.623168 0.025474
vt 0.648655 0.015223
vt 0.623059 0.069446
vt 0.611095 0.201565
vt 0.655579 0.029827
vt 0.524675 0.183374
vt 0.527739 0.077072
vt 0.568392 0.154373
vt 0.665301 0.222804
vt 0.666938 0.209474
vt 0.665498 0.044717
vt 0.667201 0.058802
vt 0.491716 0.001927
vt 0.480881 0.005292
vt 0.497775 0.001567
vt 0.472004 0.012046
vt 0.472761 0.012013
vt 0.649518 0.005332
vt 0.638732 0.001963
vt 0.632709 0.001579
vt 0.658437 0.012088
vt 0.657631 0.012056
vt 0.464346 0.231180
vt 0.467789 0.244099
vt 0.464928 0.222781
vt 0.466966 0.246202
vt 0.472816 0.254882
vt 0.467728 0.022782
vt 0.464285 0.037895
vt 0.465105 0.043122
vt 0.463292 0.059444
vt 0.463275 0.063066
vt 0.466906 0.022881
vt 0.507871 0.000654
vt 0.638510 0.267164
vt 0.649284 0.261675
vt 0.632401 0.265351
vt 0.658198 0.257044
vt 0.657394 0.254888
vt 0.662427 0.244108
vt 0.665926 0.231192
vt 0.663296 0.246210
vt 0.480922 0.261671
vt 0.491739 0.267162
vt 0.497695 0.265347
vt 0.472058 0.257038
vt 0.666137 0.037938
vt 0.662657 0.022825
vt 0.663528 0.022924
vt 0.857945 0.568536
vt 0.701120 0.612134
vt 0.655956 0.555963
vt 0.659573 0.048124
vt 0.507859 0.268432
vt 0.622136 0.268483
vt 0.463202 0.210449
vt 0.480265 0.005358
vt 0.650181 0.005399
vt 0.622349 0.000618
vt 0.649945 0.263733
vt 0.480306 0.263728
s 0
usemtl LampCovers.003
f 20/1/1 54/2/1 60/3/1
f 21/4/2 18/5/2 57/6/2
f 59/7/3 24/8/3 18/5/3
f 21/4/4 59/7/4 18/5/4
f 58/9/5 17/10/5 64/11/5
f 52/12/6 64/11/6 26/13/6
f 62/14/7 63/15/7 56/16/7
f 18/5/8 24/8/8 61/17/8
f 55/18/9 26/13/9 16/19/9
f 26/13/10 22/20/10 54/2/10
f 54/2/11 22/20/11 19/21/11
f 23/22/12 65/23/12 26/13/12
f 65/23/13 24/8/13 27/24/13
f 65/23/14 23/22/14 24/8/14
f 27/24/15 24/8/15 25/25/15
f 22/20/16 27/24/16 25/25/16
f 22/20/17 65/23/17 27/24/17
f 15/26/18 69/27/18 45/28/18
f 14/29/19 39/30/19 10/31/19
f 14/29/20 28/32/20 38/33/20
f 13/34/21 40/35/21 68/36/21
f 34/37/22 30/38/22 40/35/22
f 13/34/23 3/39/23 35/40/23
f 12/41/24 42/42/24 4/43/24
f 51/44/25 41/45/25 12/41/25
f 11/46/26 43/47/26 66/48/26
f 36/49/27 32/50/27 43/47/27
f 1/51/28 66/48/28 28/32/28
f 34/37/29 29/52/29 30/38/29
f 9/53/30 50/54/30 37/55/30
f 9/53/31 33/56/31 44/57/31
f 8/58/32 45/28/32 33/56/32
f 6/59/33 46/60/33 47/61/33
f 6/59/34 31/62/34 51/44/34
f 5/63/35 49/64/35 15/26/35
f 35/40/36 48/65/36 5/63/36
f 34/37/37 54/2/37 20/1/37
f 35/40/38 54/2/38 13/34/38
f 5/63/39 16/19/39 35/40/39
f 37/55/40 17/10/40 9/53/40
f 53/66/41 17/10/41 58/9/41
f 4/43/42 18/5/42 12/41/42
f 12/41/43 61/17/43 51/44/43
f 36/49/44 59/7/44 21/4/44
f 11/46/45 2/67/45 59/7/45
f 10/31/46 19/21/46 14/29/46
f 1/51/47 19/21/47 2/67/47
f 7/68/48 61/17/48 62/14/48
f 51/44/49 61/17/49 6/59/49
f 95/69/50 88/70/50 91/71/50
f 85/72/51 98/73/51 86/74/51
f 77/75/52 80/76/52 87/77/52
f 80/76/53 147/78/53 87/77/53
f 88/70/54 99/79/54 77/75/54
f 89/80/55 73/81/55 72/82/55
f 96/83/56 98/73/56 92/84/56
f 92/84/57 98/73/57 85/72/57
f 95/69/58 91/71/58 90/85/58
f 94/86/59 97/87/59 78/88/59
f 104/89/60 100/90/60 73/81/60
f 100/90/61 98/73/61 96/83/61
f 73/81/62 100/90/62 96/83/62
f 104/89/63 93/91/63 97/87/63
f 101/92/64 95/69/64 98/73/64
f 101/92/65 103/93/65 95/69/65
f 99/79/66 103/93/66 80/76/66
f 102/94/67 104/89/67 103/93/67
f 146/95/68 113/96/68 143/97/68
f 105/98/69 143/97/69 113/96/69
f 127/99/70 130/100/70 129/101/70
f 130/100/71 74/102/71 82/103/71
f 131/104/72 124/105/72 132/106/72
f 81/107/73 131/104/73 79/108/73
f 121/109/74 134/110/74 133/111/74
f 122/112/75 83/113/75 134/110/75
f 135/114/76 118/115/76 136/116/76
f 136/116/77 119/117/77 137/118/77
f 82/103/78 117/119/78 135/114/78
f 126/120/79 129/101/79 132/106/79
f 115/121/80 139/122/80 138/123/80
f 139/122/81 76/124/81 84/125/81
f 140/126/82 112/127/82 146/95/82
f 84/125/83 111/128/83 140/126/83
f 141/129/84 109/130/84 142/131/84
f 75/132/85 141/129/85 83/113/85
f 106/133/86 144/134/86 143/97/86
f 107/135/87 79/108/87 144/134/87
f 137/118/88 133/111/88 136/116/88
f 132/106/89 78/88/89 131/104/89
f 78/88/90 79/108/90 131/104/90
f 93/91/91 143/97/91 144/134/91
f 78/88/92 144/134/92 79/108/92
f 96/83/93 138/123/93 139/122/93
f 84/125/94 96/83/94 139/122/94
f 90/85/95 134/110/95 83/113/95
f 138/123/96 85/72/96 142/131/96
f 140/126/97 72/82/97 84/125/97
f 135/114/98 77/75/98 82/103/98
f 87/77/99 129/101/99 130/100/99
f 82/103/100 87/77/100 130/100/100
f 142/131/101 86/74/101 141/129/101
f 86/74/102 83/113/102 141/129/102
f 55/18/103 52/12/103 26/13/103
f 62/14/104 61/17/104 63/15/104
f 61/17/105 24/8/105 63/15/105
f 59/7/106 2/67/106 19/21/106
f 52/12/107 58/9/107 64/11/107
f 56/16/108 63/15/108 17/10/108
f 17/10/109 63/15/109 23/22/109
f 16/19/110 26/13/110 54/2/110
f 60/3/111 54/2/111 19/21/111
f 19/21/112 22/20/112 25/25/112
f 26/13/113 64/11/113 23/22/113
f 23/22/114 63/15/114 24/8/114
f 26/13/115 65/23/115 22/20/115
f 24/8/116 59/7/116 25/25/116
f 59/7/117 19/21/117 25/25/117
f 64/11/118 17/10/118 23/22/118
f 70/136/119 15/26/119 45/28/119
f 10/31/120 39/30/120 29/52/120
f 14/29/121 38/33/121 39/30/121
f 14/29/122 1/51/122 28/32/122
f 13/34/123 34/37/123 40/35/123
f 46/60/124 71/137/124 37/55/124 50/54/124
f 13/34/125 68/36/125 3/39/125
f 4/43/126 42/42/126 67/138/126
f 12/41/127 41/45/127 42/42/127
f 51/44/128 31/62/128 41/45/128
f 11/46/129 36/49/129 43/47/129
f 1/51/130 11/46/130 66/48/130
f 10/31/131 29/52/131 34/37/131
f 9/53/132 44/57/132 50/54/132
f 9/53/133 53/66/133 33/56/133
f 8/58/134 70/136/134 45/28/134
f 53/66/135 8/58/135 33/56/135
f 6/59/136 7/68/136 46/60/136
f 7/68/137 71/137/137 46/60/137
f 6/59/138 47/61/138 31/62/138
f 5/63/139 48/65/139 49/64/139
f 35/40/140 3/39/140 48/65/140
f 15/26/141 49/64/141 69/27/141
f 16/19/142 5/63/142 15/26/142 55/18/142
f 36/49/143 4/43/143 32/50/143
f 4/43/144 67/138/144 32/50/144
f 34/37/145 13/34/145 54/2/145
f 35/40/146 16/19/146 54/2/146
f 56/16/147 37/55/147 71/137/147 62/14/147
f 37/55/148 56/16/148 17/10/148
f 53/66/149 9/53/149 17/10/149
f 4/43/150 57/6/150 18/5/150
f 12/41/151 18/5/151 61/17/151
f 55/18/152 15/26/152 70/136/152 52/12/152
f 58/9/153 52/12/153 70/136/153 8/58/153
f 57/6/154 4/43/154 36/49/154 21/4/154
f 8/58/155 53/66/155 58/9/155
f 36/49/156 11/46/156 59/7/156
f 11/46/157 1/51/157 2/67/157
f 60/3/158 10/31/158 34/37/158 20/1/158
f 10/31/159 60/3/159 19/21/159
f 1/51/160 14/29/160 19/21/160
f 71/137/161 7/68/161 62/14/161
f 7/68/162 6/59/162 61/17/162
f 90/85/163 86/74/163 98/73/163 95/69/163
f 73/81/164 89/80/164 145/139/164 93/91/164
f 88/70/165 95/69/165 99/79/165
f 77/75/166 99/79/166 80/76/166
f 97/87/167 80/76/167 103/93/167 104/89/167
f 93/91/168 104/89/168 73/81/168
f 72/82/169 73/81/169 96/83/169
f 97/87/170 93/91/170 78/88/170
f 147/78/171 80/76/171 97/87/171
f 94/86/172 147/78/172 97/87/172
f 100/90/173 101/92/173 98/73/173
f 138/123/174 142/131/174 110/140/174 114/141/174
f 95/69/175 103/93/175 99/79/175
f 101/92/176 100/90/176 102/94/176
f 103/93/177 101/92/177 102/94/177
f 104/89/178 102/94/178 100/90/178
f 137/118/179 119/117/179 120/142/179
f 126/120/180 127/99/180 129/101/180
f 127/99/181 128/143/181 130/100/181
f 130/100/182 128/143/182 74/102/182
f 131/104/183 123/144/183 124/105/183
f 132/106/184 124/105/184 125/145/184
f 81/107/185 123/144/185 131/104/185
f 120/142/186 121/109/186 133/111/186
f 121/109/187 122/112/187 134/110/187
f 122/112/188 75/132/188 83/113/188
f 137/118/189 120/142/189 133/111/189
f 135/114/190 117/119/190 118/115/190
f 136/116/191 118/115/191 119/117/191
f 82/103/192 74/102/192 117/119/192
f 132/106/193 125/145/193 126/120/193
f 114/141/194 115/121/194 138/123/194
f 115/121/195 116/146/195 139/122/195
f 139/122/196 116/146/196 76/124/196
f 140/126/197 111/128/197 112/127/197
f 146/95/198 112/127/198 113/96/198
f 84/125/199 76/124/199 111/128/199
f 141/129/200 108/147/200 109/130/200
f 142/131/201 109/130/201 110/140/201
f 75/132/202 108/147/202 141/129/202
f 105/98/203 106/133/203 143/97/203
f 106/133/204 107/135/204 144/134/204
f 107/135/205 81/107/205 79/108/205
f 133/111/206 134/110/206 90/85/206 91/71/206
f 132/106/207 94/86/207 78/88/207
f 93/91/208 145/139/208 143/97/208
f 78/88/209 93/91/209 144/134/209
f 96/83/210 92/84/210 138/123/210
f 84/125/211 72/82/211 96/83/211
f 89/80/212 146/95/212 143/97/212 145/139/212
f 92/84/213 85/72/213 138/123/213
f 72/82/214 140/126/214 146/95/214 89/80/214
f 77/75/215 135/114/215 136/116/215 88/70/215
f 136/116/216 133/111/216 91/71/216 88/70/216
f 94/86/217 132/106/217 129/101/217 147/78/217
f 87/77/218 147/78/218 129/101/218
f 82/103/219 77/75/219 87/77/219
f 142/131/220 85/72/220 86/74/220
f 86/74/221 90/85/221 83/113/221
