# Blender 4.0.1
# www.blender.org
mtllib mirror.mtl
o mirror
v -0.427530 -0.778799 0.711579
v -0.427158 -0.779694 0.702168
v -0.390611 -0.948804 0.635080
v -0.396683 -0.918769 0.625706
v -0.393484 -0.934354 0.627719
v -0.394780 -0.936479 0.716487
v -0.424634 -0.793250 0.717408
v -0.418370 -0.823560 0.720061
v -0.423776 -0.790307 0.642622
v -0.427131 -0.781030 0.714950
v -0.391616 -0.943546 0.630414
v -0.393958 -0.940246 0.714608
v -0.407865 -0.874010 0.720300
v -0.402210 -0.901145 0.720016
v -0.413159 -0.848589 0.720432
v -0.397995 -0.921281 0.718963
v -0.421740 -0.807304 0.719104
v -0.393214 -0.942867 0.704548
v -0.392174 -0.946260 0.687614
v -0.390989 -0.949124 0.657706
v -0.390672 -0.949612 0.646768
v -0.422415 -0.794773 0.620736
v -0.422100 -0.796200 0.619852
v -0.425159 -0.785848 0.665680
v -0.418287 -0.814507 0.619880
v -0.409084 -0.858848 0.621590
v -0.402132 -0.892390 0.623374
v -0.427131 0.781030 0.714950
v -0.391617 0.943546 0.630414
v -0.409084 0.858848 0.621590
v -0.418287 0.814507 0.619880
v -0.393958 0.940246 0.714608
v -0.390672 0.949612 0.646768
v -0.422100 0.796200 0.619852
v -0.427530 0.778799 0.711579
v -0.390611 0.948804 0.635080
v -0.402132 0.892390 0.623374
v -0.396683 0.918769 0.625706
v -0.393484 0.934354 0.627719
v -0.394780 0.936479 0.716487
v -0.407865 0.874010 0.720300
v -0.413159 0.848589 0.720432
v -0.427158 0.779694 0.702168
v -0.425159 0.785848 0.665680
v -0.423776 0.790307 0.642622
v -0.422415 0.794773 0.620736
v -0.424634 0.793250 0.717408
v -0.421740 0.807304 0.719104
v -0.418370 0.823560 0.720061
v -0.402210 0.901145 0.720016
v -0.397995 0.921281 0.718963
v -0.393214 0.942867 0.704548
v -0.392174 0.946260 0.687614
v -0.390989 0.949124 0.657706
vn 0.9788 0.2039 0.0193
vn 0.9790 0.2038 0.0010
vn 0.9788 0.2040 0.0193
vn 0.9789 0.2039 0.0133
vn 0.9789 0.2034 0.0184
vn 0.9787 0.2045 0.0194
vn 0.9787 0.2043 0.0193
vn 0.9790 -0.2038 0.0013
vn 0.9788 -0.2039 0.0193
vn 0.9788 -0.2040 0.0193
vn 0.9789 -0.2039 0.0133
vn 0.9788 -0.2038 0.0191
vn 0.9788 -0.2040 0.0204
vn 0.9788 0.2038 0.0193
vn 0.9788 0.2039 0.0192
vn 0.9788 -0.2038 0.0193
vn 0.9788 -0.2039 0.0192
vn 0.9787 -0.2044 0.0193
vn 0.9792 -0.2027 0.0131
vt 0.975011 0.677419
vt 0.975902 0.681410
vt 0.974048 0.676698
vt 0.975791 0.710515
vt 0.976517 0.692203
vt 0.976294 0.701271
vt 0.971790 0.733523
vt 0.968632 0.734446
vt 0.972476 0.732423
vt 0.970946 0.676450
vt 0.957898 0.677972
vt 0.976360 0.686377
vt 0.974998 0.720329
vt 0.941805 0.687716
vt 0.942629 0.681795
vt 0.949799 0.679501
vt 0.952406 0.735924
vt 0.948670 0.735790
vt 0.941433 0.715526
vt 0.942673 0.730418
vt 0.941982 0.724991
vt 0.943551 0.733449
vt 0.944943 0.735186
vt 0.700519 0.914213
vt 0.718831 0.913488
vt 0.709587 0.913990
vt 0.742761 0.906329
vt 0.741839 0.909487
vt 0.740738 0.910173
vt 0.684765 0.908642
vt 0.689726 0.913597
vt 0.685014 0.911744
vt 0.686288 0.895594
vt 0.694693 0.914056
vt 0.728645 0.912694
vt 0.696032 0.879501
vt 0.690112 0.880325
vt 0.687817 0.887494
vt 0.741765 0.881247
vt 0.744240 0.890103
vt 0.723843 0.879129
vt 0.733308 0.879679
vt 0.942927 0.681396
vt 0.973970 0.727421
vt 0.962824 0.735447
vt 0.941323 0.703395
vt 0.685735 0.912707
vt 0.689712 0.880623
vt 0.735737 0.911666
vt 0.743763 0.900521
vt 0.711711 0.879019
vt 0.743502 0.882640
vt 0.744106 0.886367
vt 0.738734 0.880370
s 0
usemtl Mirror.001
f 10/1/1 7/2/1 1/3/1
f 13/4/2 8/5/2 15/6/2
f 12/7/1 18/8/1 6/9/1
f 7/2/1 2/10/1 1/3/1
f 8/5/3 24/11/3 17/12/3
f 13/4/4 14/13/4 8/5/4
f 14/13/1 25/14/1 24/11/1
f 25/14/1 23/15/1 9/16/1
f 20/17/1 21/18/1 27/19/1
f 21/18/5 5/20/5 4/21/5
f 21/18/6 11/22/6 5/20/6
f 21/18/7 3/23/7 11/22/7
f 49/24/8 41/25/8 42/26/8
f 52/27/9 32/28/9 40/29/9
f 43/30/9 47/31/9 35/32/9
f 44/33/10 49/24/10 48/34/10
f 50/35/11 41/25/11 49/24/11
f 31/36/9 50/35/9 44/33/9
f 34/37/9 31/36/9 45/38/9
f 29/39/12 54/40/12 37/41/12
f 37/41/13 38/42/13 29/39/13
f 23/15/14 22/43/14 9/16/14
f 6/9/1 18/8/1 16/44/1
f 27/19/1 14/13/1 18/8/1 20/17/1
f 8/5/15 14/13/15 24/11/15
f 16/44/1 18/8/1 14/13/1
f 19/45/1 20/17/1 18/8/1
f 24/11/1 25/14/1 9/16/1
f 48/34/9 47/31/9 43/30/9 44/33/9
f 14/13/1 26/46/1 25/14/1
f 14/13/1 27/19/1 26/46/1
f 2/10/1 7/2/1 17/12/1 24/11/1
f 27/19/15 21/18/15 4/21/15
f 28/47/9 35/32/9 47/31/9
f 45/38/16 46/48/16 34/37/16
f 51/49/9 52/27/9 40/29/9
f 52/27/9 50/35/9 37/41/9 54/40/9
f 44/33/17 50/35/17 49/24/17
f 50/35/9 52/27/9 51/49/9
f 52/27/9 54/40/9 53/50/9
f 45/38/9 31/36/9 44/33/9
f 31/36/9 30/51/9 50/35/9
f 30/51/9 37/41/9 50/35/9
f 54/40/18 29/39/18 36/52/18
f 54/40/10 36/52/10 33/53/10
f 29/39/19 38/42/19 39/54/19
