# Blender 4.0.2
# www.blender.org
o fake_shadow
v 2.370481 -2.054740 0.770207
v 2.317078 -1.949112 0.752857
v 2.399838 -2.024585 0.640879
v 2.318223 -2.024551 0.892109
v 2.399387 -1.953797 0.508671
v 2.240147 -1.953797 0.998812
v 2.243721 -1.867810 0.729018
v 2.361702 -1.871314 0.375977
v 2.131639 -1.871315 1.083967
v 2.143854 -1.788693 0.696573
v 2.289595 -1.790844 0.256990
v 2.003387 -1.790845 1.137891
v 2.023305 -1.723214 0.657431
v 2.184800 -1.724324 0.165763
v 1.864967 -1.724324 1.150071
v 1.892277 -1.674946 0.614854
v 2.058074 -1.675328 0.104760
v 1.726617 -1.675328 1.124948
v 1.919343 -1.647498 0.079498
v 1.599510 -1.647533 1.063841
v 1.760832 -1.647464 0.572138
v 1.778460 -1.633826 0.091227
v 1.492425 -1.633827 0.971538
v 1.638236 -1.633931 0.532302
v 1.646599 -1.627268 0.137205
v 1.412823 -1.627268 0.856819
v 1.533719 -1.627442 0.498331
v 1.530492 -1.623035 0.218473
v 1.366672 -1.623035 0.722841
v 1.453422 -1.623348 0.472236
v 1.441034 -1.616442 0.323996
v 1.356331 -1.616442 0.584908
v 1.383501 -1.612903 0.449507
v 1.465048 -2.054741 -2.016466
v 1.432048 -1.949113 -1.971009
v 1.351092 -2.024586 -2.084340
v 1.564811 -2.024552 -1.929091
v 1.225234 -1.953798 -2.124766
v 1.642158 -1.953798 -1.821833
v 1.386694 -1.867811 -1.908618
v 1.087405 -1.871316 -2.129902
v 1.689662 -1.871315 -1.692366
v 1.324962 -1.788694 -1.823672
v 0.951935 -1.790846 -2.098151
v 1.701287 -1.790845 -1.553704
v 1.250496 -1.723215 -1.721133
v 0.832809 -1.724326 -2.026634
v 1.670091 -1.724325 -1.418303
v 1.169505 -1.674947 -1.609675
v 0.735648 -1.675329 -1.924962
v 1.603432 -1.675328 -1.294458
v 0.668711 -1.647500 -1.800804
v 1.506028 -1.647534 -1.192474
v 1.088272 -1.647465 -1.497871
v 0.636336 -1.633828 -1.663218
v 1.385167 -1.633827 -1.119153
v 1.012486 -1.633932 -1.393562
v 0.639320 -1.627270 -1.523619
v 1.251467 -1.627269 -1.078900
v 0.947875 -1.627443 -1.304660
v 0.680717 -1.623036 -1.388080
v 1.109786 -1.623036 -1.076437
v 0.898288 -1.623348 -1.236370
v 0.753449 -1.616443 -1.270376
v 0.975392 -1.616443 -1.109194
v 0.855051 -1.612903 -1.176859
v -1.465042 -2.054745 -2.016467
v -1.432042 -1.949117 -1.971009
v -1.564805 -2.024590 -1.929091
v -1.351086 -2.024556 -2.084340
v -1.642152 -1.953802 -1.821868
v -1.225229 -1.953802 -2.124766
v -1.386689 -1.867815 -1.908618
v -1.689657 -1.871320 -1.692366
v -1.087399 -1.871319 -2.129902
v -1.324957 -1.788698 -1.823672
v -1.701282 -1.790850 -1.553704
v -0.951930 -1.790849 -2.098151
v -1.250491 -1.723218 -1.721133
v -1.670086 -1.724329 -1.418304
v -0.832804 -1.724328 -2.026634
v -1.169500 -1.674950 -1.609676
v -1.603427 -1.675332 -1.294459
v -0.735608 -1.675331 -1.924962
v -1.506023 -1.647503 -1.192474
v -0.668706 -1.647537 -1.800839
v -1.088267 -1.647467 -1.497871
v -1.385163 -1.633831 -1.119153
v -0.636331 -1.633830 -1.663218
v -1.012482 -1.633934 -1.393562
v -1.251462 -1.627272 -1.078866
v -0.639385 -1.627271 -1.523619
v -0.947870 -1.627445 -1.304660
v -1.109781 -1.623039 -1.076333
v -0.680782 -1.623038 -1.388114
v -0.898248 -1.623351 -1.236370
v -0.975387 -1.616445 -1.109159
v -0.753479 -1.616445 -1.270411
v -0.855047 -1.612906 -1.176859
v -2.370476 -2.054746 0.770207
v -2.317072 -1.949118 0.752857
v -2.318218 -2.024591 0.892109
v -2.399832 -2.024557 0.640879
v -2.240142 -1.953803 0.998812
v -2.399381 -1.953803 0.508671
v -2.243716 -1.867816 0.729017
v -2.131669 -1.871320 1.083966
v -2.361697 -1.871321 0.376012
v -2.143849 -1.788699 0.696573
v -2.003382 -1.790850 1.137891
v -2.289624 -1.790851 0.256990
v -2.023300 -1.723219 0.657396
v -1.864963 -1.724329 1.150070
v -2.184795 -1.724330 0.165763
v -1.892272 -1.674951 0.614819
v -1.726613 -1.675333 1.124947
v -2.058070 -1.675333 0.104760
v -1.599506 -1.647503 1.063840
v -1.919338 -1.647538 0.079498
v -1.760828 -1.647468 0.572138
v -1.492421 -1.633831 0.971538
v -1.778455 -1.633831 0.091227
v -1.638232 -1.633935 0.532302
v -1.412784 -1.627272 0.856853
v -1.646629 -1.627273 0.137239
v -1.533715 -1.627446 0.498330
v -1.366598 -1.623039 0.722841
v -1.530522 -1.623039 0.218542
v -1.453418 -1.623351 0.472236
v -1.356257 -1.616446 0.584907
v -1.441065 -1.616446 0.324031
v -1.383497 -1.612906 0.449542
v 0.000003 -2.054743 2.492485
v 0.000002 -1.949115 2.436305
v 0.132072 -2.024588 2.480444
v -0.132067 -2.024554 2.480444
v 0.257687 -1.953800 2.439151
v -0.257682 -1.953800 2.439151
v 0.000002 -1.867813 2.359166
v 0.372197 -1.871317 2.362289
v -0.372193 -1.871318 2.362289
v 0.000002 -1.788696 2.254164
v 0.463112 -1.790847 2.256974
v -0.463107 -1.790848 2.256974
v 0.000002 -1.723217 2.127438
v 0.517487 -1.724326 2.129069
v -0.517483 -1.724328 2.129069
v 0.000002 -1.674949 1.989643
v 0.536329 -1.675330 1.989713
v -0.536325 -1.675331 1.989713
v 0.517487 -1.647500 1.849975
v -0.517483 -1.647536 1.849975
v 0.000002 -1.647466 1.851467
v 0.462799 -1.633828 1.719571
v -0.462795 -1.633829 1.719606
v 0.000002 -1.633933 1.722555
v 0.378339 -1.627270 1.608392
v -0.378300 -1.627271 1.608461
v 0.000002 -1.627444 1.612625
v 0.265181 -1.623037 1.523098
v -0.265143 -1.623037 1.523168
v 0.000002 -1.623349 1.528234
v 0.137172 -1.616444 1.470632
v -0.137133 -1.616444 1.470701
v 0.000002 -1.612905 1.454704
vn -0.8398 -0.4694 -0.2728
vn -0.7669 -0.5914 -0.2491
vn -0.8244 -0.4940 -0.2763
vn -0.8293 -0.4942 -0.2609
vn -0.7239 -0.6489 -0.2344
vn -0.7233 -0.6490 -0.2358
vn -0.6337 -0.7457 -0.2059
vn -0.6104 -0.7670 -0.1979
vn -0.6102 -0.7669 -0.1987
vn -0.5065 -0.8464 -0.1646
vn -0.4871 -0.8589 -0.1579
vn -0.4869 -0.8589 -0.1586
vn -0.3765 -0.9183 -0.1223
vn -0.3681 -0.9222 -0.1190
vn -0.3677 -0.9222 -0.1201
vn -0.2507 -0.9646 -0.0815
vn -0.2515 -0.9645 -0.0810
vn -0.2510 -0.9645 -0.0822
vn -0.1505 -0.9874 -0.0483
vn -0.1501 -0.9874 -0.0494
vn -0.1426 -0.9887 -0.0464
vn -0.0853 -0.9960 -0.0274
vn -0.0853 -0.9960 -0.0281
vn -0.0778 -0.9967 -0.0253
vn -0.0539 -0.9984 -0.0174
vn -0.0538 -0.9984 -0.0176
vn -0.0512 -0.9986 -0.0166
vn -0.0568 -0.9982 -0.0182
vn -0.0567 -0.9982 -0.0186
vn -0.0873 -0.9958 -0.0284
vn -0.1199 -0.9921 -0.0362
vn -0.1184 -0.9921 -0.0412
vn -0.1338 -0.9901 -0.0434
vn -0.5189 -0.4695 0.7144
vn -0.4739 -0.5915 0.6523
vn -0.5175 -0.4940 0.6987
vn -0.5044 -0.4943 0.7080
vn -0.4466 -0.6489 0.6160
vn -0.4478 -0.6489 0.6151
vn -0.3917 -0.7457 0.5391
vn -0.3769 -0.7669 0.5194
vn -0.3775 -0.7669 0.5189
vn -0.3130 -0.8464 0.4309
vn -0.3007 -0.8589 0.4145
vn -0.3013 -0.8590 0.4140
vn -0.2327 -0.9183 0.3203
vn -0.2269 -0.9222 0.3133
vn -0.2278 -0.9222 0.3126
vn -0.1549 -0.9646 0.2132
vn -0.1548 -0.9645 0.2142
vn -0.1558 -0.9645 0.2133
vn -0.0925 -0.9874 0.1282
vn -0.0934 -0.9874 0.1275
vn -0.0882 -0.9887 0.1213
vn -0.0524 -0.9960 0.0727
vn -0.0530 -0.9960 0.0724
vn -0.0481 -0.9967 0.0661
vn -0.0332 -0.9984 0.0459
vn -0.0334 -0.9984 0.0458
vn -0.0316 -0.9985 0.0436
vn -0.0349 -0.9982 0.0484
vn -0.0352 -0.9982 0.0482
vn -0.0539 -0.9958 0.0743
vn -0.0714 -0.9921 0.1028
vn -0.0757 -0.9921 0.0998
vn -0.0826 -0.9901 0.1138
vn 0.5190 -0.4695 0.7143
vn 0.4739 -0.5915 0.6523
vn 0.5045 -0.4941 0.7081
vn 0.5175 -0.4941 0.6986
vn 0.4478 -0.6489 0.6151
vn 0.4466 -0.6490 0.6160
vn 0.3916 -0.7457 0.5391
vn 0.3775 -0.7670 0.5189
vn 0.3769 -0.7669 0.5194
vn 0.3130 -0.8464 0.4309
vn 0.3013 -0.8590 0.4140
vn 0.3007 -0.8589 0.4145
vn 0.2327 -0.9183 0.3203
vn 0.2278 -0.9222 0.3126
vn 0.2269 -0.9222 0.3133
vn 0.1549 -0.9646 0.2132
vn 0.1559 -0.9645 0.2134
vn 0.1547 -0.9645 0.2141
vn 0.0934 -0.9874 0.1276
vn 0.0924 -0.9874 0.1282
vn 0.0881 -0.9887 0.1213
vn 0.0529 -0.9960 0.0723
vn 0.0525 -0.9960 0.0728
vn 0.0481 -0.9967 0.0661
vn 0.0334 -0.9984 0.0457
vn 0.0332 -0.9984 0.0459
vn 0.0316 -0.9986 0.0435
vn 0.0352 -0.9982 0.0481
vn 0.0349 -0.9982 0.0484
vn 0.0540 -0.9958 0.0743
vn 0.0758 -0.9921 0.0998
vn 0.0715 -0.9921 0.1028
vn 0.0827 -0.9901 0.1138
vn 0.8398 -0.4694 -0.2729
vn 0.7669 -0.5914 -0.2492
vn 0.8293 -0.4941 -0.2610
vn 0.8243 -0.4941 -0.2763
vn 0.7234 -0.6489 -0.2358
vn 0.7239 -0.6489 -0.2344
vn 0.6337 -0.7457 -0.2059
vn 0.6102 -0.7670 -0.1987
vn 0.6104 -0.7669 -0.1980
vn 0.5065 -0.8464 -0.1646
vn 0.4869 -0.8590 -0.1586
vn 0.4871 -0.8590 -0.1579
vn 0.3765 -0.9183 -0.1223
vn 0.3677 -0.9222 -0.1201
vn 0.3680 -0.9222 -0.1190
vn 0.2507 -0.9646 -0.0814
vn 0.2511 -0.9644 -0.0823
vn 0.2514 -0.9645 -0.0810
vn 0.1502 -0.9874 -0.0494
vn 0.1505 -0.9874 -0.0483
vn 0.1426 -0.9887 -0.0463
vn 0.0851 -0.9960 -0.0280
vn 0.0855 -0.9960 -0.0274
vn 0.0778 -0.9967 -0.0253
vn 0.0538 -0.9984 -0.0176
vn 0.0539 -0.9984 -0.0174
vn 0.0512 -0.9986 -0.0166
vn 0.0567 -0.9982 -0.0186
vn 0.0568 -0.9982 -0.0182
vn 0.0873 -0.9958 -0.0284
vn 0.1183 -0.9921 -0.0412
vn 0.1199 -0.9921 -0.0362
vn 0.1338 -0.9901 -0.0435
vn -0.0001 -0.4696 -0.8829
vn -0.0000 -0.5915 -0.8063
vn 0.0081 -0.4942 -0.8693
vn -0.0081 -0.4943 -0.8692
vn -0.0007 -0.6490 -0.7608
vn 0.0007 -0.6490 -0.7608
vn -0.0000 -0.7457 -0.6663
vn -0.0004 -0.7669 -0.6417
vn 0.0004 -0.7669 -0.6417
vn -0.0000 -0.8464 -0.5326
vn -0.0004 -0.8590 -0.5121
vn 0.0004 -0.8590 -0.5121
vn -0.0000 -0.9183 -0.3959
vn -0.0006 -0.9222 -0.3868
vn 0.0006 -0.9222 -0.3868
vn -0.0000 -0.9646 -0.2636
vn -0.0007 -0.9644 -0.2643
vn 0.0007 -0.9645 -0.2642
vn -0.0005 -0.9874 -0.1581
vn 0.0006 -0.9874 -0.1581
vn -0.0000 -0.9887 -0.1500
vn -0.0003 -0.9960 -0.0896
vn 0.0003 -0.9960 -0.0898
vn -0.0000 -0.9967 -0.0818
vn -0.0001 -0.9984 -0.0566
vn 0.0001 -0.9984 -0.0567
vn -0.0000 -0.9986 -0.0538
vn -0.0002 -0.9982 -0.0597
vn 0.0002 -0.9982 -0.0597
vn -0.0000 -0.9958 -0.0918
vn -0.0026 -0.9921 -0.1252
vn 0.0026 -0.9921 -0.1253
vn -0.0000 -0.9901 -0.1406
vt 0.000000 0.000000
s 1
f 1/1/1 2/1/2 3/1/3
f 1/1/1 4/1/4 2/1/2
f 2/1/2 5/1/5 3/1/3
f 2/1/2 4/1/4 6/1/6
f 2/1/2 6/1/6 7/1/7
f 2/1/2 7/1/7 5/1/5
f 5/1/5 7/1/7 8/1/8
f 9/1/9 7/1/7 6/1/6
f 10/1/10 7/1/7 9/1/9
f 10/1/10 8/1/8 7/1/7
f 10/1/10 11/1/11 8/1/8
f 10/1/10 9/1/9 12/1/12
f 10/1/10 13/1/13 11/1/11
f 10/1/10 12/1/12 13/1/13
f 11/1/11 13/1/13 14/1/14
f 13/1/13 12/1/12 15/1/15
f 16/1/16 13/1/13 15/1/15
f 16/1/16 14/1/14 13/1/13
f 16/1/16 17/1/17 14/1/14
f 16/1/16 15/1/15 18/1/18
f 16/1/16 19/1/19 17/1/17
f 16/1/16 18/1/18 20/1/20
f 16/1/16 20/1/20 21/1/21
f 16/1/16 21/1/21 19/1/19
f 22/1/22 19/1/19 21/1/21
f 23/1/23 21/1/21 20/1/20
f 23/1/23 24/1/24 21/1/21
f 22/1/22 21/1/21 24/1/24
f 22/1/22 24/1/24 25/1/25
f 23/1/23 26/1/26 24/1/24
f 25/1/25 24/1/24 27/1/27
f 26/1/26 27/1/27 24/1/24
f 28/1/28 25/1/25 27/1/27
f 29/1/29 27/1/27 26/1/26
f 29/1/29 30/1/30 27/1/27
f 28/1/28 27/1/27 30/1/30
f 28/1/28 30/1/30 31/1/31
f 29/1/29 32/1/32 30/1/30
f 33/1/33 30/1/30 32/1/32
f 33/1/33 31/1/31 30/1/30
f 34/1/34 35/1/35 36/1/36
f 34/1/34 37/1/37 35/1/35
f 35/1/35 38/1/38 36/1/36
f 35/1/35 37/1/37 39/1/39
f 35/1/35 39/1/39 40/1/40
f 35/1/35 40/1/40 38/1/38
f 38/1/38 40/1/40 41/1/41
f 42/1/42 40/1/40 39/1/39
f 43/1/43 40/1/40 42/1/42
f 43/1/43 41/1/41 40/1/40
f 43/1/43 44/1/44 41/1/41
f 43/1/43 42/1/42 45/1/45
f 43/1/43 46/1/46 44/1/44
f 43/1/43 45/1/45 46/1/46
f 44/1/44 46/1/46 47/1/47
f 46/1/46 45/1/45 48/1/48
f 49/1/49 46/1/46 48/1/48
f 49/1/49 47/1/47 46/1/46
f 49/1/49 50/1/50 47/1/47
f 49/1/49 48/1/48 51/1/51
f 49/1/49 52/1/52 50/1/50
f 49/1/49 51/1/51 53/1/53
f 49/1/49 53/1/53 54/1/54
f 49/1/49 54/1/54 52/1/52
f 55/1/55 52/1/52 54/1/54
f 56/1/56 54/1/54 53/1/53
f 56/1/56 57/1/57 54/1/54
f 55/1/55 54/1/54 57/1/57
f 55/1/55 57/1/57 58/1/58
f 56/1/56 59/1/59 57/1/57
f 58/1/58 57/1/57 60/1/60
f 59/1/59 60/1/60 57/1/57
f 61/1/61 58/1/58 60/1/60
f 62/1/62 60/1/60 59/1/59
f 62/1/62 63/1/63 60/1/60
f 61/1/61 60/1/60 63/1/63
f 61/1/61 63/1/63 64/1/64
f 62/1/62 65/1/65 63/1/63
f 66/1/66 63/1/63 65/1/65
f 66/1/66 64/1/64 63/1/63
f 67/1/67 68/1/68 69/1/69
f 67/1/67 70/1/70 68/1/68
f 68/1/68 71/1/71 69/1/69
f 68/1/68 70/1/70 72/1/72
f 68/1/68 72/1/72 73/1/73
f 68/1/68 73/1/73 71/1/71
f 71/1/71 73/1/73 74/1/74
f 75/1/75 73/1/73 72/1/72
f 76/1/76 73/1/73 75/1/75
f 76/1/76 74/1/74 73/1/73
f 76/1/76 77/1/77 74/1/74
f 76/1/76 75/1/75 78/1/78
f 76/1/76 79/1/79 77/1/77
f 76/1/76 78/1/78 79/1/79
f 77/1/77 79/1/79 80/1/80
f 79/1/79 78/1/78 81/1/81
f 82/1/82 79/1/79 81/1/81
f 82/1/82 80/1/80 79/1/79
f 82/1/82 83/1/83 80/1/80
f 82/1/82 81/1/81 84/1/84
f 82/1/82 85/1/85 83/1/83
f 82/1/82 84/1/84 86/1/86
f 82/1/82 86/1/86 87/1/87
f 82/1/82 87/1/87 85/1/85
f 88/1/88 85/1/85 87/1/87
f 89/1/89 87/1/87 86/1/86
f 89/1/89 90/1/90 87/1/87
f 88/1/88 87/1/87 90/1/90
f 88/1/88 90/1/90 91/1/91
f 89/1/89 92/1/92 90/1/90
f 92/1/92 93/1/93 90/1/90
f 91/1/91 90/1/90 93/1/93
f 94/1/94 91/1/91 93/1/93
f 95/1/95 93/1/93 92/1/92
f 95/1/95 96/1/96 93/1/93
f 94/1/94 93/1/93 96/1/96
f 94/1/94 96/1/96 97/1/97
f 95/1/95 98/1/98 96/1/96
f 99/1/99 96/1/96 98/1/98
f 99/1/99 97/1/97 96/1/96
f 100/1/100 101/1/101 102/1/102
f 100/1/100 103/1/103 101/1/101
f 101/1/101 104/1/104 102/1/102
f 101/1/101 103/1/103 105/1/105
f 101/1/101 105/1/105 106/1/106
f 101/1/101 106/1/106 104/1/104
f 104/1/104 106/1/106 107/1/107
f 108/1/108 106/1/106 105/1/105
f 109/1/109 106/1/106 108/1/108
f 109/1/109 107/1/107 106/1/106
f 109/1/109 110/1/110 107/1/107
f 109/1/109 108/1/108 111/1/111
f 109/1/109 112/1/112 110/1/110
f 109/1/109 111/1/111 112/1/112
f 110/1/110 112/1/112 113/1/113
f 112/1/112 111/1/111 114/1/114
f 115/1/115 112/1/112 114/1/114
f 115/1/115 113/1/113 112/1/112
f 115/1/115 116/1/116 113/1/113
f 115/1/115 114/1/114 117/1/117
f 115/1/115 118/1/118 116/1/116
f 115/1/115 117/1/117 119/1/119
f 115/1/115 119/1/119 120/1/120
f 115/1/115 120/1/120 118/1/118
f 121/1/121 118/1/118 120/1/120
f 122/1/122 120/1/120 119/1/119
f 122/1/122 123/1/123 120/1/120
f 121/1/121 120/1/120 123/1/123
f 121/1/121 123/1/123 124/1/124
f 122/1/122 125/1/125 123/1/123
f 124/1/124 123/1/123 126/1/126
f 125/1/125 126/1/126 123/1/123
f 127/1/127 124/1/124 126/1/126
f 128/1/128 126/1/126 125/1/125
f 128/1/128 129/1/129 126/1/126
f 127/1/127 126/1/126 129/1/129
f 127/1/127 129/1/129 130/1/130
f 128/1/128 131/1/131 129/1/129
f 132/1/132 129/1/129 131/1/131
f 132/1/132 130/1/130 129/1/129
f 133/1/133 134/1/134 135/1/135
f 133/1/133 136/1/136 134/1/134
f 134/1/134 137/1/137 135/1/135
f 134/1/134 136/1/136 138/1/138
f 134/1/134 138/1/138 139/1/139
f 134/1/134 139/1/139 137/1/137
f 137/1/137 139/1/139 140/1/140
f 141/1/141 139/1/139 138/1/138
f 142/1/142 139/1/139 141/1/141
f 142/1/142 140/1/140 139/1/139
f 142/1/142 143/1/143 140/1/140
f 142/1/142 141/1/141 144/1/144
f 142/1/142 145/1/145 143/1/143
f 142/1/142 144/1/144 145/1/145
f 143/1/143 145/1/145 146/1/146
f 145/1/145 144/1/144 147/1/147
f 148/1/148 145/1/145 147/1/147
f 148/1/148 146/1/146 145/1/145
f 148/1/148 149/1/149 146/1/146
f 148/1/148 147/1/147 150/1/150
f 148/1/148 151/1/151 149/1/149
f 148/1/148 150/1/150 152/1/152
f 148/1/148 152/1/152 153/1/153
f 148/1/148 153/1/153 151/1/151
f 154/1/154 151/1/151 153/1/153
f 155/1/155 153/1/153 152/1/152
f 155/1/155 156/1/156 153/1/153
f 154/1/154 153/1/153 156/1/156
f 154/1/154 156/1/156 157/1/157
f 155/1/155 158/1/158 156/1/156
f 158/1/158 159/1/159 156/1/156
f 157/1/157 156/1/156 159/1/159
f 160/1/160 157/1/157 159/1/159
f 161/1/161 159/1/159 158/1/158
f 161/1/161 162/1/162 159/1/159
f 160/1/160 159/1/159 162/1/162
f 160/1/160 162/1/162 163/1/163
f 161/1/161 164/1/164 162/1/162
f 165/1/165 162/1/162 164/1/164
f 165/1/165 163/1/163 162/1/162
