# Blender 4.0.2
# www.blender.org
o racing_brand
v 7.006125 -3.187977 -0.954183
v 7.082396 -3.187976 -0.009572
v 7.006125 -3.187977 0.935038
v 6.497836 -3.698248 -0.954183
v 6.565606 -3.698248 -0.009573
v 6.497836 -3.698248 0.935038
v 5.879408 -3.828237 -0.954183
v 5.968345 -3.827473 -0.009573
v 5.879408 -3.828237 0.935038
v 5.138107 -3.790380 -0.954183
v 5.227078 -3.790380 -0.009573
v 5.138107 -3.790380 0.935037
v 4.057957 -3.419227 -0.954184
v 4.163862 -3.373700 -0.009573
v 4.057957 -3.419227 0.935037
v 3.335740 -3.129065 -0.954184
v 3.464964 -3.108938 -0.009573
v 3.335740 -3.129065 0.935037
v 2.905804 -2.936861 -0.954184
v 3.024409 -2.943210 -0.009573
v 2.905803 -2.936861 0.935037
v 2.609290 -2.786505 -0.009573
v 2.526703 -2.801728 -0.954184
v 2.526703 -2.801728 0.935037
vn -0.3446 -0.9359 -0.0724
vn -0.3856 -0.9200 -0.0705
vn -0.3640 -0.9314 -0.0000
vn -0.3543 -0.9351 -0.0000
vn -0.3856 -0.9200 0.0705
vn -0.3446 -0.9359 0.0724
vn -0.2193 -0.9752 -0.0294
vn -0.2347 -0.9721 -0.0000
vn -0.3895 -0.9198 -0.0470
vn -0.3657 -0.9307 -0.0000
vn 0.0685 -0.9976 0.0059
vn 0.0685 -0.9977 -0.0000
vn -0.2193 -0.9752 0.0294
vn 0.0685 -0.9976 -0.0059
vn 0.5227 -0.8515 0.0411
vn 0.5246 -0.8514 -0.0000
vn 0.5345 -0.8439 0.0450
vn 0.5282 -0.8491 -0.0000
vn 0.5227 -0.8515 -0.0411
vn 0.5345 -0.8439 -0.0450
vn -0.3678 -0.9294 -0.0313
vn -0.3582 -0.9337 -0.0000
vn -0.3678 -0.9294 0.0313
vn -0.3895 -0.9198 0.0470
vt 0.326615 0.996005
vt 0.167433 0.996005
vt 0.165874 0.813545
vt 0.327564 0.813545
vt 0.167433 0.631084
vt 0.326615 0.631084
vt 0.571214 0.996005
vt 0.589748 0.813545
vt 0.073822 0.996005
vt 0.093325 0.813545
vt 0.737247 0.995948
vt 0.756484 0.813545
vt 0.571214 0.631084
vt 0.737247 0.631141
vt 0.876719 0.995890
vt 0.891823 0.813545
vt 1.002452 0.996005
vt 1.011271 0.813545
vt 0.876719 0.631199
vt 1.002452 0.631084
vt -0.005582 0.996005
vt 0.007440 0.813545
vt -0.005582 0.631084
vt 0.073822 0.631084
s 1
f 15/1/1 18/2/2 17/3/3 14/4/4
f 16/5/5 13/6/6 14/4/4 17/3/3
f 12/7/7 15/1/1 14/4/4 11/8/8
f 18/2/2 21/9/9 20/10/10 17/3/3
f 9/11/11 12/7/7 11/8/8 8/12/12
f 10/13/13 7/14/14 8/12/12 11/8/8
f 6/15/15 9/11/11 8/12/12 5/16/16
f 3/17/17 6/15/15 5/16/16 2/18/18
f 4/19/19 1/20/20 2/18/18 5/16/16
f 21/9/9 24/21/21 22/22/22 20/10/10
f 22/22/22 23/23/23 19/24/24 20/10/10
f 13/6/6 10/13/13 11/8/8 14/4/4
f 7/14/14 4/19/19 5/16/16 8/12/12
f 19/24/24 16/5/5 17/3/3 20/10/10
