# Blender 4.0.2
# www.blender.org
mtllib licence_plate.mtl
o Plane008
v -87.765503 -7.409729 11.764741
v -87.764801 -7.284140 6.066127
v -87.765518 5.419461 11.866547
v -87.764816 5.512085 6.156852
v -87.765518 -7.318859 11.866547
v -87.764816 -7.378516 6.167058
v -87.765511 5.512085 11.764723
v -87.764801 5.419462 6.054154
v 89.442055 5.503164 13.931536
v 89.441353 5.377574 8.232922
v 89.442070 -7.326026 14.033341
v 89.441368 -7.418651 8.323647
v 89.442070 5.412294 14.033341
v 89.441368 5.471950 8.333854
v 89.442055 -7.418651 13.931518
v 89.441353 -7.326027 8.220949
vn -1.0000 -0.0000 -0.0001
vn 1.0000 -0.0000 -0.0001
vn 1.0000 0.0001 -0.0001
vn 1.0000 -0.0000 -0.0003
vn 1.0000 -0.0000 -0.0002
vn 1.0000 -0.0000 -0.0000
vt 0.997595 0.019035
vt 1.000000 0.982835
vt 0.992998 1.000000
vt 0.007137 1.000000
vt 0.000000 0.982832
vt -0.000000 0.017315
vt 0.007137 -0.000000
vt 0.990323 0.002018
s 1
usemtl license_plate
f 6/1/1 1/2/1 5/3/1
f 5/3/1 3/4/1 7/5/1
f 7/5/1 4/6/1 8/7/1
f 5/3/1 7/5/1 8/7/1
f 6/1/1 5/3/1 8/7/1
f 2/8/1 6/1/1 8/7/1
f 14/1/2 9/2/3 13/3/2
f 13/3/2 11/4/4 15/5/5
f 15/5/5 12/6/3 16/7/2
f 13/3/2 15/5/5 16/7/2
f 14/1/2 13/3/2 16/7/2
f 10/8/6 14/1/2 16/7/2
