# Blender 4.0.2
# www.blender.org
mtllib mirror.mtl
o mirrors_0
v -22.482216 -36.064644 33.074272
v -22.694664 -34.539951 33.124016
v -22.823912 -33.850285 32.045692
v -22.517519 -36.070019 31.905611
v -22.557627 -36.076717 30.312258
v -22.866316 -33.329464 33.147141
v -22.409424 -36.617123 33.005505
v -22.983631 -32.530125 33.143181
v -22.341770 -37.156353 32.813046
v -22.307592 -37.463409 32.530083
v -22.292854 -37.646172 32.144646
v -22.293163 -37.739410 31.649736
v -22.303833 -37.770241 31.080370
v -22.317101 -37.780907 30.515421
v -22.337505 -37.722126 30.035269
v -22.369108 -37.561493 29.661188
v -22.420179 -37.229969 29.352575
v -22.501551 -36.654194 29.226435
v -22.580378 -36.081055 29.169355
v -23.076517 -31.927628 33.076530
v -23.154825 -31.551659 32.191032
v -23.144941 -31.494671 32.953213
v -23.188328 -31.230526 32.770527
v -23.218853 -31.055330 32.535694
v -23.235693 -30.985737 32.213131
v -23.156414 -31.729647 29.879404
v -23.245832 -30.965925 31.887182
v -23.237873 -31.089506 30.565954
v -23.232971 -31.206621 29.497755
v -23.221704 -31.314451 29.261087
v -23.198835 -31.497717 29.144899
v -23.160795 -31.788412 29.107126
v -22.844746 -33.993679 30.104822
v -22.804022 -34.434109 29.105959
v -12.562167 3.292413 40.913166
v -12.860493 3.441812 39.676929
v -12.887320 3.335116 39.432446
v -12.481037 3.159969 41.147442
v -12.878810 3.126207 39.240623
v -12.391906 2.937930 41.319859
v -12.838730 2.860548 39.134140
v -12.312712 2.673179 41.398212
v -10.771076 -4.138485 41.083370
v -11.175948 -4.486383 38.794537
v -10.728251 -4.410604 40.982628
v -11.099669 -4.734253 38.877934
v -10.713922 -4.643653 40.791313
v -11.015839 -4.930428 39.054157
v -10.731899 -4.789838 40.544579
v -10.945365 -5.020111 39.285835
v -22.557625 34.215599 30.312262
v -22.420177 35.368855 29.352579
v -22.501549 34.793079 29.226439
v -22.369106 35.700378 29.661192
v -22.337503 35.861012 30.035273
v -22.317101 35.919796 30.515425
v -22.580376 34.219944 29.169363
v -22.303833 35.909126 31.080374
v -22.517519 34.208900 31.905615
v -22.293161 35.878296 31.649740
v -22.292852 35.785061 32.144650
v -22.307590 35.602295 32.530087
v -22.341768 35.295238 32.813049
v -22.409422 34.756004 33.005508
v -22.482214 34.203529 33.074280
v -22.823910 31.989170 32.045696
v -22.694662 32.678833 33.124020
v -22.866314 31.468353 33.147144
v -22.983631 30.669010 33.143188
v -23.076517 30.066515 33.076534
v -23.154823 29.690546 32.191036
v -23.144939 29.633556 32.953220
v -23.188326 29.369415 32.770531
v -23.218851 29.194216 32.535698
v -23.235691 29.124624 32.213135
v -23.156412 29.868532 29.879408
v -23.245831 29.104813 31.887186
v -23.237871 29.228394 30.565958
v -23.232971 29.345509 29.497759
v -23.221703 29.453333 29.261095
v -23.198833 29.636602 29.144903
v -23.160793 29.927294 29.107130
v -22.844744 32.132565 30.104826
v -22.804020 32.572990 29.105963
vn 0.9899 0.1396 -0.0243
vn 0.9898 0.1395 -0.0294
vn 0.9902 0.1366 -0.0304
vn 0.9902 0.1370 -0.0273
vn 0.9905 0.1358 -0.0227
vn 0.9892 0.1435 -0.0298
vn 0.9904 0.1347 -0.0303
vn 0.9885 0.1477 -0.0338
vn 0.9903 0.1359 -0.0291
vn 0.9902 0.1368 -0.0277
vn 0.9902 0.1371 -0.0267
vn 0.9902 0.1371 -0.0262
vn 0.9903 0.1369 -0.0258
vn 0.9903 0.1367 -0.0256
vn 0.9903 0.1367 -0.0252
vn 0.9905 0.1357 -0.0227
vn 0.9907 0.1347 -0.0200
vn 0.9906 0.1350 -0.0206
vn 0.9907 0.1343 -0.0200
vn 0.9889 0.1458 -0.0276
vn 0.9896 0.1428 -0.0194
vn 0.9891 0.1453 -0.0251
vn 0.9892 0.1448 -0.0230
vn 0.9895 0.1426 -0.0216
vn 0.9896 0.1423 -0.0216
vn 0.9905 0.1367 -0.0137
vn 0.9897 0.1423 -0.0143
vn 0.9899 0.1413 -0.0102
vn 0.9907 0.1357 -0.0128
vn 0.9909 0.1338 -0.0148
vn 0.9911 0.1325 -0.0154
vn 0.9910 0.1332 -0.0161
vn 0.9906 0.1357 -0.0189
vn 0.9908 0.1338 -0.0186
vn 0.9530 0.2250 -0.2028
vn 0.9530 0.2251 -0.2028
vn 0.9906 -0.1350 -0.0206
vn 0.9907 -0.1347 -0.0200
vn 0.9905 -0.1358 -0.0227
vn 0.9905 -0.1357 -0.0227
vn 0.9903 -0.1367 -0.0252
vn 0.9903 -0.1367 -0.0256
vn 0.9907 -0.1343 -0.0200
vn 0.9903 -0.1369 -0.0258
vn 0.9901 -0.1373 -0.0277
vn 0.9902 -0.1371 -0.0262
vn 0.9902 -0.1371 -0.0267
vn 0.9902 -0.1368 -0.0277
vn 0.9903 -0.1359 -0.0291
vn 0.9904 -0.1347 -0.0303
vn 0.9902 -0.1366 -0.0304
vn 0.9899 -0.1396 -0.0243
vn 0.9898 -0.1395 -0.0294
vn 0.9892 -0.1435 -0.0298
vn 0.9885 -0.1477 -0.0338
vn 0.9888 -0.1465 -0.0273
vn 0.9893 -0.1446 -0.0188
vn 0.9887 -0.1481 -0.0239
vn 0.9892 -0.1448 -0.0230
vn 0.9895 -0.1426 -0.0216
vn 0.9896 -0.1422 -0.0216
vn 0.9905 -0.1367 -0.0137
vn 0.9894 -0.1443 -0.0150
vn 0.9910 -0.1339 -0.0073
vn 0.9907 -0.1357 -0.0128
vn 0.9909 -0.1338 -0.0148
vn 0.9911 -0.1325 -0.0154
vn 0.9910 -0.1332 -0.0161
vn 0.9908 -0.1342 -0.0196
vn 0.9908 -0.1338 -0.0186
vt 0.577416 0.624120
vt 0.476217 0.782348
vt 0.252490 0.775049
vt 0.251702 0.603565
vt 0.250719 0.369763
vt 0.653838 0.785741
vt 0.171422 0.764958
vt 0.771130 0.785160
vt 0.092298 0.736718
vt 0.047242 0.695197
vt 0.020424 0.638640
vt 0.006742 0.566019
vt 0.002218 0.482472
vt 0.000653 0.399574
vt 0.009279 0.329119
vt 0.032849 0.274228
vt 0.081496 0.228944
vt 0.165982 0.210434
vt 0.250082 0.202059
vt 0.859537 0.775380
vt 0.914705 0.645446
vt 0.923068 0.757285
vt 0.961827 0.730479
vt 0.987535 0.696020
vt 0.997746 0.648689
vt 0.888588 0.306248
vt 1.000653 0.600861
vt 0.982520 0.406989
vt 0.965335 0.250247
vt 0.949512 0.215519
vt 0.922621 0.198470
vt 0.879965 0.192927
vt 0.556374 0.339325
vt 0.491748 0.192756
vt 0.030547 0.013421
vt 0.057023 0.000000
vt 0.194417 0.013443
vt 0.220986 0.028280
vt 1.000711 0.401379
vt 0.979371 0.606805
vt 0.975749 0.379662
vt 0.952757 0.628584
vt 0.943976 0.368431
vt 0.921052 0.639384
vt 0.105837 0.639384
vt 0.064701 0.368429
vt 0.073289 0.628873
vt 0.035015 0.379737
vt 0.045438 0.607349
vt 0.011496 0.401827
vt 0.027995 0.578739
vt 0.000711 0.429942
vt 0.835938 0.210938
vt 0.917969 0.230469
vt 0.750000 0.371094
vt 0.968750 0.273438
vt 0.992188 0.328125
vt 1.000000 0.398438
vt 0.750000 0.203125
vt 0.996094 0.484375
vt 0.750000 0.605469
vt 0.992188 0.566406
vt 0.980469 0.636719
vt 0.953125 0.695312
vt 0.906250 0.738281
vt 0.828125 0.765625
vt 0.746094 0.773438
vt 0.421875 0.625000
vt 0.523438 0.781250
vt 0.347656 0.785156
vt 0.230469 0.785156
vt 0.140625 0.773438
vt 0.085938 0.644531
vt 0.078125 0.757812
vt 0.039062 0.730469
vt 0.011719 0.695312
vt 0.003906 0.648438
vt 0.113281 0.304688
vt -0.000000 0.601562
vt 0.019531 0.406250
vt 0.035156 0.250000
vt 0.050781 0.214844
vt 0.078125 0.199219
vt 0.121094 0.191406
vt 0.445312 0.339844
vt 0.507812 0.191406
s 1
usemtl Material_#30
f 3/1/1 2/2/2 1/3/3
f 4/4/4 3/1/1 1/3/3
f 4/4/4 5/5/5 3/1/1
f 3/1/1 6/6/6 2/2/2
f 1/3/3 7/7/7 4/4/4
f 3/1/1 8/8/8 6/6/6
f 7/7/7 9/9/9 4/4/4
f 9/9/9 10/10/10 4/4/4
f 10/10/10 11/11/11 4/4/4
f 11/11/11 12/12/12 4/4/4
f 5/5/5 4/4/4 13/13/13
f 12/12/12 13/13/13 4/4/4
f 14/14/14 5/5/5 13/13/13
f 14/14/14 15/15/15 5/5/5
f 15/15/15 16/16/16 5/5/5
f 16/16/16 17/17/17 5/5/5
f 17/17/17 18/18/18 5/5/5
f 5/5/5 18/18/18 19/19/19
f 3/1/1 20/20/20 8/8/8
f 3/1/1 21/21/21 20/20/20
f 21/21/21 22/22/22 20/20/20
f 21/21/21 23/23/23 22/22/22
f 21/21/21 24/24/24 23/23/23
f 21/21/21 25/25/25 24/24/24
f 21/21/21 3/1/1 26/26/26
f 27/27/27 21/21/21 26/26/26
f 21/21/21 27/27/27 25/25/25
f 28/28/28 27/27/27 26/26/26
f 26/26/26 29/29/29 28/28/28
f 26/26/26 30/30/30 29/29/29
f 26/26/26 31/31/31 30/30/30
f 26/26/26 32/32/32 31/31/31
f 5/5/5 33/33/33 3/1/1
f 3/1/1 33/33/33 26/26/26
f 33/33/33 32/32/32 26/26/26
f 5/5/5 19/19/19 33/33/33
f 34/34/34 32/32/32 33/33/33
f 19/19/19 34/34/34 33/33/33
f 37/35/35 36/36/36 35/37/36
f 38/38/36 37/35/35 35/37/36
f 37/39/35 38/40/36 39/41/35
f 38/40/36 40/42/36 39/41/35
f 39/41/35 40/42/36 41/43/36
f 40/42/36 42/44/36 41/43/36
f 41/43/36 42/44/36 43/45/36
f 44/46/36 41/43/36 43/45/36
f 43/45/36 45/47/36 44/46/36
f 45/47/36 46/48/36 44/46/36
f 46/48/36 45/47/36 47/49/36
f 48/50/36 46/48/36 47/49/36
f 47/49/36 49/51/35 48/50/36
f 49/51/35 50/52/35 48/50/36
f 53/53/37 52/54/38 51/55/39
f 52/54/38 54/56/40 51/55/39
f 54/56/40 55/57/41 51/55/39
f 55/57/41 56/58/42 51/55/39
f 53/53/37 51/55/39 57/59/43
f 51/55/39 56/58/42 58/60/44
f 59/61/45 51/55/39 58/60/44
f 58/60/44 60/62/46 59/61/45
f 60/62/46 61/63/47 59/61/45
f 61/63/47 62/64/48 59/61/45
f 62/64/48 63/65/49 59/61/45
f 63/65/49 64/66/50 59/61/45
f 64/66/50 65/67/51 59/61/45
f 66/68/52 59/61/45 65/67/51
f 51/55/39 59/61/45 66/68/52
f 67/69/53 66/68/52 65/67/51
f 68/70/54 66/68/52 67/69/53
f 69/71/55 66/68/52 68/70/54
f 70/72/56 66/68/52 69/71/55
f 71/73/57 66/68/52 70/72/56
f 72/74/58 71/73/57 70/72/56
f 73/75/59 71/73/57 72/74/58
f 74/76/60 71/73/57 73/75/59
f 75/77/61 71/73/57 74/76/60
f 66/68/52 71/73/57 76/78/62
f 71/73/57 77/79/63 76/78/62
f 77/79/63 71/73/57 75/77/61
f 77/79/63 78/80/64 76/78/62
f 79/81/65 76/78/62 78/80/64
f 80/82/66 76/78/62 79/81/65
f 81/83/67 76/78/62 80/82/66
f 82/84/68 76/78/62 81/83/67
f 83/85/69 66/68/52 76/78/62
f 82/84/68 83/85/69 76/78/62
f 83/85/69 51/55/39 66/68/52
f 82/84/68 84/86/70 83/85/69
f 57/59/43 51/55/39 83/85/69
f 84/86/70 57/59/43 83/85/69
