# Blender 4.0.2
# www.blender.org
mtllib mirror.mtl
o mirrors_0
v -22.482214 -36.064644 33.074272
v -22.694662 -34.539951 33.124016
v -22.823910 -33.850285 32.045692
v -22.517517 -36.070019 31.905611
v -22.557625 -36.076717 30.312258
v -22.866314 -33.329464 33.147141
v -22.409422 -36.617123 33.005505
v -22.983629 -32.530125 33.143181
v -22.341768 -37.156353 32.813046
v -22.307590 -37.463409 32.530083
v -22.292852 -37.646172 32.144646
v -22.293161 -37.739410 31.649736
v -22.303831 -37.770241 31.080370
v -22.317099 -37.780907 30.515421
v -22.337503 -37.722126 30.035269
v -22.369106 -37.561493 29.661188
v -22.420177 -37.229969 29.352575
v -22.501549 -36.654194 29.226435
v -22.580376 -36.081055 29.169355
v -23.076515 -31.927629 33.076530
v -23.154823 -31.551661 32.191032
v -23.144939 -31.494673 32.953213
v -23.188326 -31.230528 32.770527
v -23.218851 -31.055332 32.535694
v -23.235691 -30.985739 32.213131
v -23.156412 -31.729649 29.879404
v -23.245831 -30.965927 31.887182
v -23.237871 -31.089508 30.565954
v -23.232969 -31.206623 29.497755
v -23.221703 -31.314453 29.261087
v -23.198833 -31.497719 29.144899
v -23.160793 -31.788414 29.107126
v -22.844744 -33.993679 30.104822
v -22.804020 -34.434109 29.105959
v -12.562167 3.292412 40.913166
v -12.860493 3.441811 39.676929
v -12.887320 3.335115 39.432446
v -12.481037 3.159968 41.147442
v -12.878810 3.126206 39.240623
v -12.391906 2.937929 41.319859
v -12.838730 2.860547 39.134140
v -12.312712 2.673178 41.398212
v -10.771076 -4.138486 41.083370
v -11.175948 -4.486384 38.794537
v -10.728251 -4.410605 40.982628
v -11.099669 -4.734254 38.877934
v -10.713922 -4.643654 40.791313
v -11.015839 -4.930429 39.054157
v -10.731899 -4.789839 40.544579
v -10.945365 -5.020112 39.285835
v -22.557627 34.215599 30.312262
v -22.420179 35.368855 29.352579
v -22.501551 34.793079 29.226439
v -22.369108 35.700378 29.661192
v -22.337505 35.861012 30.035273
v -22.317102 35.919796 30.515425
v -22.580378 34.219944 29.169363
v -22.303835 35.909126 31.080374
v -22.517521 34.208900 31.905615
v -22.293163 35.878296 31.649740
v -22.292854 35.785061 32.144650
v -22.307592 35.602295 32.530087
v -22.341770 35.295238 32.813049
v -22.409424 34.756004 33.005508
v -22.482216 34.203529 33.074280
v -22.823912 31.989168 32.045696
v -22.694664 32.678833 33.124020
v -22.866316 31.468351 33.147144
v -22.983633 30.669008 33.143188
v -23.076519 30.066513 33.076534
v -23.154825 29.690544 32.191036
v -23.144941 29.633554 32.953220
v -23.188328 29.369413 32.770531
v -23.218853 29.194214 32.535698
v -23.235693 29.124622 32.213135
v -23.156414 29.868530 29.879408
v -23.245832 29.104811 31.887186
v -23.237873 29.228392 30.565958
v -23.232973 29.345507 29.497759
v -23.221704 29.453331 29.261095
v -23.198835 29.636600 29.144903
v -23.160795 29.927292 29.107130
v -22.844746 32.132565 30.104826
v -22.804022 32.572990 29.105963
vn 0.9899 0.1396 -0.0243
vn 0.9898 0.1395 -0.0294
vn 0.9902 0.1366 -0.0304
vn 0.9902 0.1369 -0.0271
vn 0.9905 0.1358 -0.0227
vn 0.9892 0.1435 -0.0298
vn 0.9904 0.1347 -0.0303
vn 0.9885 0.1477 -0.0338
vn 0.9903 0.1359 -0.0291
vn 0.9902 0.1368 -0.0277
vn 0.9902 0.1371 -0.0268
vn 0.9902 0.1371 -0.0262
vn 0.9903 0.1369 -0.0258
vn 0.9903 0.1367 -0.0256
vn 0.9903 0.1367 -0.0252
vn 0.9905 0.1357 -0.0227
vn 0.9907 0.1347 -0.0200
vn 0.9906 0.1350 -0.0206
vn 0.9907 0.1343 -0.0200
vn 0.9890 0.1456 -0.0277
vn 0.9896 0.1427 -0.0194
vn 0.9891 0.1453 -0.0251
vn 0.9892 0.1448 -0.0230
vn 0.9895 0.1426 -0.0215
vn 0.9896 0.1423 -0.0216
vn 0.9905 0.1367 -0.0137
vn 0.9897 0.1423 -0.0143
vn 0.9899 0.1413 -0.0102
vn 0.9907 0.1357 -0.0128
vn 0.9909 0.1338 -0.0148
vn 0.9911 0.1325 -0.0154
vn 0.9910 0.1332 -0.0161
vn 0.9906 0.1358 -0.0189
vn 0.9908 0.1338 -0.0186
vn 0.9530 0.2250 -0.2028
vn 0.9530 0.2251 -0.2028
vn 0.9906 -0.1350 -0.0206
vn 0.9907 -0.1347 -0.0200
vn 0.9905 -0.1358 -0.0227
vn 0.9905 -0.1357 -0.0227
vn 0.9903 -0.1367 -0.0252
vn 0.9903 -0.1367 -0.0256
vn 0.9907 -0.1343 -0.0200
vn 0.9903 -0.1369 -0.0258
vn 0.9901 -0.1373 -0.0277
vn 0.9902 -0.1371 -0.0262
vn 0.9902 -0.1371 -0.0267
vn 0.9902 -0.1368 -0.0277
vn 0.9903 -0.1359 -0.0291
vn 0.9904 -0.1347 -0.0303
vn 0.9902 -0.1366 -0.0304
vn 0.9899 -0.1396 -0.0243
vn 0.9898 -0.1395 -0.0294
vn 0.9892 -0.1435 -0.0298
vn 0.9885 -0.1477 -0.0338
vn 0.9888 -0.1466 -0.0273
vn 0.9893 -0.1446 -0.0188
vn 0.9887 -0.1481 -0.0239
vn 0.9892 -0.1448 -0.0230
vn 0.9895 -0.1426 -0.0215
vn 0.9896 -0.1423 -0.0216
vn 0.9905 -0.1367 -0.0137
vn 0.9894 -0.1443 -0.0150
vn 0.9910 -0.1339 -0.0073
vn 0.9907 -0.1357 -0.0128
vn 0.9909 -0.1338 -0.0148
vn 0.9911 -0.1325 -0.0154
vn 0.9910 -0.1332 -0.0161
vn 0.9908 -0.1342 -0.0196
vn 0.9908 -0.1338 -0.0186
vt 0.691575 0.727445
vt 0.741099 0.994279
vt 0.850586 0.981970
vt 0.850972 0.692781
vt 0.851453 0.298502
vt 0.654175 1.000001
vt 0.890259 0.964952
vt 0.596775 0.999022
vt 0.928981 0.917328
vt 0.951030 0.847308
vt 0.964154 0.751930
vt 0.970850 0.629464
vt 0.973063 0.488574
vt 0.973830 0.348775
vt 0.969609 0.229960
vt 0.958074 0.137394
vt 0.934267 0.061026
vt 0.892921 0.029813
vt 0.851764 0.015689
vt 0.553510 0.982528
vt 0.526512 0.763409
vt 0.522420 0.952013
vt 0.503452 0.906807
vt 0.490871 0.848697
vt 0.485874 0.768877
vt 0.539293 0.191391
vt 0.484451 0.688221
vt 0.493325 0.361280
vt 0.501735 0.096951
vt 0.509479 0.038388
vt 0.522639 0.009636
vt 0.543513 0.000290
vt 0.701872 0.247171
vt 0.733499 0.000000
vt 0.012464 0.131554
vt 0.000000 0.236027
vt 0.018406 0.777189
vt 0.034204 0.881691
vt 0.037042 0.051920
vt 0.060554 0.960930
vt 0.068380 0.010515
vt 0.091896 1.000000
vt 0.896874 0.990259
vt 0.936614 0.000000
vt 0.928979 0.951473
vt 0.965964 0.040951
vt 0.956411 0.872517
vt 0.989259 0.121365
vt 0.973541 0.767799
vt 1.000000 0.223934
vt 0.100219 0.029812
vt 0.058147 0.061026
vt 0.142415 0.298501
vt 0.033923 0.137393
vt 0.022186 0.229959
vt 0.017891 0.348775
vt 0.142097 0.015688
vt 0.018670 0.488573
vt 0.142904 0.692780
vt 0.020923 0.629463
vt 0.027735 0.751929
vt 0.041090 0.847307
vt 0.063526 0.917327
vt 0.102928 0.964952
vt 0.143296 0.981969
vt 0.305098 0.727444
vt 0.254705 0.994278
vt 0.343153 1.000000
vt 0.401561 0.999021
vt 0.445584 0.982528
vt 0.473056 0.763408
vt 0.477220 0.952012
vt 0.496521 0.906806
vt 0.509322 0.848696
vt 0.514407 0.768877
vt 0.460051 0.191391
vt 0.515855 0.688220
vt 0.506825 0.361279
vt 0.498267 0.096951
vt 0.490389 0.038387
vt 0.476998 0.009636
vt 0.455757 0.000289
vt 0.294620 0.247171
vt 0.262439 0.000000
s 1
usemtl Material_#30
f 3/1/1 2/2/2 1/3/3
f 4/4/4 3/1/1 1/3/3
f 4/4/4 5/5/5 3/1/1
f 3/1/1 6/6/6 2/2/2
f 1/3/3 7/7/7 4/4/4
f 3/1/1 8/8/8 6/6/6
f 7/7/7 9/9/9 4/4/4
f 9/9/9 10/10/10 4/4/4
f 10/10/10 11/11/11 4/4/4
f 11/11/11 12/12/12 4/4/4
f 5/5/5 4/4/4 13/13/13
f 12/12/12 13/13/13 4/4/4
f 14/14/14 5/5/5 13/13/13
f 14/14/14 15/15/15 5/5/5
f 15/15/15 16/16/16 5/5/5
f 16/16/16 17/17/17 5/5/5
f 17/17/17 18/18/18 5/5/5
f 5/5/5 18/18/18 19/19/19
f 3/1/1 20/20/20 8/8/8
f 3/1/1 21/21/21 20/20/20
f 21/21/21 22/22/22 20/20/20
f 21/21/21 23/23/23 22/22/22
f 21/21/21 24/24/24 23/23/23
f 21/21/21 25/25/25 24/24/24
f 21/21/21 3/1/1 26/26/26
f 27/27/27 21/21/21 26/26/26
f 21/21/21 27/27/27 25/25/25
f 28/28/28 27/27/27 26/26/26
f 26/26/26 29/29/29 28/28/28
f 26/26/26 30/30/30 29/29/29
f 26/26/26 31/31/31 30/30/30
f 26/26/26 32/32/32 31/31/31
f 5/5/5 33/33/33 3/1/1
f 3/1/1 33/33/33 26/26/26
f 33/33/33 32/32/32 26/26/26
f 5/5/5 19/19/19 33/33/33
f 34/34/34 32/32/32 33/33/33
f 19/19/19 34/34/34 33/33/33
f 37/35/35 36/36/35 35/37/36
f 38/38/36 37/35/35 35/37/36
f 37/35/35 38/38/36 39/39/35
f 38/38/36 40/40/36 39/39/35
f 39/39/35 40/40/36 41/41/36
f 40/40/36 42/42/36 41/41/36
f 41/41/36 42/42/36 43/43/36
f 44/44/36 41/41/36 43/43/36
f 43/43/36 45/45/36 44/44/36
f 45/45/36 46/46/36 44/44/36
f 46/46/36 45/45/36 47/47/36
f 48/48/36 46/46/36 47/47/36
f 47/47/36 49/49/36 48/48/36
f 49/49/36 50/50/35 48/48/36
f 53/51/37 52/52/38 51/53/39
f 52/52/38 54/54/40 51/53/39
f 54/54/40 55/55/41 51/53/39
f 55/55/41 56/56/42 51/53/39
f 53/51/37 51/53/39 57/57/43
f 51/53/39 56/56/42 58/58/44
f 59/59/45 51/53/39 58/58/44
f 58/58/44 60/60/46 59/59/45
f 60/60/46 61/61/47 59/59/45
f 61/61/47 62/62/48 59/59/45
f 62/62/48 63/63/49 59/59/45
f 63/63/49 64/64/50 59/59/45
f 64/64/50 65/65/51 59/59/45
f 66/66/52 59/59/45 65/65/51
f 51/53/39 59/59/45 66/66/52
f 67/67/53 66/66/52 65/65/51
f 68/68/54 66/66/52 67/67/53
f 69/69/55 66/66/52 68/68/54
f 70/70/56 66/66/52 69/69/55
f 71/71/57 66/66/52 70/70/56
f 72/72/58 71/71/57 70/70/56
f 73/73/59 71/71/57 72/72/58
f 74/74/60 71/71/57 73/73/59
f 75/75/61 71/71/57 74/74/60
f 66/66/52 71/71/57 76/76/62
f 71/71/57 77/77/63 76/76/62
f 77/77/63 71/71/57 75/75/61
f 77/77/63 78/78/64 76/76/62
f 79/79/65 76/76/62 78/78/64
f 80/80/66 76/76/62 79/79/65
f 81/81/67 76/76/62 80/80/66
f 82/82/68 76/76/62 81/81/67
f 83/83/69 66/66/52 76/76/62
f 82/82/68 83/83/69 76/76/62
f 83/83/69 51/53/39 66/66/52
f 82/82/68 84/84/70 83/83/69
f 57/57/43 51/53/39 83/83/69
f 84/84/70 57/57/43 83/83/69
