# Blender 4.0.2
# www.blender.org
mtllib dashboard_needle_back_part.mtl
o Object014
v -23.029507 7.771507 26.235271
v -23.008654 8.102510 26.149075
v -23.013962 7.931167 26.170996
v -23.054253 7.634410 26.337532
v -23.086496 7.529197 26.470791
v -23.013962 8.273859 26.170996
v -23.054253 8.570623 26.337528
v -23.029516 8.433518 26.235277
v -23.124043 7.463061 26.625980
v -23.124043 8.741956 26.625990
v -23.086496 8.675833 26.470791
v -23.164337 7.440503 26.792513
v -23.164337 8.764525 26.792513
v -23.242174 8.675833 27.114235
v -23.204626 8.741960 26.959049
v -23.242174 7.529197 27.114235
v -23.204626 7.463061 26.959049
v -23.320009 8.102856 27.435917
v -23.299158 8.433518 27.349751
v -23.274418 8.570627 27.247498
v -23.314713 8.273859 27.414032
v -23.299112 7.771247 27.349556
v -23.314444 7.931330 27.412916
v -23.274418 7.634402 27.247498
v -23.721754 11.247595 29.058733
v -23.703192 10.616199 29.019640
v -23.721754 10.896478 29.058733
v -23.703192 11.527875 29.019640
v -23.661816 10.191429 28.848635
v -23.661821 11.952656 28.848639
v -23.595997 9.826660 28.576595
v -23.595997 12.317405 28.576595
v -23.510218 9.546772 28.222071
v -23.510218 12.597304 28.222063
v -23.410324 9.370834 27.809204
v -23.410324 12.773243 27.809204
v -23.303125 12.833258 27.366150
v -23.303125 9.310815 27.366150
v -23.195932 9.370838 26.923100
v -23.195932 12.773243 26.923100
v -23.096037 12.597297 26.510237
v -23.096037 9.546772 26.510237
v -23.010191 9.826873 26.155443
v -23.010191 12.317191 26.155436
v -22.946775 10.173764 25.893337
v -22.946775 11.970307 25.893337
v -23.054253 17.732683 26.337528
v -23.013962 18.029448 26.170996
v -23.029516 17.869789 26.235277
v -23.086496 18.774111 26.470791
v -23.008654 18.200796 26.149075
v -23.054253 18.668898 26.337532
v -23.029507 18.531796 26.235271
v -23.013962 18.372141 26.170996
v -23.124043 18.840246 26.625980
v -23.124043 17.561350 26.625990
v -23.086496 17.627474 26.470791
v -23.164337 18.862803 26.792513
v -23.164337 17.538780 26.792513
v -23.242174 17.627474 27.114235
v -23.204626 17.561348 26.959049
v -23.242174 18.774111 27.114235
v -23.204626 18.840246 26.959049
v -23.320009 18.200451 27.435917
v -23.299112 18.532061 27.349556
v -23.274418 18.668900 27.247498
v -23.314444 18.371977 27.412916
v -23.299158 17.869789 27.349751
v -23.314713 18.029448 27.414032
v -23.274418 17.732679 27.247498
v -23.703192 15.687107 29.019640
v -23.721754 15.055708 29.058733
v -23.721754 15.406830 29.058733
v -23.703192 14.775429 29.019640
v -23.661816 16.111877 28.848635
v -23.661821 14.350652 28.848639
v -23.595997 16.476646 28.576595
v -23.595997 13.985901 28.576595
v -23.510218 16.756535 28.222071
v -23.510218 13.706002 28.222063
v -23.410324 16.932474 27.809204
v -23.410324 13.530064 27.809204
v -23.303125 13.470044 27.366150
v -23.303125 16.992487 27.366150
v -23.195932 16.932468 26.923100
v -23.195932 13.530064 26.923100
v -23.096037 13.706007 26.510237
v -23.096037 16.756535 26.510237
v -23.010191 16.476433 26.155443
v -23.010191 13.986115 26.155436
v -22.946775 16.129538 25.893337
v -22.946775 14.332998 25.893337
vn 0.9720 -0.0001 0.2351
vn 0.9719 -0.0000 0.2352
vn 0.9720 -0.0000 0.2352
vn 0.9720 0.0001 0.2352
vn 0.9720 -0.0000 0.2351
vn 0.9720 -0.0000 0.2350
vn 0.9033 -0.0000 0.4290
vn 0.9694 -0.0000 0.2457
vn 0.9034 -0.0000 0.4289
vn 0.9694 -0.0000 0.2456
vn 0.9720 -0.0001 0.2352
vn 0.9720 0.0001 0.2351
vn 0.9720 -0.0000 0.2349
vt 0.550122 0.019134
vt 0.556677 0.018266
vt 0.544018 0.021651
vt 0.538781 0.025656
vt 0.534770 0.030873
vt 0.563232 0.019109
vt 0.574598 0.025569
vt 0.569346 0.021598
vt 0.532260 0.036952
vt 0.581188 0.036790
vt 0.578646 0.030748
vt 0.531442 0.043485
vt 0.582078 0.043282
vt 0.578725 0.055815
vt 0.581229 0.049775
vt 0.534919 0.056040
vt 0.532352 0.049997
vt 0.556901 0.068389
vt 0.569498 0.064987
vt 0.574721 0.060998
vt 0.563417 0.067507
vt 0.544226 0.065131
vt 0.550349 0.067527
vt 0.538973 0.061206
vt 0.665908 0.134108
vt 0.655129 0.132508
vt 0.679372 0.134065
vt 0.690138 0.132403
vt 0.638729 0.125764
vt 0.706490 0.125623
vt 0.624637 0.114934
vt 0.720509 0.114837
vt 0.613814 0.100723
vt 0.731271 0.100792
vt 0.607047 0.084193
vt 0.738042 0.084430
vt 0.740350 0.066863
vt 0.604755 0.066538
vt 0.607068 0.048920
vt 0.738063 0.049294
vt 0.731335 0.032914
vt 0.613821 0.032541
vt 0.624608 0.018510
vt 0.720591 0.018839
vt 0.637963 0.008185
vt 0.707304 0.008449
vt 0.937597 0.021622
vt 0.943713 0.019136
vt 0.932343 0.025591
vt 0.972172 0.030913
vt 0.950269 0.018296
vt 0.968164 0.025695
vt 0.962929 0.021687
vt 0.956824 0.019167
vt 0.974679 0.036994
vt 0.925748 0.036809
vt 0.928292 0.030769
vt 0.975494 0.043527
vt 0.924856 0.043301
vt 0.928205 0.055836
vt 0.925703 0.049794
vt 0.972011 0.056081
vt 0.974581 0.050038
vt 0.950023 0.068419
vt 0.962699 0.065166
vt 0.967954 0.061245
vt 0.956576 0.067559
vt 0.937429 0.065012
vt 0.943508 0.067534
vt 0.932207 0.061021
vt 0.841004 0.134116
vt 0.827541 0.134070
vt 0.851782 0.132515
vt 0.816774 0.132408
vt 0.868182 0.125773
vt 0.800424 0.125627
vt 0.882277 0.114946
vt 0.786408 0.114840
vt 0.893105 0.100737
vt 0.775649 0.100793
vt 0.899879 0.084207
vt 0.768881 0.084431
vt 0.766577 0.066864
vt 0.902174 0.066550
vt 0.899863 0.048931
vt 0.768866 0.049296
vt 0.775595 0.032916
vt 0.893112 0.032550
vt 0.882326 0.018517
vt 0.786339 0.018843
vt 0.868966 0.008191
vt 0.799620 0.008454
s 1
usemtl Material_#7
f 3/1/1 2/2/2 1/3/3
f 2/2/2 4/4/2 1/3/3
f 5/5/3 4/4/2 2/2/2
f 6/6/3 5/5/3 2/2/2
f 7/7/3 5/5/3 6/6/3
f 8/8/4 7/7/3 6/6/3
f 9/9/3 5/5/3 7/7/3
f 10/10/3 9/9/3 7/7/3
f 11/11/5 10/10/3 7/7/3
f 9/9/3 10/10/3 12/12/3
f 12/12/3 10/10/3 13/13/3
f 14/14/3 12/12/3 13/13/3
f 15/15/3 14/14/3 13/13/3
f 16/16/3 12/12/3 14/14/3
f 17/17/2 12/12/3 16/16/3
f 18/18/3 16/16/3 14/14/3
f 19/19/3 18/18/3 14/14/3
f 20/20/6 19/19/3 14/14/3
f 21/21/5 18/18/3 19/19/3
f 22/22/3 16/16/3 18/18/3
f 23/23/2 22/22/3 18/18/3
f 24/24/2 16/16/3 22/22/3
f 27/25/7 26/26/8 25/27/9
f 28/28/10 25/27/9 26/26/8
f 26/26/8 29/29/5 28/28/10
f 30/30/3 28/28/10 29/29/5
f 29/29/5 31/31/3 30/30/3
f 32/32/3 30/30/3 31/31/3
f 31/31/3 33/33/3 32/32/3
f 34/34/3 32/32/3 33/33/3
f 33/33/3 35/35/3 34/34/3
f 36/36/3 34/34/3 35/35/3
f 36/36/3 35/35/3 37/37/3
f 38/38/3 37/37/3 35/35/3
f 38/38/3 39/39/3 37/37/3
f 40/40/3 37/37/3 39/39/3
f 40/40/3 39/39/3 41/41/3
f 42/42/3 41/41/3 39/39/3
f 42/42/3 43/43/3 41/41/3
f 44/44/3 41/41/3 43/43/3
f 43/43/3 45/45/3 44/44/3
f 46/46/3 44/44/3 45/45/3
f 49/47/11 48/48/3 47/49/3
f 48/48/3 50/50/5 47/49/3
f 51/51/2 50/50/5 48/48/3
f 52/52/3 50/50/5 51/51/2
f 53/53/2 52/52/3 51/51/2
f 54/54/12 53/53/2 51/51/2
f 50/50/5 55/55/3 47/49/3
f 55/55/3 56/56/3 47/49/3
f 56/56/3 57/57/1 47/49/3
f 55/55/3 58/58/3 56/56/3
f 56/56/3 58/58/3 59/59/3
f 59/59/3 58/58/3 60/60/3
f 61/61/2 59/59/3 60/60/3
f 60/60/3 58/58/3 62/62/3
f 58/58/3 63/63/1 62/62/3
f 64/64/2 60/60/3 62/62/3
f 65/65/3 64/64/2 62/62/3
f 66/66/5 65/65/3 62/62/3
f 67/67/2 64/64/2 65/65/3
f 68/68/3 60/60/3 64/64/2
f 69/69/13 68/68/3 64/64/2
f 70/70/5 60/60/3 68/68/3
f 73/71/9 72/72/9 71/73/8
f 74/74/10 71/73/8 72/72/9
f 71/73/8 74/74/10 75/75/5
f 76/76/3 75/75/5 74/74/10
f 75/75/5 76/76/3 77/77/3
f 78/78/3 77/77/3 76/76/3
f 77/77/3 78/78/3 79/79/3
f 80/80/3 79/79/3 78/78/3
f 79/79/3 80/80/3 81/81/3
f 82/82/3 81/81/3 80/80/3
f 82/82/3 83/83/3 81/81/3
f 84/84/3 81/81/3 83/83/3
f 84/84/3 83/83/3 85/85/3
f 86/86/3 85/85/3 83/83/3
f 86/86/3 87/87/3 85/85/3
f 88/88/3 85/85/3 87/87/3
f 88/88/3 87/87/3 89/89/3
f 90/90/3 89/89/3 87/87/3
f 89/89/3 90/90/3 91/91/3
f 92/92/3 91/91/3 90/90/3
