# Blender 4.3.0
# www.blender.org
o Kit3_Light_Geo_lodA.005
v 6.109842 81.681122 34.380363
v 2.883126 81.920326 34.337177
v 6.134817 82.312874 33.812370
v 7.768154 81.441933 34.423550
v 7.783139 82.153328 33.834499
v 8.412498 82.073952 33.875534
v 8.467443 81.362289 34.444603
v 8.562346 81.994308 33.896587
v 8.572336 81.362289 34.444603
v 8.667239 81.915207 33.957600
v 8.677229 81.361755 34.404648
v 8.722183 81.836365 34.038586
v 8.737168 81.440857 34.343639
v 8.757148 81.519691 34.262650
v 2.950557 82.551811 33.749203
v 0.001060 82.631721 33.748127
v 0.001060 82.000237 34.336102
v -2.881007 81.920326 34.337177
v -2.948438 82.551811 33.749203
v -6.132698 82.312874 33.812370
v -6.107723 81.681129 34.380363
v -7.781020 82.153328 33.834499
v -7.766035 81.441933 34.423550
v -8.410379 82.073952 33.875534
v -8.465323 81.362289 34.444603
v -8.560227 81.994316 33.896587
v -8.570217 81.362289 34.444603
v -8.665120 81.915215 33.957600
v -8.675110 81.361755 34.404648
v -8.720064 81.836372 34.038586
v -8.735049 81.440857 34.343639
v -8.755029 81.519691 34.262650
vn 0.0440 0.6683 0.7426
vn 0.0274 0.6788 0.7338
vn 0.0470 0.6632 0.7470
vn 0.0575 0.6423 0.7643
vn 0.0622 0.6337 0.7711
vn 0.0598 0.6320 0.7726
vn 0.0461 0.6298 0.7754
vn 0.1822 0.6295 0.7554
vn 0.1152 0.6420 0.7580
vn 0.0434 0.6515 0.7574
vn 0.2489 0.6097 0.7526
vn -0.2301 0.6084 0.7596
vn 0.0237 0.6111 0.7912
vn 0.5650 0.5172 0.6428
vn 0.0280 0.6796 0.7331
vn -0.0000 0.6812 0.7321
vn -0.0000 0.6814 0.7319
vn -0.0274 0.6788 0.7338
vn -0.0280 0.6796 0.7331
vn -0.0441 0.6683 0.7426
vn -0.0471 0.6632 0.7470
vn -0.0574 0.6423 0.7643
vn -0.0622 0.6337 0.7711
vn -0.0598 0.6320 0.7726
vn -0.0461 0.6298 0.7754
vn -0.1822 0.6295 0.7554
vn -0.1152 0.6420 0.7580
vn -0.0434 0.6515 0.7574
vn -0.2489 0.6097 0.7526
vn 0.2301 0.6084 0.7596
vn -0.0237 0.6111 0.7912
vn -0.5650 0.5172 0.6428
vt 0.077881 0.002125
vt 0.300293 0.061798
vt 0.074890 0.061798
vt -0.035919 0.002125
vt -0.042389 0.061798
vt -0.078796 0.002125
vt -0.092346 0.061798
vt -0.089600 0.004452
vt -0.099243 0.060913
vt -0.097595 0.010155
vt -0.105957 0.057037
vt -0.102783 0.018738
vt -0.109070 0.049957
vt -0.108948 0.040436
vt 0.298340 0.002125
vt 0.500977 0.002125
vt 0.500977 0.061798
vt 0.701660 0.061798
vt 0.703613 0.002125
vt 0.923828 0.002125
vt 0.926758 0.061798
vt 1.037109 0.002125
vt 1.042969 0.061798
vt 1.081055 0.002125
vt 1.091797 0.061798
vt 1.091797 0.004799
vt 1.098633 0.061401
vt 1.099609 0.010834
vt 1.105469 0.057861
vt 1.104492 0.019608
vt 1.109375 0.050964
vt 1.109375 0.041473
s 1
f 3/1/1 2/2/2 1/3/3
f 1/3/3 5/4/4 3/1/1
f 1/3/3 4/5/5 5/4/4
f 4/5/5 6/6/6 5/4/4
f 4/5/5 7/7/7 6/6/6
f 7/7/7 8/8/8 6/6/6
f 7/7/7 9/9/9 8/8/8
f 9/9/9 10/10/10 8/8/8
f 9/9/9 11/11/11 10/10/10
f 11/11/11 12/12/12 10/10/10
f 13/13/13 12/12/12 11/11/11
f 14/14/14 12/12/12 13/13/13
f 3/1/1 15/15/15 2/2/2
f 16/16/16 2/2/2 15/15/15
f 16/16/16 17/17/17 2/2/2
f 16/16/16 18/18/18 17/17/17
f 16/16/16 19/19/19 18/18/18
f 20/20/20 18/18/18 19/19/19
f 20/20/20 21/21/21 18/18/18
f 22/22/22 21/21/21 20/20/20
f 22/22/22 23/23/23 21/21/21
f 24/24/24 23/23/23 22/22/22
f 24/24/24 25/25/25 23/23/23
f 26/26/26 25/25/25 24/24/24
f 26/26/26 27/27/27 25/25/25
f 28/28/28 27/27/27 26/26/26
f 28/28/28 29/29/29 27/27/27
f 30/30/30 29/29/29 28/28/28
f 30/30/30 31/31/31 29/29/29
f 32/32/32 31/31/31 30/30/30
