# Blender 4.3.0
# www.blender.org
o Kit3_Badge_Geo_lodA.010
v -31.726780 23.466635 39.263008
v -31.724047 23.865786 39.136330
v -31.566877 23.490284 39.443485
v -31.702950 23.016369 39.381790
v -31.878859 23.381405 39.094685
v -31.872686 23.782490 38.971817
v -31.825621 24.119997 38.831535
v -31.666014 24.309662 38.946228
v -31.364948 24.324366 39.303543
v -31.493065 23.899950 39.397030
v -31.447784 23.888538 39.449070
v -31.463596 23.554222 39.534595
v -31.367088 23.568413 39.633690
v -31.504179 23.474483 39.515530
v -31.622997 23.028194 39.472031
v -31.544624 23.008448 39.562088
v -31.664431 22.565411 39.487637
v -31.473026 22.958439 39.645752
v -31.413111 22.881544 39.717651
v -31.457664 22.717747 39.687267
v -31.457491 22.632696 39.694073
v -31.456491 22.554989 39.699600
v -31.454548 22.473200 39.704689
v -31.451145 22.373230 39.710060
v -31.444820 22.226038 39.716904
v -31.518791 22.148239 39.637230
v -31.358469 21.730371 39.773888
v -31.495661 21.660072 39.621571
v -31.280893 21.312241 39.775620
v -31.390192 21.256233 39.654270
v -31.194101 20.937099 39.714485
v -31.256231 20.904251 39.645126
v -31.326097 20.958494 39.594074
v -31.416536 21.252338 39.624508
v -31.587389 22.113091 39.561069
v -31.656384 21.636316 39.440006
v -31.667751 22.101212 39.470291
v -31.813278 21.675837 39.259396
v -31.760937 21.256828 39.232491
v -31.622362 21.221920 39.392010
v -31.642927 20.775909 39.155193
v -31.533062 20.774403 39.294022
v -31.523973 20.813185 39.320446
v -31.746199 22.120974 39.379986
v -31.817741 22.170980 39.295784
v -31.847385 22.292648 39.260880
v -31.870071 22.389935 39.232063
v -31.890196 22.480553 39.204334
v -31.910677 22.577759 39.173622
v -31.935013 22.699190 39.134148
v -31.899122 22.809502 39.169331
v -31.950350 22.707169 39.112183
v -31.951899 22.867889 39.089863
v -31.845919 22.903204 39.225147
v -31.778988 22.973753 39.297626
v 0.717338 -16.263168 47.477741
v 0.721267 -16.334332 48.498096
v 0.527354 -16.263397 47.480976
v 0.531281 -16.334332 48.498096
v 0.450097 -16.334332 48.498096
v 0.446170 -16.263424 47.481339
v 0.255601 -16.263653 47.484581
v 0.259528 -16.334332 48.498096
v 0.154153 -16.334332 48.498096
v 0.150227 -16.263670 47.484821
v -0.071979 -16.263939 47.488598
v -0.068051 -16.334332 48.498096
v -0.348061 -16.334332 48.498096
v -0.351990 -16.263988 47.489296
v -0.794771 -16.264521 47.496834
v -0.790841 -16.334332 48.498096
v 0.001047 -90.999222 19.916044
v 1.626868 -90.528885 20.316174
v 1.791636 -90.594231 20.201353
v 1.422066 -90.470612 20.418573
v 1.182275 -90.420837 20.506031
v 0.913398 -90.380791 20.576393
v 0.622056 -90.351463 20.627928
v 1.912314 -90.665039 20.076939
v 1.985930 -90.739555 19.945993
v 2.010671 -90.815956 19.811747
v 1.985929 -90.892365 19.677496
v 1.912312 -90.966881 19.546553
v 1.791635 -91.037689 19.422140
v 1.626867 -91.103035 19.307318
v 1.422065 -91.161308 19.204920
v 1.182274 -91.211090 19.117458
v 0.913397 -91.251129 19.047098
v 0.622055 -91.280464 18.995565
v 0.315422 -91.298347 18.964128
v 0.001047 -91.304359 18.953562
v -0.313327 -91.298347 18.964128
v -0.619961 -91.280464 18.995565
v -0.911303 -91.251129 19.047098
v -1.180181 -91.211082 19.117462
v -1.419972 -91.161308 19.204920
v -1.624773 -91.103035 19.307320
v -1.789541 -91.037682 19.422140
v -1.910219 -90.966881 19.546553
v -1.983836 -90.892365 19.677496
v -2.008577 -90.815956 19.811747
v -1.983836 -90.739555 19.945995
v -1.910219 -90.665039 20.076939
v -1.789541 -90.594231 20.201353
v -1.624773 -90.528885 20.316174
v -1.419972 -90.470612 20.418573
v -1.180180 -90.420837 20.506031
v -0.911303 -90.380791 20.576395
v -0.619961 -90.351463 20.627928
v -0.313327 -90.333572 20.659365
v 0.001047 -90.327560 20.669930
v 0.315422 -90.333572 20.659365
v 31.664192 21.635082 39.444469
v 31.632214 21.220060 39.398514
v 31.504827 21.658609 39.625435
v 31.673178 22.100424 39.472557
v 31.820198 21.674715 39.263313
v 31.784689 21.258795 39.221455
v 31.712679 20.904541 39.149887
v 31.541309 20.752783 39.298901
v 31.243519 20.829685 39.650951
v 31.402002 21.254045 39.659912
v 31.358156 21.278603 39.708519
v 31.398222 21.621222 39.726898
v 31.301947 21.633579 39.826458
v 31.444109 21.692610 39.692734
v 31.593498 22.112192 39.563038
v 31.517603 22.154688 39.647167
v 31.667440 22.564957 39.487770
v 31.450521 22.225050 39.719105
v 31.396852 22.318583 39.774292
v 31.452484 22.469685 39.712566
v 31.458345 22.554216 39.702557
v 31.462849 22.631369 39.692738
v 31.466707 22.712502 39.681683
v 31.470375 22.811575 39.667332
v 31.474459 22.957321 39.645153
v 31.552906 23.012581 39.552074
v 31.423651 23.459396 39.603489
v 31.563919 23.488615 39.440891
v 31.375608 23.874184 39.522892
v 31.487358 23.897461 39.393356
v 31.314735 24.235262 39.389030
v 31.378334 24.249411 39.314827
v 31.443710 24.181416 39.275684
v 31.513617 23.893581 39.363514
v 31.623037 23.027189 39.470776
v 31.724094 23.464922 39.258854
v 31.703131 23.015345 39.379753
v 31.876036 23.379791 39.090130
v 31.852938 23.788048 38.981373
v 31.718746 23.863235 39.130394
v 31.768192 24.251627 38.810802
v 31.660082 24.288055 38.946198
v 31.648563 24.255951 38.979671
v 31.779095 22.972780 39.295387
v 31.846121 22.902317 39.222916
v 31.866808 22.774382 39.212666
v 31.882334 22.671980 39.203583
v 31.895775 22.576496 39.194244
v 31.909075 22.473953 39.183262
v 31.924450 22.345736 39.168468
v 31.881254 22.247272 39.224449
v 31.938965 22.332546 39.148560
v 31.929018 22.170862 39.158192
v 31.822166 22.170321 39.297348
v 31.751179 22.120243 39.381981
vn -0.7602 0.1660 0.6282
vn -0.7507 0.2870 0.5950
vn -0.7781 0.2536 0.5746
vn -0.7420 0.1731 0.6476
vn -0.7578 0.1122 0.6428
vn -0.7720 0.1582 0.6157
vn -0.7775 0.3307 0.5350
vn -0.7385 0.3447 0.5795
vn -0.7227 0.3495 0.5963
vn -0.7281 0.2865 0.6227
vn -0.6988 0.2620 0.6656
vn -0.7157 0.2047 0.6677
vn -0.7310 0.1425 0.6674
vn -0.7443 0.1117 0.6585
vn -0.7358 0.1008 0.6696
vn -0.7279 0.0805 0.6810
vn -0.7527 0.0361 0.6574
vn -0.7228 0.0748 0.6870
vn -0.7171 0.0639 0.6940
vn -0.7132 0.0483 0.6993
vn -0.7126 0.0332 0.7008
vn -0.7148 0.0183 0.6990
vn -0.7200 0.0040 0.6939
vn -0.7209 -0.0201 0.6927
vn -0.7258 -0.0338 0.6870
vn -0.7186 -0.0870 0.6900
vn -0.7275 -0.0819 0.6812
vn -0.6878 -0.1809 0.7030
vn -0.6889 -0.1990 0.6970
vn -0.6518 -0.2665 0.7100
vn -0.6650 -0.2712 0.6959
vn -0.6994 -0.2832 0.6562
vn -0.7208 -0.1988 0.6640
vn -0.7402 -0.0418 0.6711
vn -0.7562 -0.0872 0.6485
vn -0.7527 -0.0434 0.6569
vn -0.7625 -0.0951 0.6400
vn -0.7607 -0.2043 0.6161
vn -0.7597 -0.2191 0.6122
vn -0.7542 -0.2805 0.5938
vn -0.7518 -0.2807 0.5967
vn -0.6992 -0.2832 0.6564
vn -0.7654 -0.0385 0.6424
vn -0.7718 -0.0256 0.6353
vn -0.7761 -0.0036 0.6306
vn -0.7821 0.0090 0.6231
vn -0.7852 0.0232 0.6188
vn -0.7856 0.0387 0.6176
vn -0.7844 0.0529 0.6180
vn -0.8048 0.0740 0.5889
vn -0.7843 0.0674 0.6167
vn -0.8007 0.0837 0.5932
vn -0.7769 0.0858 0.6237
vn -0.7705 0.1025 0.6292
vn -0.0000 0.9976 0.0696
vn 0.0941 -0.8169 0.5691
vn 0.0860 -0.8011 0.5923
vn -0.0000 -0.8691 0.4946
vn 0.0757 -0.7863 0.6131
vn 0.0634 -0.7732 0.6310
vn 0.0494 -0.7621 0.6455
vn 0.0339 -0.7537 0.6563
vn 0.0998 -0.8330 0.5442
vn 0.1032 -0.8489 0.5183
vn 0.1044 -0.8644 0.4919
vn 0.1032 -0.8792 0.4652
vn 0.0998 -0.8933 0.4382
vn 0.0941 -0.9065 0.4116
vn 0.0860 -0.9184 0.3863
vn 0.0757 -0.9287 0.3629
vn 0.0634 -0.9374 0.3425
vn 0.0494 -0.9442 0.3256
vn 0.0339 -0.9492 0.3129
vn 0.0173 -0.9522 0.3049
vn -0.0000 -0.9532 0.3022
vn -0.0173 -0.9522 0.3049
vn -0.0339 -0.9492 0.3129
vn -0.0494 -0.9442 0.3256
vn -0.0634 -0.9374 0.3424
vn -0.0757 -0.9287 0.3629
vn -0.0860 -0.9184 0.3863
vn -0.0941 -0.9065 0.4116
vn -0.0998 -0.8933 0.4382
vn -0.1032 -0.8792 0.4652
vn -0.1044 -0.8644 0.4919
vn -0.1032 -0.8489 0.5183
vn -0.0998 -0.8330 0.5442
vn -0.0941 -0.8169 0.5691
vn -0.0860 -0.8011 0.5923
vn -0.0757 -0.7863 0.6131
vn -0.0634 -0.7732 0.6310
vn -0.0494 -0.7621 0.6455
vn -0.0339 -0.7537 0.6563
vn -0.0173 -0.7485 0.6630
vn -0.0000 -0.7466 0.6652
vn 0.0173 -0.7485 0.6630
vn 0.7529 -0.0931 0.6516
vn 0.7346 -0.2172 0.6428
vn 0.7641 -0.1905 0.6163
vn 0.7345 -0.0949 0.6720
vn 0.7544 -0.0375 0.6553
vn 0.7651 -0.0886 0.6378
vn 0.7576 -0.2737 0.5925
vn 0.7182 -0.2759 0.6388
vn 0.7023 -0.2762 0.6561
vn 0.7124 -0.2097 0.6697
vn 0.6853 -0.1754 0.7068
vn 0.7062 -0.1200 0.6978
vn 0.7258 -0.0603 0.6853
vn 0.7411 -0.0329 0.6706
vn 0.7336 -0.0194 0.6793
vn 0.7271 0.0032 0.6865
vn 0.7548 0.0402 0.6547
vn 0.7225 0.0104 0.6913
vn 0.7177 0.0227 0.6960
vn 0.7150 0.0389 0.6980
vn 0.7154 0.0543 0.6965
vn 0.7188 0.0688 0.6918
vn 0.7249 0.0812 0.6840
vn 0.7274 0.1043 0.6782
vn 0.7332 0.1164 0.6700
vn 0.7297 0.1694 0.6624
vn 0.7382 0.1621 0.6548
vn 0.7057 0.2660 0.6566
vn 0.7080 0.2825 0.6472
vn 0.6759 0.3537 0.6466
vn 0.6892 0.3545 0.6319
vn 0.7240 0.3561 0.5907
vn 0.7395 0.2735 0.6151
vn 0.7479 0.1201 0.6528
vn 0.7669 0.1590 0.6217
vn 0.7603 0.1178 0.6388
vn 0.7736 0.1644 0.6119
vn 0.7792 0.2667 0.5671
vn 0.7792 0.2805 0.5604
vn 0.7778 0.3373 0.5303
vn 0.7755 0.3382 0.5331
vn 0.7241 0.3561 0.5906
vn 0.7725 0.1094 0.6255
vn 0.7780 0.0954 0.6210
vn 0.7810 0.0716 0.6205
vn 0.7857 0.0580 0.6159
vn 0.7878 0.0430 0.6145
vn 0.7870 0.0272 0.6164
vn 0.7848 0.0138 0.6196
vn 0.8035 -0.0140 0.5951
vn 0.7837 -0.0006 0.6211
vn 0.7988 -0.0220 0.6012
vn 0.7752 -0.0167 0.6315
vn 0.7676 -0.0315 0.6402
vt 0.574319 0.799246
vt 0.562713 0.885791
vt 0.514418 0.872774
vt 0.625483 0.799323
vt 0.587286 0.701979
vt 0.524906 0.785927
vt 0.505496 0.946402
vt 0.549556 0.982770
vt 0.648062 0.976273
vt 0.636620 0.885904
vt 0.650887 0.882103
vt 0.655480 0.810145
vt 0.684795 0.810388
vt 0.645237 0.794061
vt 0.612868 0.702017
vt 0.637560 0.695441
vt 0.659687 0.682690
vt 0.600205 0.604757
vt 0.677789 0.664619
vt 0.663488 0.631156
vt 0.662858 0.613149
vt 0.662289 0.596707
vt 0.661697 0.579411
vt 0.660981 0.558282
vt 0.659935 0.527189
vt 0.635509 0.513031
vt 0.670767 0.421351
vt 0.626251 0.410729
vt 0.673194 0.333047
vt 0.637729 0.324585
vt 0.667780 0.255079
vt 0.647539 0.250064
vt 0.630916 0.262985
vt 0.629295 0.324573
vt 0.613252 0.507721
vt 0.574799 0.410657
vt 0.587526 0.507685
vt 0.525316 0.423829
vt 0.519702 0.336114
vt 0.563406 0.324481
vt 0.513860 0.236097
vt 0.551011 0.232123
vt 0.557247 0.239615
vt 0.562784 0.514270
vt 0.540580 0.527032
vt 0.533435 0.553517
vt 0.527719 0.574708
vt 0.522392 0.594460
vt 0.516676 0.615661
vt 0.509532 0.642164
vt 0.504103 0.644406
vt 0.522311 0.664344
vt 0.503619 0.678645
vt 0.540413 0.682484
vt 0.562579 0.695319
vt 0.731244 0.003661
vt 0.677883 0.312003
vt 0.677871 0.002934
vt 0.731253 0.311820
vt 0.737280 0.311799
vt 0.737273 0.003744
vt 0.790810 0.004473
vt 0.790814 0.311616
vt 0.794808 0.311602
vt 0.794804 0.004528
vt 0.857229 0.005378
vt 0.857229 0.311388
vt 0.868724 0.311349
vt 0.868724 0.005535
vt 0.993116 0.007230
vt 0.993107 0.310922
vt 0.367098 0.056016
vt 0.399850 0.096571
vt 0.254727 0.498920
vt 0.429197 0.146984
vt 0.454451 0.206068
vt 0.474997 0.272445
vt 0.490281 0.344593
vt 0.331263 0.026386
vt 0.294053 0.008228
vt 0.255920 0.002048
vt 0.217750 0.007999
vt 0.180441 0.025932
vt 0.144859 0.055418
vt 0.111842 0.095755
vt 0.082153 0.145982
vt 0.056495 0.204923
vt 0.035482 0.271220
vt 0.019699 0.343387
vt 0.009757 0.419794
vt 0.006239 0.498516
vt 0.009478 0.577231
vt 0.019147 0.653659
vt 0.034656 0.725894
vt 0.055421 0.792298
vt 0.080875 0.851371
vt 0.110403 0.901742
vt 0.143302 0.942235
vt 0.178810 0.971874
vt 0.216094 0.989962
vt 0.254276 0.996057
vt 0.292475 0.990017
vt 0.329783 0.971978
vt 0.365335 0.942392
vt 0.398297 0.901943
vt 0.427895 0.851617
vt 0.453426 0.792584
vt 0.474259 0.726227
vt 0.489818 0.654070
vt 0.499541 0.577793
vt 0.502940 0.499310
vt 0.499765 0.420851
s 1
f 1/1/1 2/2/2 6/3/3
f 3/4/4 2/2/2 1/1/1
f 4/5/5 3/4/4 1/1/1
f 5/6/6 4/5/5 1/1/1
f 1/1/1 6/3/3 5/6/6
f 7/7/7 6/3/3 2/2/2
f 7/7/7 2/2/2 8/8/8
f 2/2/2 9/9/9 8/8/8
f 2/2/2 10/10/10 9/9/9
f 9/9/9 10/10/10 11/11/11
f 12/12/12 13/13/12 11/11/11
f 12/12/12 11/11/11 10/10/10
f 12/12/12 10/10/10 3/4/4
f 3/4/4 14/14/13 12/12/12
f 14/14/13 3/4/4 15/15/14
f 14/14/13 15/15/14 16/16/15
f 18/17/16 16/16/15 17/18/17
f 17/18/17 16/16/15 15/15/14
f 19/19/18 18/17/16 17/18/17
f 20/20/19 19/19/18 17/18/17
f 21/21/20 20/20/19 17/18/17
f 22/22/21 21/21/20 17/18/17
f 23/23/22 22/22/21 17/18/17
f 23/23/22 17/18/17 24/24/23
f 25/25/24 24/24/23 17/18/17
f 26/26/25 25/25/24 17/18/17
f 26/26/25 27/27/26 25/25/24
f 28/28/27 29/29/28 27/27/26
f 28/28/27 27/27/26 26/26/25
f 28/28/27 30/30/29 29/29/28
f 31/31/30 29/29/28 30/30/29
f 31/31/30 30/30/29 32/32/31
f 33/33/32 32/32/31 30/30/29
f 33/33/32 30/30/29 34/34/33
f 28/28/27 34/34/33 30/30/29
f 28/28/27 26/26/25 35/35/34
f 35/35/34 36/36/35 28/28/27
f 35/35/34 37/37/36 36/36/35
f 37/37/36 38/38/37 36/36/35
f 36/36/35 38/38/37 39/39/38
f 36/36/35 39/39/38 40/40/39
f 41/41/40 40/40/39 39/39/38
f 41/41/40 42/42/41 40/40/39
f 43/43/42 40/40/39 42/42/41
f 37/37/36 44/44/43 38/38/37
f 45/45/44 38/38/37 44/44/43
f 17/18/17 46/46/45 45/45/44
f 44/44/43 17/18/17 45/45/44
f 46/46/45 17/18/17 47/47/46
f 48/48/47 47/47/46 17/18/17
f 49/49/48 48/48/47 17/18/17
f 50/50/49 49/49/48 17/18/17
f 52/51/50 50/50/49 51/52/51
f 51/52/51 50/50/49 17/18/17
f 52/51/50 51/52/51 53/53/52
f 53/53/52 51/52/51 54/54/53
f 51/52/51 17/18/17 54/54/53
f 54/54/53 17/18/17 55/55/54
f 54/54/53 55/55/54 5/6/6
f 5/6/6 55/55/54 4/5/5
f 55/55/54 17/18/17 4/5/5
f 37/37/36 17/18/17 44/44/43
f 35/35/34 17/18/17 37/37/36
f 35/35/34 26/26/25 17/18/17
f 4/5/5 17/18/17 15/15/14
f 4/5/5 15/15/14 3/4/4
f 3/4/4 10/10/10 2/2/2
f 58/56/55 57/57/55 56/58/55
f 58/56/55 59/59/55 57/57/55
f 58/56/55 60/60/55 59/59/55
f 58/56/55 61/61/55 60/60/55
f 62/62/55 60/60/55 61/61/55
f 62/62/55 63/63/55 60/60/55
f 62/62/55 64/64/55 63/63/55
f 62/62/55 65/65/55 64/64/55
f 66/66/55 64/64/55 65/65/55
f 66/66/55 67/67/55 64/64/55
f 66/66/55 68/68/55 67/67/55
f 66/66/55 69/69/55 68/68/55
f 70/70/55 68/68/55 69/69/55
f 70/70/55 71/71/55 68/68/55
f 74/72/56 73/73/57 72/74/58
f 75/75/59 72/74/58 73/73/57
f 75/75/59 76/76/60 72/74/58
f 77/77/61 72/74/58 76/76/60
f 77/77/61 78/78/62 72/74/58
f 74/72/56 72/74/58 79/79/63
f 80/80/64 79/79/63 72/74/58
f 80/80/64 72/74/58 81/81/65
f 82/82/66 81/81/65 72/74/58
f 82/82/66 72/74/58 83/83/67
f 84/84/68 83/83/67 72/74/58
f 84/84/68 72/74/58 85/85/69
f 86/86/70 85/85/69 72/74/58
f 86/86/70 72/74/58 87/87/71
f 88/88/72 87/87/71 72/74/58
f 88/88/72 72/74/58 89/89/73
f 90/90/74 89/89/73 72/74/58
f 90/90/74 72/74/58 91/91/75
f 92/92/76 91/91/75 72/74/58
f 92/92/76 72/74/58 93/93/77
f 94/94/78 93/93/77 72/74/58
f 94/94/78 72/74/58 95/95/79
f 96/96/80 95/95/79 72/74/58
f 96/96/80 72/74/58 97/97/81
f 98/98/82 97/97/81 72/74/58
f 98/98/82 72/74/58 99/99/83
f 100/100/84 99/99/83 72/74/58
f 100/100/84 72/74/58 101/101/85
f 102/102/86 101/101/85 72/74/58
f 102/102/86 72/74/58 103/103/87
f 104/104/88 103/103/87 72/74/58
f 104/104/88 72/74/58 105/105/89
f 106/106/90 105/105/89 72/74/58
f 106/106/90 72/74/58 107/107/91
f 108/108/92 107/107/91 72/74/58
f 108/108/92 72/74/58 109/109/93
f 110/110/94 109/109/93 72/74/58
f 110/110/94 72/74/58 111/111/95
f 112/112/96 111/111/95 72/74/58
f 112/112/96 72/74/58 78/78/62
f 113/1/97 114/2/98 118/3/99
f 115/4/100 114/2/98 113/1/97
f 116/5/101 115/4/100 113/1/97
f 117/6/102 116/5/101 113/1/97
f 113/1/97 118/3/99 117/6/102
f 119/7/103 118/3/99 114/2/98
f 119/7/103 114/2/98 120/8/104
f 114/2/98 121/9/105 120/8/104
f 114/2/98 122/10/106 121/9/105
f 121/9/105 122/10/106 123/11/107
f 124/12/108 125/13/108 123/11/107
f 124/12/108 123/11/107 122/10/106
f 124/12/108 122/10/106 115/4/100
f 115/4/100 126/14/109 124/12/108
f 126/14/109 115/4/100 127/15/110
f 126/14/109 127/15/110 128/16/111
f 130/17/112 128/16/111 129/18/113
f 129/18/113 128/16/111 127/15/110
f 131/19/114 130/17/112 129/18/113
f 132/20/115 131/19/114 129/18/113
f 133/21/116 132/20/115 129/18/113
f 134/22/117 133/21/116 129/18/113
f 135/23/118 134/22/117 129/18/113
f 135/23/118 129/18/113 136/24/119
f 137/25/120 136/24/119 129/18/113
f 138/26/121 137/25/120 129/18/113
f 138/26/121 139/27/122 137/25/120
f 140/28/123 141/29/124 139/27/122
f 140/28/123 139/27/122 138/26/121
f 140/28/123 142/30/125 141/29/124
f 143/31/126 141/29/124 142/30/125
f 143/31/126 142/30/125 144/32/127
f 145/33/128 144/32/127 142/30/125
f 145/33/128 142/30/125 146/34/129
f 140/28/123 146/34/129 142/30/125
f 140/28/123 138/26/121 147/35/130
f 147/35/130 148/36/131 140/28/123
f 147/35/130 149/37/132 148/36/131
f 149/37/132 150/38/133 148/36/131
f 148/36/131 150/38/133 151/39/134
f 148/36/131 151/39/134 152/40/135
f 153/41/136 152/40/135 151/39/134
f 153/41/136 154/42/137 152/40/135
f 155/43/138 152/40/135 154/42/137
f 149/37/132 156/44/139 150/38/133
f 157/45/140 150/38/133 156/44/139
f 129/18/113 158/46/141 157/45/140
f 156/44/139 129/18/113 157/45/140
f 158/46/141 129/18/113 159/47/142
f 160/48/143 159/47/142 129/18/113
f 161/49/144 160/48/143 129/18/113
f 162/50/145 161/49/144 129/18/113
f 164/51/146 162/50/145 163/52/147
f 163/52/147 162/50/145 129/18/113
f 164/51/146 163/52/147 165/53/148
f 165/53/148 163/52/147 166/54/149
f 163/52/147 129/18/113 166/54/149
f 166/54/149 129/18/113 167/55/150
f 166/54/149 167/55/150 117/6/102
f 117/6/102 167/55/150 116/5/101
f 167/55/150 129/18/113 116/5/101
f 149/37/132 129/18/113 156/44/139
f 147/35/130 129/18/113 149/37/132
f 147/35/130 138/26/121 129/18/113
f 116/5/101 129/18/113 127/15/110
f 116/5/101 127/15/110 115/4/100
f 115/4/100 122/10/106 114/2/98
