# Blender 4.3.0
# www.blender.org
o Kit3_Interior_Geo_lodA.011
v 11.639206 -33.944523 30.463619
v 12.028810 -33.945061 30.423662
v 11.988850 -34.365459 31.848015
v 11.279572 -33.962616 30.603733
v 10.969887 -33.999611 30.824028
v 10.730131 -34.075485 31.124773
v 10.570293 -34.150818 31.465473
v 10.510355 -34.265568 31.846668
v 10.560304 -34.360615 32.207615
v 10.700162 -34.475903 32.548855
v 10.919938 -34.571754 32.849865
v 11.229623 -34.668682 33.070969
v 11.579267 -34.726730 33.211620
v 11.958880 -34.785858 33.272362
v 12.348484 -34.786663 33.212429
v 12.708117 -34.768570 33.072315
v 13.017803 -34.731579 32.852020
v 13.257559 -34.675682 32.551544
v 13.417396 -34.580368 32.210575
v 13.467345 -34.465351 31.849360
v 13.427386 -34.370575 31.468435
v 13.287528 -34.255283 31.127197
v 13.057762 -34.159431 30.826181
v 12.758067 -34.062504 30.605080
v 12.408423 -34.004456 30.464428
v 12.208627 -34.916008 33.993450
v 12.428403 -34.916279 33.973473
v 12.408423 -35.106903 34.655411
v 12.008830 -34.914665 34.093338
v 11.848992 -34.952465 34.253700
v 11.739104 -35.009975 34.434311
v 11.699144 -35.066948 34.654873
v 11.729115 -35.124191 34.855461
v 11.829013 -35.181431 35.056046
v 11.978860 -35.239479 35.196697
v 12.178657 -35.278091 35.297127
v 12.398433 -35.317505 35.337620
v 12.608219 -35.318047 35.297665
v 12.808016 -35.299412 35.197506
v 12.967854 -35.261341 35.057121
v 13.077742 -35.224079 34.856804
v 13.117702 -35.166836 34.656219
v 13.087731 -35.089886 34.435387
v 12.987833 -35.032375 34.254776
v 12.837986 -34.974598 34.094147
v 12.638189 -34.935986 33.993721
v 20.350340 -34.746712 33.211891
v 19.970726 -34.785858 33.272362
v 19.940756 -34.365459 31.848015
v 20.699984 -34.668682 33.070969
v 20.999680 -34.591732 32.850136
v 21.239435 -34.475906 32.548855
v 21.379293 -34.360615 32.207615
v 21.419252 -34.265572 31.846668
v 21.359312 -34.150818 31.465473
v 21.199476 -34.075485 31.124773
v 20.959719 -33.999611 30.824028
v 20.640045 -33.962616 30.603733
v 20.290401 -33.944523 30.463619
v 19.900797 -33.945332 30.403685
v 19.521183 -34.004456 30.464428
v 19.171539 -34.062504 30.605080
v 18.861855 -34.159431 30.826181
v 18.642078 -34.255283 31.127197
v 18.502220 -34.370575 31.468435
v 18.452272 -34.485329 31.849630
v 18.512211 -34.580368 32.210575
v 18.672049 -34.675682 32.551544
v 18.911804 -34.731579 32.852020
v 19.221489 -34.788551 33.072586
v 19.581123 -34.786667 33.212429
v 16.394365 -35.750828 35.803032
v 15.954813 -35.770267 35.843258
v 15.954814 -35.139805 33.696743
v 16.813938 -35.732464 35.682896
v 17.203543 -35.675224 35.482311
v 17.543198 -35.578835 35.221252
v 17.822912 -35.483253 34.900261
v 18.032700 -35.388481 34.519337
v 18.162567 -35.273998 34.118164
v 18.202526 -35.139805 33.696743
v 18.162567 -35.025593 33.275593
v 18.032700 -34.911110 32.874420
v 17.822912 -34.796356 32.493229
v 17.543198 -34.700775 32.172234
v 17.203543 -34.624634 31.891470
v 16.813938 -34.567390 31.690884
v 16.394365 -34.529053 31.570478
v 15.954814 -34.509613 31.530254
v 15.515261 -34.529053 31.570478
v 15.095688 -34.567390 31.690884
v 14.706084 -34.624634 31.891470
v 14.366430 -34.700775 32.172234
v 14.086715 -34.796356 32.493229
v 13.876928 -34.911110 32.874420
v 13.747061 -35.025593 33.275593
v 13.707101 -35.139805 33.696743
v 13.747061 -35.273998 34.118164
v 13.876928 -35.388481 34.519337
v 14.086715 -35.483253 34.900261
v 14.366430 -35.578835 35.221252
v 14.706083 -35.675224 35.482311
v 15.095687 -35.732464 35.682896
v 15.515260 -35.750828 35.803032
v 19.740959 -35.278091 35.297127
v 19.531174 -35.317509 35.337620
v 19.511194 -35.106903 34.655411
v 19.940756 -35.239483 35.196697
v 20.090605 -35.181431 35.056046
v 20.190502 -35.124191 34.855461
v 20.220472 -35.066948 34.654873
v 20.180513 -35.009975 34.434311
v 20.080614 -34.952465 34.253700
v 19.920776 -34.914665 34.093338
v 19.720980 -34.916012 33.993450
v 19.501204 -34.916279 33.973473
v 19.281427 -34.935989 33.993721
v 19.081631 -34.974598 34.094147
v 18.931784 -35.032379 34.254776
v 18.831884 -35.109863 34.435654
v 18.801916 -35.166840 34.656219
v 18.841875 -35.224079 34.856804
v 18.951763 -35.261345 35.057121
v 19.111601 -35.299416 35.197506
v 19.311398 -35.318047 35.297665
v 0.940025 -32.880890 31.623478
v -0.936815 -32.880890 31.623478
v 0.767700 -32.723221 31.461502
v 1.048040 -33.057999 31.825680
v -1.044830 -33.057999 31.825680
v 1.085502 -33.235107 32.027882
v -1.082292 -33.255085 32.028149
v 1.048040 -33.432194 32.230350
v -1.044830 -33.432194 32.230350
v 0.940025 -33.609573 32.412575
v -0.936815 -33.629551 32.412846
v 0.767700 -33.766972 32.594528
v -0.764490 -33.767242 32.574551
v 0.543553 -33.885223 32.716011
v -0.540343 -33.885223 32.716011
v -0.278891 -33.964058 32.796997
v 0.001610 -33.983765 32.817249
v 0.282101 -33.964058 32.796997
v -0.764490 -32.723221 31.461502
v -0.540343 -32.604969 31.340019
v 0.543553 -32.604969 31.340019
v -0.278891 -32.526134 31.259029
v 0.282101 -32.526138 31.259029
v 0.001610 -32.506428 31.238783
vn 0.0705 0.9585 0.2763
vn 0.0742 0.9559 0.2842
vn 0.0450 0.9589 0.2802
vn 0.0677 0.9599 0.2722
vn 0.0660 0.9586 0.2768
vn 0.0673 0.9610 0.2682
vn 0.0712 0.9590 0.2743
vn 0.0646 0.9600 0.2724
vn 0.0707 0.9608 0.2681
vn 0.0683 0.9585 0.2767
vn 0.0750 0.9579 0.2773
vn 0.0705 0.9571 0.2811
vn 0.0774 0.9578 0.2770
vn 0.0743 0.9560 0.2837
vn 0.0532 0.9580 0.2817
vn 0.0693 0.9589 0.2750
vn 0.0861 0.9611 0.2623
vn 0.0809 0.9577 0.2763
vn 0.0657 0.9503 0.3043
vn 0.0646 0.9599 0.2726
vn 0.0726 0.9623 0.2620
vn 0.0710 0.9590 0.2745
vn 0.0781 0.9583 0.2749
vn 0.0732 0.9576 0.2787
vn 0.0852 0.9575 0.2757
vn 0.0661 0.9579 0.2793
vn 0.0451 0.9618 0.2702
vn 0.0767 0.9639 0.2548
vn 0.0936 0.9605 0.2620
vn 0.0455 0.9520 0.3027
vn 0.0428 0.9562 0.2897
vn 0.0541 0.9634 0.2627
vn 0.0517 0.9645 0.2590
vn 0.0668 0.9591 0.2750
vn 0.0666 0.9556 0.2869
vn 0.0826 0.9551 0.2844
vn 0.0882 0.9514 0.2950
vn 0.0588 0.9536 0.2952
vn 0.0508 0.9523 0.3008
vn 0.0720 0.9605 0.2690
vn 0.0895 0.9610 0.2617
vn 0.0799 0.9492 0.3042
vn 0.0720 0.9525 0.2958
vn 0.0608 0.9601 0.2728
vn 0.0580 0.9615 0.2685
vn -0.0709 0.9578 0.2787
vn -0.0496 0.9576 0.2837
vn -0.0734 0.9545 0.2889
vn -0.0713 0.9569 0.2815
vn -0.0658 0.9562 0.2854
vn -0.0787 0.9520 0.2958
vn -0.0706 0.9604 0.2695
vn -0.0646 0.9598 0.2731
vn -0.0712 0.9590 0.2743
vn -0.0673 0.9610 0.2682
vn -0.0652 0.9585 0.2776
vn -0.0677 0.9597 0.2727
vn -0.0529 0.9591 0.2782
vn -0.0745 0.9570 0.2804
vn -0.0783 0.9586 0.2739
vn -0.0723 0.9578 0.2782
vn -0.0775 0.9583 0.2750
vn -0.0713 0.9588 0.2750
vn -0.0783 0.9557 0.2839
vn -0.0770 0.9592 0.2720
vn -0.0723 0.9567 0.2821
vn -0.0809 0.9577 0.2763
vn -0.0681 0.9577 0.2795
vn -0.0750 0.9553 0.2860
vn -0.0767 0.9582 0.2756
vn -0.0000 0.9604 0.2788
vn -0.0000 0.9595 0.2818
vn 0.0097 0.9609 0.2767
vn 0.0204 0.9604 0.2778
vn -0.0139 0.9551 0.2961
vn -0.0189 0.9554 0.2948
vn 0.0060 0.9640 0.2658
vn 0.0113 0.9647 0.2632
vn 0.0029 0.9571 0.2898
vn -0.0000 0.9592 0.2827
vn 0.0012 0.9635 0.2677
vn 0.0048 0.9602 0.2792
vn 0.0060 0.9591 0.2830
vn -0.0012 0.9613 0.2756
vn -0.0036 0.9623 0.2721
vn 0.0041 0.9611 0.2760
vn 0.0125 0.9604 0.2784
vn -0.0000 0.9602 0.2793
vn -0.0125 0.9604 0.2784
vn -0.0041 0.9611 0.2760
vn 0.0036 0.9623 0.2721
vn 0.0012 0.9613 0.2756
vn -0.0060 0.9591 0.2830
vn -0.0048 0.9602 0.2792
vn -0.0012 0.9635 0.2677
vn -0.0029 0.9571 0.2898
vn -0.0113 0.9647 0.2632
vn -0.0060 0.9640 0.2658
vn 0.0189 0.9554 0.2948
vn 0.0139 0.9551 0.2961
vn -0.0204 0.9604 0.2778
vn -0.0097 0.9609 0.2767
vn -0.0685 0.9580 0.2783
vn -0.0879 0.9511 0.2962
vn -0.0853 0.9547 0.2852
vn -0.0667 0.9556 0.2870
vn -0.0668 0.9591 0.2750
vn -0.0516 0.9646 0.2585
vn -0.0541 0.9634 0.2627
vn -0.0432 0.9565 0.2884
vn -0.0455 0.9523 0.3016
vn -0.0927 0.9609 0.2611
vn -0.0773 0.9642 0.2536
vn -0.0435 0.9620 0.2695
vn -0.0566 0.9617 0.2681
vn -0.0608 0.9601 0.2728
vn -0.0913 0.9469 0.3082
vn -0.0973 0.9527 0.2878
vn -0.0809 0.9615 0.2626
vn -0.0895 0.9610 0.2617
vn -0.0720 0.9605 0.2689
vn -0.0508 0.9523 0.3008
vn -0.0576 0.9536 0.2956
vn -0.5209 -0.8484 -0.0946
vn -0.6413 -0.7446 -0.1852
vn 0.6438 -0.7428 -0.1840
vn -0.7048 -0.6374 -0.3114
vn 0.7056 -0.6267 -0.3308
vn -0.7281 -0.5039 -0.4647
vn 0.7426 -0.4886 -0.4580
vn -0.7063 -0.3554 -0.6122
vn 0.6980 -0.3720 -0.6119
vn -0.6408 -0.2471 -0.7268
vn 0.6408 -0.1978 -0.7418
vn -0.5270 -0.1599 -0.8347
vn 0.5268 -0.1673 -0.8334
vn -0.3636 -0.0617 -0.9295
vn 0.3880 -0.0950 -0.9167
vn 0.1849 0.0078 -0.9827
vn 0.0001 0.0087 -1.0000
vn -0.1845 0.0074 -0.9828
vn 0.5216 -0.8480 -0.0934
vn 0.3711 -0.9285 -0.0144
vn -0.3706 -0.9287 -0.0153
vn 0.1870 -0.9811 0.0503
vn -0.1867 -0.9812 0.0498
vn 0.0001 -0.9986 0.0524
vt 0.407959 0.751465
vt 0.408203 0.633789
vt 0.438721 0.637695
vt 0.467041 0.649414
vt 0.491211 0.668457
vt 0.509766 0.692871
vt 0.521484 0.721191
vt 0.525391 0.751953
vt 0.521484 0.782227
vt 0.509277 0.810547
vt 0.490967 0.834961
vt 0.466309 0.853516
vt 0.437988 0.865234
vt 0.407471 0.869141
vt 0.377197 0.865234
vt 0.348877 0.853516
vt 0.324463 0.834473
vt 0.305908 0.810059
vt 0.294189 0.781738
vt 0.290283 0.750977
vt 0.294434 0.720703
vt 0.306152 0.692383
vt 0.324951 0.667969
vt 0.349365 0.649414
vt 0.377930 0.637695
vt 0.322021 0.275879
vt 0.322021 0.200684
vt 0.345215 0.204346
vt 0.366211 0.214966
vt 0.382812 0.231689
vt 0.393555 0.252686
vt 0.397217 0.275879
vt 0.393555 0.299072
vt 0.382812 0.320068
vt 0.366211 0.336670
vt 0.345215 0.347412
vt 0.322021 0.351074
vt 0.298828 0.347412
vt 0.277832 0.336670
vt 0.261230 0.320068
vt 0.250488 0.299072
vt 0.246948 0.275879
vt 0.250488 0.252686
vt 0.261230 0.231689
vt 0.277832 0.215088
vt 0.298828 0.204346
vt 0.646973 0.751465
vt 0.646973 0.870605
vt 0.616211 0.866699
vt 0.587402 0.854492
vt 0.562988 0.835938
vt 0.543945 0.811035
vt 0.532227 0.782715
vt 0.528320 0.751953
vt 0.532715 0.721191
vt 0.544434 0.692871
vt 0.563477 0.667480
vt 0.587891 0.651855
vt 0.616211 0.637207
vt 0.646973 0.634277
vt 0.677246 0.639160
vt 0.705078 0.648926
vt 0.729980 0.668457
vt 0.749023 0.692383
vt 0.761230 0.720703
vt 0.765137 0.751465
vt 0.761230 0.782227
vt 0.749512 0.811035
vt 0.730957 0.835449
vt 0.706543 0.854492
vt 0.677734 0.866699
vt 0.144165 0.729980
vt 0.144531 0.871582
vt 0.116943 0.868652
vt 0.090393 0.860840
vt 0.065918 0.847656
vt 0.044434 0.830566
vt 0.026810 0.809082
vt 0.013680 0.784668
vt 0.005569 0.757812
vt 0.002783 0.730469
vt 0.005432 0.702637
vt 0.013420 0.676270
vt 0.026428 0.651855
vt 0.043945 0.630371
vt 0.065308 0.612793
vt 0.089783 0.599609
vt 0.116272 0.591309
vt 0.143799 0.588867
vt 0.171387 0.591309
vt 0.197998 0.599121
vt 0.222412 0.612305
vt 0.243896 0.629883
vt 0.261475 0.651367
vt 0.274658 0.675781
vt 0.282715 0.702148
vt 0.285645 0.729492
vt 0.282959 0.757324
vt 0.274902 0.783691
vt 0.261963 0.808594
vt 0.244385 0.830078
vt 0.223022 0.847656
vt 0.198608 0.860840
vt 0.172119 0.868652
vt 0.164917 0.276123
vt 0.164917 0.351562
vt 0.141602 0.347900
vt 0.120605 0.337158
vt 0.103943 0.320557
vt 0.093201 0.299561
vt 0.089539 0.276123
vt 0.093262 0.252686
vt 0.104004 0.231812
vt 0.120728 0.215210
vt 0.141724 0.204468
vt 0.165039 0.200806
vt 0.188354 0.204590
vt 0.209351 0.215332
vt 0.226074 0.232056
vt 0.236694 0.252930
vt 0.240356 0.276367
vt 0.236694 0.299561
vt 0.225952 0.320557
vt 0.209229 0.337402
vt 0.188232 0.347900
vt 0.621582 0.218506
vt 0.606445 0.238159
vt 0.770020 0.238159
vt 0.597168 0.260986
vt 0.779785 0.260986
vt 0.593750 0.285400
vt 0.782715 0.285400
vt 0.597168 0.309814
vt 0.779785 0.309814
vt 0.606445 0.332520
vt 0.770020 0.332520
vt 0.621582 0.352295
vt 0.755371 0.352295
vt 0.641113 0.367188
vt 0.735840 0.367188
vt 0.712891 0.376709
vt 0.688477 0.379883
vt 0.664062 0.376709
vt 0.755371 0.218506
vt 0.735840 0.203491
vt 0.641113 0.203491
vt 0.712891 0.194092
vt 0.664062 0.194092
vt 0.688477 0.190796
s 1
f 3/1/1 2/2/2 1/3/3
f 3/1/1 1/3/3 4/4/4
f 3/1/1 4/4/4 5/5/5
f 3/1/1 5/5/5 6/6/6
f 3/1/1 6/6/6 7/7/7
f 3/1/1 7/7/7 8/8/8
f 3/1/1 8/8/8 9/9/9
f 3/1/1 9/9/9 10/10/10
f 3/1/1 10/10/10 11/11/11
f 3/1/1 11/11/11 12/12/12
f 3/1/1 12/12/12 13/13/13
f 3/1/1 13/13/13 14/14/14
f 15/15/15 3/1/1 14/14/14
f 15/15/15 16/16/16 3/1/1
f 16/16/16 17/17/17 3/1/1
f 17/17/17 18/18/18 3/1/1
f 18/18/18 19/19/19 3/1/1
f 19/19/19 20/20/20 3/1/1
f 20/20/20 21/21/21 3/1/1
f 21/21/21 22/22/22 3/1/1
f 22/22/22 23/23/23 3/1/1
f 23/23/23 24/24/24 3/1/1
f 24/24/24 25/25/25 3/1/1
f 25/25/25 2/2/2 3/1/1
f 28/26/26 27/27/27 26/28/28
f 28/26/26 26/28/28 29/29/29
f 28/26/26 29/29/29 30/30/30
f 28/26/26 30/30/30 31/31/31
f 28/26/26 31/31/31 32/32/32
f 28/26/26 32/32/32 33/33/33
f 28/26/26 33/33/33 34/34/34
f 28/26/26 34/34/34 35/35/35
f 28/26/26 35/35/35 36/36/36
f 28/26/26 36/36/36 37/37/37
f 38/38/38 28/26/26 37/37/37
f 38/38/38 39/39/39 28/26/26
f 39/39/39 40/40/40 28/26/26
f 40/40/40 41/41/41 28/26/26
f 41/41/41 42/42/42 28/26/26
f 42/42/42 43/43/43 28/26/26
f 43/43/43 44/44/34 28/26/26
f 44/44/34 45/45/44 28/26/26
f 45/45/44 46/46/45 28/26/26
f 46/46/45 27/27/27 28/26/26
f 49/47/46 48/48/47 47/49/48
f 49/47/46 47/49/48 50/50/49
f 49/47/46 50/50/49 51/51/50
f 49/47/46 51/51/50 52/52/51
f 49/47/46 52/52/51 53/53/52
f 49/47/46 53/53/52 54/54/53
f 49/47/46 54/54/53 55/55/54
f 49/47/46 55/55/54 56/56/55
f 49/47/46 56/56/55 57/57/56
f 49/47/46 57/57/56 58/58/57
f 49/47/46 58/58/57 59/59/58
f 49/47/46 59/59/58 60/60/59
f 61/61/60 49/47/46 60/60/59
f 61/61/60 62/62/61 49/47/46
f 62/62/61 63/63/62 49/47/46
f 63/63/62 64/64/63 49/47/46
f 64/64/63 65/65/64 49/47/46
f 65/65/64 66/66/65 49/47/46
f 66/66/65 67/67/66 49/47/46
f 67/67/66 68/68/67 49/47/46
f 68/68/67 69/69/68 49/47/46
f 69/69/68 70/70/69 49/47/46
f 70/70/69 71/71/70 49/47/46
f 71/71/70 48/48/47 49/47/46
f 74/72/71 73/73/72 72/74/73
f 74/72/71 72/74/73 75/75/74
f 74/72/71 75/75/74 76/76/75
f 74/72/71 76/76/75 77/77/76
f 74/72/71 77/77/76 78/78/77
f 74/72/71 78/78/77 79/79/78
f 74/72/71 79/79/78 80/80/79
f 74/72/71 80/80/79 81/81/80
f 74/72/71 81/81/80 82/82/81
f 74/72/71 82/82/81 83/83/82
f 74/72/71 83/83/82 84/84/83
f 74/72/71 84/84/83 85/85/84
f 74/72/71 85/85/84 86/86/85
f 74/72/71 86/86/85 87/87/86
f 74/72/71 87/87/86 88/88/87
f 74/72/71 88/88/87 89/89/88
f 90/90/89 74/72/71 89/89/88
f 90/90/89 91/91/90 74/72/71
f 91/91/90 92/92/91 74/72/71
f 92/92/91 93/93/92 74/72/71
f 93/93/92 94/94/93 74/72/71
f 94/94/93 95/95/94 74/72/71
f 95/95/94 96/96/95 74/72/71
f 96/96/95 97/97/80 74/72/71
f 97/97/80 98/98/96 74/72/71
f 98/98/96 99/99/97 74/72/71
f 99/99/97 100/100/98 74/72/71
f 100/100/98 101/101/99 74/72/71
f 101/101/99 102/102/100 74/72/71
f 102/102/100 103/103/101 74/72/71
f 103/103/101 104/104/102 74/72/71
f 104/104/102 73/73/72 74/72/71
f 107/105/103 106/106/104 105/107/105
f 107/105/103 105/107/105 108/108/106
f 107/105/103 108/108/106 109/109/107
f 107/105/103 109/109/107 110/110/108
f 107/105/103 110/110/108 111/111/109
f 107/105/103 111/111/109 112/112/110
f 107/105/103 112/112/110 113/113/111
f 107/105/103 113/113/111 114/114/112
f 107/105/103 114/114/112 115/115/113
f 107/105/103 115/115/113 116/116/114
f 117/117/115 107/105/103 116/116/114
f 117/117/115 118/118/116 107/105/103
f 118/118/116 119/119/117 107/105/103
f 119/119/117 120/120/118 107/105/103
f 120/120/118 121/121/119 107/105/103
f 121/121/119 122/122/120 107/105/103
f 122/122/120 123/123/121 107/105/103
f 123/123/121 124/124/122 107/105/103
f 124/124/122 125/125/123 107/105/103
f 125/125/123 106/106/104 107/105/103
f 128/126/124 126/127/125 127/128/126
f 127/128/126 126/127/125 129/129/127
f 127/128/126 129/129/127 130/130/128
f 130/130/128 129/129/127 131/131/129
f 130/130/128 131/131/129 132/132/130
f 132/132/130 131/131/129 133/133/131
f 132/132/130 133/133/131 134/134/132
f 134/134/132 133/133/131 135/135/133
f 134/134/132 135/135/133 136/136/134
f 136/136/134 135/135/133 137/137/135
f 136/136/134 137/137/135 138/138/136
f 138/138/136 137/137/135 139/139/137
f 140/140/138 138/138/136 139/139/137
f 141/141/139 140/140/138 139/139/137
f 142/142/140 141/141/139 139/139/137
f 143/143/141 142/142/140 139/139/137
f 128/126/124 127/128/126 144/144/142
f 128/126/124 144/144/142 145/145/143
f 128/126/124 145/145/143 146/146/144
f 146/146/144 145/145/143 147/147/145
f 148/148/146 146/146/144 147/147/145
f 149/149/147 148/148/146 147/147/145
