# Blender 4.3.0
# www.blender.org
o steering_seam
v -0.762833 3.749774 6.658426
v -1.362223 3.739655 6.557054
v -0.772823 3.351698 6.654847
v -0.173433 3.344282 6.698904
v -0.163443 3.748203 6.721588
v -0.143464 3.734942 6.746539
v -0.143464 3.336866 6.742959
v -1.362223 3.360684 6.547628
v -1.841735 3.736951 6.411624
v -1.841735 3.338875 6.408045
v -2.281288 3.355278 6.256771
v -2.281288 3.734248 6.266196
v -2.670891 3.738960 6.076710
v -2.670891 3.359990 6.067286
v -3.020535 3.724566 5.893070
v -3.020535 3.364702 5.877800
v -3.689854 3.394803 5.429824
v -3.689854 3.735562 5.450938
v -4.149386 3.410072 5.069959
v -4.159376 3.725881 5.077813
v -4.199336 3.725881 5.077813
v -4.179356 3.410072 5.069959
v -2.321247 3.201723 -5.104227
v -1.731847 3.437839 -5.322720
v -1.671908 3.198452 -5.353953
v -2.301267 3.687911 -5.085816
v -2.810749 3.685335 -4.855198
v -2.830729 3.199147 -4.873610
v -3.320230 3.700295 -4.567262
v -3.340210 3.195001 -4.579828
v -3.839702 3.694579 -4.210319
v -3.849692 3.204683 -4.206703
v -4.329203 3.696844 -3.793138
v -4.329203 3.197396 -3.786598
v -4.748776 3.697539 -3.312795
v -4.758766 3.198091 -3.306255
v -5.108410 3.694526 -2.810423
v -5.118400 3.204630 -2.806807
v -5.408105 3.701066 -2.310976
v -5.428084 3.201617 -2.304436
v -5.667840 3.703898 -1.789499
v -5.692815 3.204449 -1.782959
v -5.832673 3.202440 -1.448045
v -5.837667 3.723131 -1.419296
v -5.897607 3.201436 -1.280588
v -5.912591 3.722127 -1.251839
v -5.907597 3.688319 -0.781833
v -5.927576 3.175609 -0.750343
v -5.797709 3.635843 -0.577736
v -5.837667 3.170897 -0.560858
v -5.597912 3.584937 -0.436800
v -5.627882 3.129544 -0.422845
v -5.338176 3.523912 -0.397238
v -5.208309 3.039862 -0.374514
v -5.308207 3.526050 -0.356104
v -5.168349 3.070657 -0.342148
v -1.661918 3.684641 -5.335542
v -1.162426 3.391645 -5.371268
v -1.112477 3.642155 -5.406119
v -0.792803 3.568436 -5.237309
v -0.822772 3.333324 -5.186276
v -0.762833 3.509677 -4.780566
v -0.782813 3.270857 -4.707504
v -0.752843 3.052019 -5.183791
v -0.732864 3.003379 -4.625674
v -1.042548 3.092805 -5.426100
v -4.299234 3.394108 4.949480
v -4.189346 3.392537 5.012642
v -4.319213 3.729022 4.951489
v -4.409122 3.415222 4.608722
v -4.429101 3.750137 4.610731
v -4.449081 3.442181 4.287068
v -4.479051 3.752145 4.275816
v -4.538990 3.429359 4.040266
v -4.558969 3.745168 4.048120
v -5.068451 3.721093 3.491355
v -5.058461 3.386179 3.489346
v -5.358156 3.699722 3.080018
v -5.358156 3.364808 3.078009
v -5.712795 3.713859 2.511562
v -5.697810 3.353994 2.496293
v -5.877627 3.320933 2.046745
v -5.912591 3.713164 2.031219
v -5.972530 3.312822 1.610458
v -6.037464 3.708195 1.468608
v -5.802703 3.344056 1.371072
v -5.912591 3.714478 1.215961
v -5.672835 3.742569 1.102899
v -5.557952 3.353042 1.263854
v -5.418095 3.769091 1.052998
v -5.298217 3.385408 1.233058
v -5.378135 3.753693 1.036815
v -5.268247 3.398669 1.208108
v -4.219315 3.733296 5.033757
v -4.199336 3.725881 5.077813
v -4.179356 3.410072 5.069959
v 2.413934 3.201722 -5.104227
v 1.754605 3.198452 -5.353953
v 1.824534 3.437838 -5.322720
v 2.393954 3.687910 -5.085816
v 2.903435 3.685334 -4.855198
v 2.913425 3.199147 -4.873610
v 3.412917 3.700294 -4.567262
v 3.422907 3.195001 -4.579828
v 3.932388 3.694578 -4.210319
v 3.932388 3.204682 -4.206703
v 4.411900 3.696844 -3.793138
v 4.411900 3.197395 -3.786598
v 4.841463 3.697538 -3.312795
v 4.841463 3.198090 -3.306255
v 5.181118 3.694525 -2.810423
v 5.201097 3.204629 -2.806807
v 5.480813 3.701065 -2.310975
v 5.520772 3.201616 -2.304435
v 5.760528 3.703897 -1.789499
v 5.780508 3.204448 -1.782959
v 5.920365 3.202439 -1.448044
v 5.920365 3.723131 -1.419295
v 5.980304 3.201435 -1.280587
v 6.000284 3.722126 -1.251839
v 6.000284 3.688318 -0.781833
v 6.020264 3.175608 -0.750343
v 5.880406 3.635842 -0.577736
v 5.920365 3.170896 -0.560858
v 5.680609 3.584936 -0.436800
v 5.720568 3.129544 -0.422845
v 5.420874 3.523911 -0.397237
v 5.281015 3.039861 -0.374514
v 5.380914 3.526049 -0.356104
v 5.241056 3.070656 -0.342148
v 1.744615 3.684640 -5.335542
v 1.255113 3.391645 -5.371268
v 1.205164 3.642155 -5.406119
v 0.895479 3.568436 -5.237309
v 0.915459 3.333324 -5.186276
v 0.865510 3.509677 -4.780566
v 0.885489 3.270857 -4.707504
v 0.845530 3.052019 -5.183791
v 0.835540 3.003379 -4.625674
v 1.135235 3.092805 -5.426100
v 1.454910 3.360684 6.547628
v 1.454910 3.739655 6.557054
v 0.885489 3.351698 6.654847
v 1.924432 3.736951 6.411624
v 1.924432 3.338875 6.408045
v 2.363984 3.355277 6.256771
v 2.363984 3.734248 6.266196
v 2.753588 3.738959 6.076710
v 2.753588 3.359989 6.067286
v 3.113222 3.724566 5.893070
v 3.113222 3.364702 5.877800
v 3.772551 3.394802 5.429824
v 3.782541 3.735562 5.450938
v 4.232083 3.410071 5.069959
v 4.252063 3.725880 5.077813
v 4.272043 3.410071 5.069959
v 4.292022 3.725880 5.077813
v 0.875499 3.749774 6.658426
v 0.276109 3.344282 6.698904
v 0.266119 3.748203 6.721588
v 0.246140 3.734942 6.746539
v 0.246140 3.336866 6.742959
v 4.302012 3.733296 5.033757
v 4.282032 3.392537 5.012642
v 4.411900 3.729022 4.951489
v 4.292022 3.725880 5.077813
v 4.272043 3.410071 5.069959
v 4.391921 3.394107 4.949480
v 4.501809 3.415222 4.608722
v 4.511798 3.750136 4.610731
v 4.531778 3.442181 4.287068
v 4.561748 3.752144 4.275816
v 4.621686 3.429358 4.040266
v 4.641666 3.745167 4.048120
v 5.141158 3.721092 3.491355
v 5.141158 3.386178 3.489346
v 5.440853 3.699721 3.080018
v 5.440853 3.364807 3.078009
v 5.800487 3.713858 2.511562
v 5.780508 3.353993 2.496293
v 5.960325 3.320932 2.046746
v 6.000284 3.713163 2.031219
v 6.060223 3.312821 1.610458
v 6.120162 3.708194 1.468609
v 5.880406 3.344055 1.371072
v 6.000284 3.714477 1.215962
v 5.760528 3.742569 1.102899
v 5.640650 3.353041 1.263854
v 5.500792 3.769090 1.052998
v 5.380914 3.385408 1.233059
v 5.460833 3.753692 1.036815
v 5.340955 3.398668 1.208108
vn 0.1228 0.0094 -0.9924
vn 0.2262 0.0199 -0.9739
vn 0.1252 0.0148 -0.9920
vn 0.1578 0.0305 -0.9870
vn 0.1348 0.0523 -0.9895
vn 0.7892 0.0143 -0.6139
vn 0.8272 0.0051 -0.5619
vn 0.2292 0.0211 -0.9732
vn 0.3012 0.0148 -0.9534
vn 0.3017 0.0086 -0.9534
vn 0.3760 0.0194 -0.9264
vn 0.3742 0.0231 -0.9271
vn 0.4501 0.0222 -0.8927
vn 0.4529 0.0255 -0.8912
vn 0.5265 0.0360 -0.8494
vn 0.5309 0.0359 -0.8467
vn 0.5801 0.0477 -0.8132
vn 0.5788 0.0493 -0.8140
vn 0.5967 0.0420 -0.8013
vn 0.5893 0.0408 -0.8069
vn -0.0000 0.0249 -0.9997
vn 0.2706 -0.0426 0.9617
vn 0.3880 -0.0513 0.9202
vn 0.3885 -0.0495 0.9201
vn 0.2004 -0.0845 0.9761
vn 0.4521 -0.0523 0.8905
vn 0.4556 -0.0495 0.8888
vn 0.5324 -0.0446 0.8453
vn 0.5400 -0.0342 0.8410
vn 0.6146 -0.0149 0.7887
vn 0.6230 -0.0031 0.7822
vn 0.7054 0.0056 0.7088
vn 0.7063 0.0061 0.7079
vn 0.7810 -0.0042 0.6246
vn 0.7795 -0.0081 0.6263
vn 0.8346 -0.0121 0.5508
vn 0.8334 -0.0160 0.5525
vn 0.8747 -0.0256 0.4839
vn 0.8732 -0.0306 0.4863
vn 0.9013 -0.0303 0.4321
vn 0.9038 -0.0396 0.4262
vn 0.9212 -0.0231 0.3883
vn 0.9114 -0.0093 0.4114
vn 0.9925 -0.0059 0.1224
vn 0.9939 0.0226 0.1081
vn 0.9936 -0.0209 -0.1111
vn 0.9938 -0.0513 -0.0986
vn 0.7575 -0.0756 -0.6484
vn 0.7279 -0.0811 -0.6809
vn 0.3742 -0.0591 -0.9255
vn 0.2788 -0.0374 -0.9596
vn 0.1989 -0.0056 -0.9800
vn 0.1789 0.0064 -0.9838
vn 0.7757 0.1823 -0.6043
vn 0.5531 0.1447 -0.8205
vn 0.2241 0.0005 0.9746
vn -0.0900 -0.0500 0.9947
vn -0.0950 0.1557 0.9832
vn -0.7704 0.2191 0.5987
vn -0.8774 -0.0604 0.4760
vn -0.9882 0.1210 0.0934
vn -0.9935 -0.1021 0.0497
vn -0.9239 -0.2118 0.3188
vn -0.9839 -0.1777 0.0197
vn -0.2740 -0.2288 0.9341
vn 0.8926 0.0687 -0.4455
vn 0.6858 0.0603 -0.7253
vn 0.8723 0.0549 -0.4859
vn 0.9735 0.0594 -0.2207
vn 0.9730 0.0664 -0.2209
vn 0.9723 0.0765 -0.2209
vn 0.9691 0.0826 -0.2323
vn 0.7926 0.0597 -0.6069
vn 0.7977 0.0654 -0.5995
vn 0.7651 0.0321 -0.6431
vn 0.7639 0.0229 -0.6450
vn 0.8327 0.0072 -0.5536
vn 0.8352 0.0138 -0.5498
vn 0.8894 0.0503 -0.4544
vn 0.8920 0.0562 -0.4486
vn 0.9504 0.0703 -0.3028
vn 0.9517 0.0741 -0.2979
vn 0.9867 0.1626 0.0051
vn 0.9689 0.2300 0.0914
vn 0.5957 0.4147 0.6879
vn 0.5877 0.4546 0.6693
vn 0.2413 0.4319 0.8690
vn 0.2082 0.4404 0.8733
vn 0.1458 0.4318 0.8901
vn 0.0918 0.4471 0.8898
vn 0.4801 0.4914 0.7267
vn 0.4151 0.4963 0.7624
vn 0.7173 0.1058 -0.6887
vn 0.9216 0.1009 -0.3747
vn 0.9793 0.0667 -0.1911
vn -0.2716 -0.0426 0.9615
vn -0.1969 -0.0780 0.9773
vn -0.3896 -0.0463 0.9198
vn -0.3876 -0.0523 0.9203
vn -0.4547 -0.0449 0.8895
vn -0.4589 -0.0402 0.8876
vn -0.5330 -0.0340 0.8454
vn -0.5397 -0.0236 0.8415
vn -0.6190 -0.0024 0.7854
vn -0.6251 0.0067 0.7806
vn -0.7030 0.0084 0.7112
vn -0.7038 0.0093 0.7103
vn -0.7872 0.0081 0.6167
vn -0.7838 0.0004 0.6210
vn -0.8375 -0.0217 0.5459
vn -0.8312 -0.0367 0.5547
vn -0.8641 -0.0557 0.5002
vn -0.8659 -0.0545 0.4973
vn -0.9011 -0.0375 0.4320
vn -0.9060 -0.0307 0.4221
vn -0.9271 -0.0246 0.3741
vn -0.9154 -0.0129 0.4024
vn -0.9916 -0.0046 0.1295
vn -0.9918 0.0312 0.1235
vn -0.9936 -0.0180 -0.1115
vn -0.9938 -0.0510 -0.0992
vn -0.7449 -0.0760 -0.6628
vn -0.7239 -0.0856 -0.6846
vn -0.3727 -0.0625 -0.9258
vn -0.2791 -0.0419 -0.9594
vn -0.1871 -0.0064 -0.9823
vn -0.1731 0.0068 -0.9849
vn -0.6933 0.1690 -0.7005
vn -0.5531 0.1447 -0.8205
vn -0.2197 -0.0064 0.9755
vn 0.0913 -0.0520 0.9945
vn 0.0963 0.1560 0.9831
vn 0.7757 0.1919 0.6012
vn 0.8826 -0.0764 0.4639
vn 0.9915 0.1048 0.0765
vn 0.9938 -0.1071 0.0299
vn 0.9274 -0.2139 0.3070
vn 0.9831 -0.1831 0.0016
vn 0.2768 -0.2292 0.9332
vn -0.2353 0.0210 -0.9717
vn -0.2323 0.0198 -0.9725
vn -0.3046 0.0149 -0.9524
vn -0.1235 0.0093 -0.9923
vn -0.3050 0.0086 -0.9523
vn -0.3760 0.0194 -0.9264
vn -0.3742 0.0231 -0.9271
vn -0.4450 0.0223 -0.8952
vn -0.4481 0.0256 -0.8936
vn -0.5254 0.0386 -0.8500
vn -0.5308 0.0361 -0.8467
vn -0.5803 0.0620 -0.8121
vn -0.5789 0.0663 -0.8127
vn -0.5906 0.0600 -0.8047
vn -0.5875 0.0572 -0.8072
vn -0.1265 0.0149 -0.9919
vn -0.1556 0.0350 -0.9872
vn -0.1327 0.0523 -0.9898
vn -0.7892 0.0143 -0.6140
vn -0.8272 0.0051 -0.5619
vn -0.9757 0.0698 -0.2075
vn -0.7182 0.0849 -0.6907
vn -0.6797 0.0564 -0.7313
vn -0.8911 0.0552 -0.4505
vn -0.9793 0.0667 -0.1911
vn -0.8723 0.0550 -0.4859
vn -0.9788 0.0379 -0.2011
vn -0.9784 0.0444 -0.2017
vn -0.9747 0.0678 -0.2131
vn -0.9691 0.0826 -0.2323
vn -0.7965 0.0541 -0.6022
vn -0.8026 0.0646 -0.5930
vn -0.7627 0.0125 -0.6466
vn -0.7627 0.0039 -0.6468
vn -0.8294 0.0034 -0.5586
vn -0.8338 0.0160 -0.5518
vn -0.8884 0.0606 -0.4550
vn -0.8909 0.0685 -0.4489
vn -0.9479 0.0821 -0.3077
vn -0.9512 0.0803 -0.2980
vn -0.9867 0.1616 0.0169
vn -0.9682 0.2296 0.0996
vn -0.5905 0.4181 0.6903
vn -0.5888 0.4668 0.6598
vn -0.2401 0.4356 0.8675
vn -0.2090 0.4425 0.8720
vn -0.1440 0.4321 0.8903
vn -0.0923 0.4485 0.8890
vn -0.4747 0.4919 0.7298
vn -0.3339 0.4987 0.7999
vt 0.515137 0.877930
vt 0.572266 0.914062
vt 0.514648 0.915039
vt 0.458984 0.877441
vt 0.458984 0.914551
vt 0.456299 0.914551
vt 0.456299 0.877441
vt 0.572266 0.876953
vt 0.618164 0.914062
vt 0.618164 0.876953
vt 0.662598 0.876953
vt 0.662598 0.914062
vt 0.702637 0.914062
vt 0.702637 0.876953
vt 0.740234 0.914062
vt 0.740234 0.876953
vt 0.815918 0.876953
vt 0.815918 0.914062
vt 0.871094 0.876953
vt 0.871094 0.914062
vt 0.874512 0.914062
vt 0.874512 0.876953
vt 0.654785 0.892578
vt 0.596680 0.914062
vt 0.596680 0.876953
vt 0.654785 0.876953
vt 0.547363 0.914062
vt 0.547363 0.876953
vt 0.496582 0.914062
vt 0.496582 0.876953
vt 0.441162 0.914062
vt 0.441162 0.876953
vt 0.384766 0.914062
vt 0.384766 0.876953
vt 0.328613 0.914062
vt 0.328613 0.876953
vt 0.275146 0.914062
vt 0.275146 0.876953
vt 0.223877 0.914062
vt 0.223877 0.876953
vt 0.172363 0.914062
vt 0.172363 0.876953
vt 0.139038 0.876953
vt 0.139038 0.914062
vt 0.122742 0.876953
vt 0.122742 0.914062
vt 0.078979 0.914062
vt 0.078979 0.876953
vt 0.059784 0.914062
vt 0.059784 0.876953
vt 0.037415 0.914062
vt 0.037415 0.876953
vt 0.007080 0.914062
vt 0.007080 0.876953
vt 0.002573 0.914062
vt 0.002575 0.876953
vt 0.654785 0.914062
vt 0.706543 0.892578
vt 0.706543 0.914062
vt 0.739258 0.914062
vt 0.739258 0.892578
vt 0.782715 0.914062
vt 0.782715 0.892578
vt 0.739258 0.876953
vt 0.782715 0.876953
vt 0.706543 0.876953
vt 0.020889 0.914551
vt 0.007919 0.876953
vt 0.020889 0.876953
vt 0.056854 0.876953
vt 0.056854 0.914551
vt 0.090271 0.876953
vt 0.090271 0.914551
vt 0.116028 0.876953
vt 0.116028 0.914551
vt 0.190918 0.914551
vt 0.190918 0.876953
vt 0.241699 0.914551
vt 0.241699 0.876953
vt 0.310059 0.914551
vt 0.310059 0.876953
vt 0.360352 0.876953
vt 0.360352 0.914551
vt 0.412598 0.876953
vt 0.412598 0.914551
vt 0.440674 0.876953
vt 0.440674 0.914551
vt 0.466309 0.914551
vt 0.466309 0.876953
vt 0.490234 0.914551
vt 0.490234 0.876953
vt 0.494629 0.914551
vt 0.494629 0.876953
vt 0.007919 0.914551
vt 0.002573 0.914551
vt 0.002573 0.876953
vt 0.130371 0.895020
vt 0.130371 0.876953
vt 0.188110 0.876953
vt 0.188110 0.914062
vt 0.237427 0.914062
vt 0.237427 0.876953
vt 0.288330 0.914062
vt 0.288330 0.876953
vt 0.343994 0.914062
vt 0.343994 0.876953
vt 0.400146 0.914062
vt 0.400146 0.876953
vt 0.456543 0.914062
vt 0.456543 0.876953
vt 0.509766 0.914062
vt 0.509766 0.876953
vt 0.561035 0.914062
vt 0.561035 0.876953
vt 0.612793 0.914062
vt 0.612793 0.876953
vt 0.645996 0.876953
vt 0.645996 0.914062
vt 0.706055 0.914062
vt 0.706055 0.876953
vt 0.725586 0.914062
vt 0.725586 0.876953
vt 0.748047 0.914062
vt 0.748047 0.876953
vt 0.778320 0.914062
vt 0.778320 0.876953
vt 0.130371 0.914062
vt 0.078430 0.895020
vt 0.078430 0.914062
vt 0.045837 0.914062
vt 0.045837 0.895020
vt 0.002573 0.895020
vt 0.045837 0.876953
vt 0.078430 0.876953
vt 0.305664 0.876953
vt 0.305664 0.914062
vt 0.259277 0.914062
vt 0.360352 0.877930
vt 0.259277 0.876953
vt 0.215454 0.876953
vt 0.215454 0.914062
vt 0.175293 0.914062
vt 0.175293 0.876953
vt 0.137451 0.914062
vt 0.137451 0.876953
vt 0.062073 0.876953
vt 0.062073 0.914062
vt 0.006763 0.876953
vt 0.006763 0.914062
vt 0.360596 0.915039
vt 0.417725 0.877441
vt 0.417480 0.914551
vt 0.419922 0.914551
vt 0.419922 0.877441
vt 0.493652 0.914551
vt 0.488525 0.914551
vt 0.488525 0.876953
vt 0.475586 0.914551
vt 0.493652 0.876953
vt 0.475586 0.876953
vt 0.439697 0.876953
vt 0.439697 0.914551
vt 0.406494 0.876953
vt 0.406494 0.914551
vt 0.380615 0.876953
vt 0.380615 0.914551
vt 0.305908 0.914551
vt 0.305908 0.876953
vt 0.255127 0.914551
vt 0.255127 0.876953
vt 0.186890 0.914551
vt 0.186890 0.876953
vt 0.136719 0.876953
vt 0.136719 0.914551
vt 0.084656 0.876953
vt 0.084656 0.914551
vt 0.056519 0.876953
vt 0.056519 0.914551
vt 0.030884 0.914551
vt 0.030884 0.876953
vt 0.006813 0.914551
vt 0.006813 0.876953
vt 0.002575 0.914551
s 1
f 3/1/1 2/2/2 1/3/3
f 1/3/3 4/4/4 3/1/1
f 1/3/3 5/5/5 4/4/4
f 6/6/6 4/4/4 5/5/5
f 6/6/6 7/7/7 4/4/4
f 3/1/1 8/8/8 2/2/2
f 8/8/8 9/9/9 2/2/2
f 8/8/8 10/10/10 9/9/9
f 9/9/9 10/10/10 11/11/11
f 9/9/9 11/11/11 12/12/12
f 13/13/13 12/12/12 11/11/11
f 13/13/13 11/11/11 14/14/14
f 15/15/15 13/13/13 14/14/14
f 15/15/15 14/14/14 16/16/16
f 15/15/15 16/16/16 17/17/17
f 15/15/15 17/17/17 18/18/18
f 18/18/18 17/17/17 19/19/19
f 18/18/18 19/19/19 20/20/20
f 19/19/19 21/21/21 20/20/20
f 19/19/19 22/22/21 21/21/21
f 24/23/22 26/24/23 23/25/24
f 25/26/25 24/23/22 23/25/24
f 23/25/24 26/24/23 27/27/26
f 23/25/24 27/27/26 28/28/27
f 28/28/27 27/27/26 29/29/28
f 28/28/27 29/29/28 30/30/29
f 30/30/29 29/29/28 31/31/30
f 30/30/29 31/31/30 32/32/31
f 32/32/31 31/31/30 33/33/32
f 32/32/31 33/33/32 34/34/33
f 34/34/33 33/33/32 35/35/34
f 34/34/33 35/35/34 36/36/35
f 36/36/35 35/35/34 37/37/36
f 36/36/35 37/37/36 38/38/37
f 38/38/37 37/37/36 39/39/38
f 38/38/37 39/39/38 40/40/39
f 40/40/39 39/39/38 41/41/40
f 40/40/39 41/41/40 42/42/41
f 43/43/42 42/42/41 41/41/40
f 43/43/42 41/41/40 44/44/43
f 44/44/43 45/45/44 43/43/42
f 44/44/43 46/46/45 45/45/44
f 45/45/44 46/46/45 47/47/46
f 45/45/44 47/47/46 48/48/47
f 48/48/47 47/47/46 49/49/48
f 48/48/47 49/49/48 50/50/49
f 51/51/50 50/50/49 49/49/48
f 51/51/50 52/52/51 50/50/49
f 52/52/51 51/51/50 53/53/52
f 52/52/51 53/53/52 54/54/53
f 54/54/53 53/53/52 55/55/54
f 54/54/53 55/55/54 56/56/55
f 24/23/22 57/57/56 26/24/23
f 58/58/57 57/57/56 24/23/22
f 58/58/57 59/59/58 57/57/56
f 58/58/57 60/60/59 59/59/58
f 58/58/57 61/61/60 60/60/59
f 62/62/61 60/60/59 61/61/60
f 62/62/61 61/61/60 63/63/62
f 63/63/62 61/61/60 64/64/63
f 63/63/62 64/64/63 65/65/64
f 61/61/60 66/66/65 64/64/63
f 58/58/57 25/26/25 66/66/65
f 61/61/60 58/58/57 66/66/65
f 58/58/57 24/23/22 25/26/25
f 69/67/66 68/68/67 67/69/68
f 70/70/69 69/67/66 67/69/68
f 70/70/69 71/71/70 69/67/66
f 72/72/71 71/71/70 70/70/69
f 72/72/71 73/73/72 71/71/70
f 74/74/73 73/73/72 72/72/71
f 74/74/73 75/75/74 73/73/72
f 76/76/75 75/75/74 74/74/73
f 76/76/75 74/74/73 77/77/76
f 78/78/77 76/76/75 77/77/76
f 78/78/77 77/77/76 79/79/78
f 79/79/78 80/80/79 78/78/77
f 79/79/78 81/81/80 80/80/79
f 80/80/79 81/81/80 82/82/81
f 80/80/79 82/82/81 83/83/82
f 84/84/83 83/83/82 82/82/81
f 84/84/83 85/85/84 83/83/82
f 85/85/84 84/84/83 86/86/85
f 85/85/84 86/86/85 87/87/86
f 86/86/85 88/88/87 87/87/86
f 86/86/85 89/89/88 88/88/87
f 89/89/88 90/90/89 88/88/87
f 89/89/88 91/91/90 90/90/89
f 91/91/90 92/92/91 90/90/89
f 91/91/90 93/93/92 92/92/91
f 69/67/66 94/94/93 68/68/67
f 68/68/67 94/94/93 95/95/94
f 68/68/67 95/95/94 96/96/95
f 99/97/96 98/98/97 97/99/98
f 100/100/99 99/97/96 97/99/98
f 101/101/100 100/100/99 97/99/98
f 101/101/100 97/99/98 102/102/101
f 103/103/102 101/101/100 102/102/101
f 103/103/102 102/102/101 104/104/103
f 105/105/104 103/103/102 104/104/103
f 105/105/104 104/104/103 106/106/105
f 107/107/106 105/105/104 106/106/105
f 107/107/106 106/106/105 108/108/107
f 109/109/108 107/107/106 108/108/107
f 109/109/108 108/108/107 110/110/109
f 111/111/110 109/109/108 110/110/109
f 111/111/110 110/110/109 112/112/111
f 113/113/112 111/111/110 112/112/111
f 113/113/112 112/112/111 114/114/113
f 115/115/114 113/113/112 114/114/113
f 115/115/114 114/114/113 116/116/115
f 115/115/114 116/116/115 117/117/116
f 115/115/114 117/117/116 118/118/117
f 118/118/117 117/117/116 119/11/118
f 118/118/117 119/11/118 120/12/119
f 119/11/118 121/119/120 120/12/119
f 119/11/118 122/120/121 121/119/120
f 122/120/121 123/121/122 121/119/120
f 122/120/121 124/122/123 123/121/122
f 124/122/123 125/123/124 123/121/122
f 124/122/123 126/124/125 125/123/124
f 127/125/126 125/123/124 126/124/125
f 127/125/126 126/124/125 128/126/127
f 129/62/128 127/125/126 128/126/127
f 129/62/128 128/126/127 130/65/129
f 131/127/130 99/97/96 100/100/99
f 132/128/131 99/97/96 131/127/130
f 132/128/131 131/127/130 133/129/132
f 132/128/131 133/129/132 134/130/133
f 132/128/131 134/130/133 135/131/134
f 136/55/135 135/131/134 134/130/133
f 136/55/135 137/132/136 135/131/134
f 138/133/137 135/131/134 137/132/136
f 138/133/137 137/132/136 139/56/138
f 135/131/134 138/133/137 140/134/139
f 135/131/134 140/134/139 132/128/131
f 132/128/131 140/134/139 98/98/97
f 132/128/131 98/98/97 99/97/96
f 141/135/140 142/136/141 144/137/142
f 143/138/143 142/136/141 141/135/140
f 141/135/140 144/137/142 145/139/144
f 146/140/145 145/139/144 144/137/142
f 146/140/145 144/137/142 147/141/146
f 148/142/147 146/140/145 147/141/146
f 148/142/147 149/143/148 146/140/145
f 150/144/149 149/143/148 148/142/147
f 150/144/149 151/145/150 149/143/148
f 152/146/151 151/145/150 150/144/149
f 152/146/151 150/144/149 153/147/152
f 154/148/153 152/146/151 153/147/152
f 154/148/153 153/147/152 155/149/154
f 156/56/21 154/148/153 155/149/154
f 156/56/21 155/149/154 157/55/21
f 143/138/143 158/150/155 142/136/141
f 159/151/156 158/150/155 143/138/143
f 159/151/156 160/152/157 158/150/155
f 159/151/156 161/153/158 160/152/157
f 159/151/156 162/154/159 161/153/158
f 166/155/160 163/156/161 164/157/162
f 165/158/163 164/157/162 163/156/161
f 166/155/160 164/157/162 167/159/164
f 165/158/163 168/160/165 164/157/162
f 169/161/166 168/160/165 165/158/163
f 169/161/166 165/158/163 170/162/167
f 171/163/168 169/161/166 170/162/167
f 171/163/168 170/162/167 172/164/169
f 173/165/170 171/163/168 172/164/169
f 173/165/170 172/164/169 174/166/171
f 173/165/170 174/166/171 175/167/172
f 173/165/170 175/167/172 176/168/173
f 176/168/173 175/167/172 177/169/174
f 176/168/173 177/169/174 178/170/175
f 179/171/176 178/170/175 177/169/174
f 179/171/176 180/172/177 178/170/175
f 179/171/176 181/173/178 180/172/177
f 179/171/176 182/174/179 181/173/178
f 183/175/180 181/173/178 182/174/179
f 183/175/180 182/174/179 184/176/181
f 184/176/181 185/177/182 183/175/180
f 184/176/181 186/178/183 185/177/182
f 187/179/184 185/177/182 186/178/183
f 187/179/184 188/180/185 185/177/182
f 189/181/186 188/180/185 187/179/184
f 189/181/186 190/182/187 188/180/185
f 190/182/187 189/181/186 191/183/188
f 190/182/187 191/183/188 192/96/189
