# Blender 4.0.2
# www.blender.org
o mirror_left
v 35.134602 22.557621 30.312262
v 36.287857 22.420174 29.352579
v 35.712082 22.501545 29.226439
v 36.619381 22.369102 29.661192
v 36.780014 22.337500 30.035273
v 36.828129 22.303829 31.080374
v 35.127903 22.517515 31.905615
v 33.051567 22.844740 30.104826
v 36.838799 22.317097 30.515425
v 35.138947 22.580372 29.169363
v 32.908176 22.823906 32.045696
v 35.122532 22.482210 33.074280
v 32.387360 22.866310 33.147144
v 31.588017 22.983627 33.143188
v 30.609552 23.154819 32.191036
v 30.787539 23.156408 29.879408
v 33.597836 22.694658 33.124020
v 30.985521 23.076513 33.076534
v 30.552563 23.144936 32.953220
v 30.288422 23.188322 32.770531
v 30.113222 23.218847 32.535698
v 30.043631 23.235687 32.213135
v 30.023819 23.245827 31.887186
v 30.147400 23.237867 30.565958
v 30.264515 23.232967 29.497759
v 30.372339 23.221699 29.261095
v 30.555609 23.198830 29.144903
v 30.846300 23.160789 29.107130
v 33.491993 22.804016 29.105963
v 35.675007 22.409418 33.005508
v 36.214241 22.341764 32.813049
v 36.521297 22.307587 32.530087
v 36.704063 22.292849 32.144650
v 36.797298 22.293158 31.649740
vn -0.1347 -0.9907 -0.0200
vn -0.1357 -0.9905 -0.0227
vn -0.1358 -0.9905 -0.0227
vn -0.1350 -0.9906 -0.0206
vn -0.1343 -0.9907 -0.0200
vn -0.1367 -0.9903 -0.0252
vn -0.1367 -0.9903 -0.0256
vn -0.1373 -0.9901 -0.0277
vn -0.1369 -0.9903 -0.0258
vn -0.1396 -0.9899 -0.0243
vn -0.1342 -0.9908 -0.0196
vn -0.1395 -0.9898 -0.0294
vn -0.1366 -0.9902 -0.0304
vn -0.1477 -0.9885 -0.0338
vn -0.1435 -0.9892 -0.0298
vn -0.1466 -0.9888 -0.0273
vn -0.1447 -0.9893 -0.0188
vn -0.1367 -0.9905 -0.0137
vn -0.1481 -0.9887 -0.0239
vn -0.1447 -0.9892 -0.0230
vn -0.1426 -0.9895 -0.0216
vn -0.1423 -0.9896 -0.0216
vn -0.1443 -0.9894 -0.0150
vn -0.1339 -0.9910 -0.0073
vn -0.1357 -0.9907 -0.0128
vn -0.1338 -0.9909 -0.0148
vn -0.1325 -0.9911 -0.0154
vn -0.1333 -0.9910 -0.0161
vn -0.1338 -0.9908 -0.0186
vn -0.1347 -0.9904 -0.0303
vn -0.1359 -0.9903 -0.0291
vn -0.1368 -0.9902 -0.0277
vn -0.1371 -0.9902 -0.0267
vn -0.1371 -0.9902 -0.0262
vt 0.082031 0.230469
vt 0.031250 0.273438
vt 0.250000 0.371094
vt 0.164062 0.210938
vt 0.250000 0.203125
vt 0.007812 0.328125
vt 0.000000 0.398438
vt 0.250000 0.605469
vt 0.003906 0.484375
vt 0.578125 0.625000
vt 0.554688 0.339844
vt 0.476562 0.781250
vt 0.253906 0.773438
vt 0.769531 0.785156
vt 0.652344 0.785156
vt 0.859375 0.773438
vt 0.914062 0.644531
vt 0.886719 0.304688
vt 0.921875 0.757812
vt 0.960938 0.730469
vt 0.988281 0.695312
vt 0.996094 0.648438
vt 1.000000 0.601562
vt 0.980469 0.406250
vt 0.964844 0.250000
vt 0.949219 0.214844
vt 0.921875 0.199219
vt 0.878906 0.191406
vt 0.492188 0.191406
vt 0.171875 0.765625
vt 0.093750 0.738281
vt 0.046875 0.695312
vt 0.019531 0.636719
vt 0.007812 0.566406
s 1
f 2/1/1 4/2/2 1/3/3
f 3/4/4 2/1/1 1/3/3
f 3/4/4 1/3/3 10/5/5
f 4/2/2 5/6/6 1/3/3
f 5/6/6 9/7/7 1/3/3
f 7/8/8 1/3/3 6/9/9
f 1/3/3 9/7/7 6/9/9
f 1/3/3 7/8/8 11/10/10
f 10/5/5 1/3/3 8/11/11
f 8/11/11 1/3/3 11/10/10
f 17/12/12 11/10/10 12/13/13
f 11/10/10 7/8/8 12/13/13
f 14/14/14 11/10/10 13/15/15
f 13/15/15 11/10/10 17/12/12
f 18/16/16 11/10/10 14/14/14
f 11/10/10 15/17/17 16/18/18
f 15/17/17 11/10/10 18/16/16
f 8/11/11 11/10/10 16/18/18
f 19/19/19 15/17/17 18/16/16
f 20/20/20 15/17/17 19/19/19
f 21/21/21 15/17/17 20/20/20
f 22/22/22 15/17/17 21/21/21
f 23/23/23 15/17/17 22/22/22
f 15/17/17 23/23/23 16/18/18
f 23/23/23 24/24/24 16/18/18
f 25/25/25 16/18/18 24/24/24
f 26/26/26 16/18/18 25/25/25
f 27/27/27 16/18/18 26/26/26
f 28/28/28 16/18/18 27/27/27
f 28/28/28 29/29/29 8/11/11
f 28/28/28 8/11/11 16/18/18
f 29/29/29 10/5/5 8/11/11
f 30/30/30 12/13/13 7/8/8
f 31/31/31 30/30/30 7/8/8
f 32/32/32 31/31/31 7/8/8
f 33/33/33 32/32/32 7/8/8
f 34/34/34 33/33/33 7/8/8
f 6/9/9 34/34/34 7/8/8
