# Blender 4.4.3
# www.blender.org
o Videocard.011
v -0.132071 -11.247587 11.225415
v 1.354775 -11.247587 11.225415
v -0.132071 -10.719696 11.225415
v -0.132070 -11.247587 11.716587
v -0.132070 -10.719696 11.716587
v -0.132070 -11.247587 14.095381
v -0.132070 -10.719696 14.095381
v -0.132070 -11.247587 14.586553
v 1.354775 -11.247587 14.586551
v -0.132070 -10.719696 14.586553
v 1.354775 -10.719696 14.586551
v 1.354776 -10.719696 14.095379
v 1.354776 -11.247587 14.095379
v 1.354775 -10.719696 11.716589
v 1.354776 -10.493279 14.095379
v 1.252908 -10.457542 14.095379
v 1.354775 -10.493279 11.716589
v -0.132070 -10.493279 14.095381
v -0.132070 -10.493279 11.716587
v -0.030203 -10.457542 14.095379
v 0.369846 -8.959694 13.918039
v -0.030204 -10.457542 11.716587
v 1.252908 -10.457542 11.716587
v 0.369846 -8.959694 11.893927
v 0.852859 -8.959694 11.893929
v 0.852859 -8.959694 13.918039
v 1.354775 -10.719696 11.225415
v 1.354775 -11.247587 11.716589
v 0.153919 -11.233557 1.629199
v 0.153919 -11.233557 0.953744
v 0.153919 -10.981862 1.629199
v 0.258524 -11.233557 1.629199
v 0.153919 -11.233557 1.816549
v 0.153919 -10.981862 1.816549
v 0.153919 -11.233557 4.751124
v 0.153919 -10.981863 4.751124
v 0.153919 -11.233557 4.938472
v 0.153919 -11.233557 5.613925
v 0.258524 -11.233557 4.938472
v 0.153919 -10.981863 4.938472
v 0.153919 -10.981863 5.613925
v 0.153919 -10.793542 4.938472
v 0.153919 -10.793542 5.613925
v 0.258524 -10.793542 4.938472
v 0.153919 -9.785310 4.938472
v 0.153919 -10.793542 4.751124
v 0.153919 -10.793542 1.816549
v 0.153919 -9.785310 4.751124
v 0.451360 -9.785310 4.751124
v 0.153919 -9.785310 1.816549
v 0.153919 -9.785310 1.629199
v 0.451359 -9.785310 1.816549
v 0.451359 -9.785310 1.629199
v 0.964179 -9.785310 1.816550
v 0.451359 -10.793542 1.816549
v 0.964179 -10.793542 1.816550
v 0.451360 -10.793542 4.751124
v 0.964179 -10.793542 4.751124
v 1.068784 -10.793542 4.751124
v 0.964179 -9.785310 4.751124
v 0.964179 -9.785310 4.938472
v 1.068784 -9.785310 4.751124
v 1.068784 -9.785310 4.938472
v 1.068784 -10.793542 4.938472
v 0.964179 -10.793542 4.938472
v 1.068784 -10.793542 5.613925
v 1.068784 -10.981863 4.938472
v 1.068784 -10.981863 5.613925
v 1.068784 -11.233557 4.938472
v 1.068784 -10.981863 4.751124
v 1.068784 -10.981862 1.816549
v 1.068784 -11.233557 4.751124
v 1.068784 -11.233557 1.816549
v 1.068784 -11.233557 1.629199
v 1.068784 -10.981862 1.629199
v 1.068784 -11.233557 0.953743
v 0.964179 -11.233557 1.629199
v 0.964179 -11.233557 0.953743
v 0.964179 -10.981862 0.953743
v 0.258524 -11.233557 0.953744
v 0.258524 -10.981862 0.953744
v 0.153919 -10.981862 0.953744
v 0.258524 -10.793542 0.953744
v 0.258524 -10.981862 1.629199
v 0.964179 -10.981862 1.629199
v 0.258524 -10.793542 1.629199
v 0.153919 -10.793542 1.629199
v 0.964179 -10.793542 1.629199
v 1.068784 -10.793542 1.629199
v 0.964179 -9.785310 1.629199
v 0.964179 -10.793542 0.953743
v 1.068784 -10.793542 0.953743
v 1.068784 -10.981862 0.953743
v 1.068784 -9.785310 1.629199
v 1.068784 -9.785310 1.816549
v 1.068784 -10.793542 1.816549
v 0.153919 -10.793542 0.953744
v 1.068784 -11.233557 5.613925
v 0.964179 -11.233557 4.938472
v 0.964179 -11.233557 5.613925
v 0.258524 -11.233557 5.613925
v 0.964179 -10.981863 5.613925
v 0.964179 -10.793542 5.613925
v 0.964179 -10.981863 4.938472
v 0.258524 -10.981863 5.613925
v 0.258524 -10.981863 4.938472
v 0.258524 -10.793542 5.613925
v 0.451360 -9.785310 4.938472
v 0.314104 -8.403535 7.257805
v 0.314104 -8.303352 7.465837
v 0.314104 -8.503719 7.465837
v 0.314104 -8.628646 7.309184
v 0.314103 -8.584059 7.113842
v 0.314104 -8.403535 7.026906
v 0.314104 -8.178426 7.309185
v 0.314103 -8.223011 7.113842
v 0.063840 -8.223011 7.113842
v 0.063840 -8.178426 7.309185
v 0.063840 -8.403535 7.026906
v 0.063840 -8.584059 7.113842
v 0.063841 -8.628646 7.309184
v 0.063840 -8.503719 7.465837
v 0.063840 -8.303352 7.465837
vn -0.0000 -0.0000 -1.0000
vn -1.0000 -0.0000 -0.0000
vn -0.0000 -0.0000 1.0000
vn -0.0000 1.0000 -0.0000
vn 1.0000 -0.0000 -0.0000
vn 0.3310 0.9436 -0.0000
vn -0.3310 0.9436 -0.0000
vn -0.9661 0.2580 -0.0000
vn -0.0000 0.1176 0.9931
vn -0.0000 0.1176 -0.9931
vn 0.9661 0.2580 -0.0000
vn -0.0000 -1.0000 -0.0000
vn -0.0000 0.9749 0.2225
vn -0.0000 0.7818 -0.6235
vn -0.0000 -0.7818 -0.6235
vn -0.0000 -0.9749 0.2225
vn -0.0000 -0.4339 0.9010
vn -0.0000 0.4339 0.9010
vt 0.928516 0.097638
vt 0.983582 0.097638
vt 0.983582 0.079511
vt 0.928516 0.079511
vt 0.910326 0.064009
vt 0.910326 0.082119
vt 0.928516 0.082119
vt 0.928516 0.064009
vt 0.822227 0.064009
vt 0.822227 0.082119
vt 0.804036 0.064009
vt 0.804036 0.082119
vt 0.928516 0.115764
vt 0.983582 0.115764
vt 0.928516 0.062638
vt 0.983582 0.062638
vt 0.983582 0.045765
vt 0.928516 0.045765
vt 0.804036 0.097654
vt 0.804036 0.115764
vt 0.822227 0.115764
vt 0.822227 0.097654
vt 0.910326 0.115764
vt 0.910326 0.097654
vt 0.910326 0.089887
vt 0.822227 0.089887
vt 0.957482 0.168885
vt 0.949100 0.168885
vt 0.949100 0.219963
vt 0.957482 0.219963
vt 0.947777 0.172385
vt 0.947777 0.216463
vt 0.892135 0.047416
vt 0.892135 0.043917
vt 0.804036 0.043917
vt 0.804036 0.047416
vt 0.822227 0.089887
vt 0.804036 0.040417
vt 0.892135 0.043917
vt 0.892135 0.040417
vt 0.892135 0.219963
vt 0.885567 0.167864
vt 0.810604 0.167864
vt 0.804036 0.219963
vt 0.892135 0.186128
vt 0.892135 0.202721
vt 0.949100 0.117808
vt 0.947777 0.121307
vt 0.947777 0.165386
vt 0.892135 0.135050
vt 0.892135 0.151643
vt 0.878999 0.064009
vt 0.878999 0.047416
vt 0.892135 0.115764
vt 0.957482 0.117808
vt 0.928516 0.079511
vt 0.928516 0.115764
vt 0.928516 0.097654
vt 0.574209 0.545524
vt 0.594825 0.545524
vt 0.594825 0.542382
vt 0.574209 0.542382
vt 0.466479 0.541126
vt 0.466479 0.561414
vt 0.474161 0.561414
vt 0.474161 0.541126
vt 0.474161 0.535499
vt 0.466479 0.535499
vt 0.474161 0.447359
vt 0.466479 0.447359
vt 0.474161 0.441732
vt 0.466479 0.441732
vt 0.474161 0.421445
vt 0.466479 0.421445
vt 0.538979 0.581114
vt 0.518363 0.581114
vt 0.518363 0.584256
vt 0.538979 0.584256
vt 0.460731 0.421445
vt 0.460731 0.441732
vt 0.460731 0.447359
vt 0.514634 0.581701
vt 0.514634 0.561414
vt 0.511441 0.561414
vt 0.511441 0.581701
vt 0.546286 0.526495
vt 0.543094 0.526495
vt 0.537208 0.556778
vt 0.546286 0.556778
vt 0.429958 0.441732
vt 0.429958 0.447359
vt 0.460731 0.535499
vt 0.429958 0.535499
vt 0.546286 0.427072
vt 0.537208 0.427072
vt 0.537208 0.515212
vt 0.546286 0.515212
vt 0.546286 0.421445
vt 0.537208 0.421445
vt 0.429958 0.541126
vt 0.460731 0.541126
vt 0.537208 0.520839
vt 0.546286 0.520839
vt 0.521556 0.515212
vt 0.521556 0.520839
vt 0.549479 0.575806
vt 0.565131 0.575806
vt 0.565131 0.545524
vt 0.549479 0.545524
vt 0.546286 0.509585
vt 0.577059 0.509585
vt 0.577059 0.421445
vt 0.546286 0.421445
vt 0.580252 0.509585
vt 0.595904 0.509585
vt 0.595904 0.421445
vt 0.580252 0.421445
vt 0.580783 0.575806
vt 0.580783 0.545524
vt 0.583976 0.545524
vt 0.583976 0.575806
vt 0.521556 0.421445
vt 0.518363 0.421445
vt 0.518363 0.427072
vt 0.521556 0.427072
vt 0.518363 0.441732
vt 0.487590 0.441732
vt 0.487590 0.447359
vt 0.518363 0.447359
vt 0.521556 0.526495
vt 0.518363 0.526495
vt 0.518363 0.556778
vt 0.521556 0.556778
vt 0.508249 0.561414
vt 0.508249 0.581701
vt 0.487591 0.421445
vt 0.481843 0.421445
vt 0.481843 0.441732
vt 0.481843 0.447359
vt 0.474161 0.421445
vt 0.474161 0.447359
vt 0.481843 0.535499
vt 0.487590 0.535499
vt 0.481843 0.541126
vt 0.481843 0.561414
vt 0.574209 0.521187
vt 0.594825 0.521187
vt 0.594825 0.518046
vt 0.574209 0.518046
vt 0.478872 0.564556
vt 0.478872 0.561414
vt 0.471190 0.561414
vt 0.471190 0.564556
vt 0.478872 0.585750
vt 0.471190 0.585750
vt 0.478872 0.588892
vt 0.471190 0.588892
vt 0.484620 0.588892
vt 0.484620 0.585750
vt 0.450574 0.561414
vt 0.429958 0.561414
vt 0.429958 0.582608
vt 0.450574 0.582608
vt 0.544727 0.556778
vt 0.538979 0.556778
vt 0.538979 0.577065
vt 0.544727 0.577065
vt 0.571016 0.515241
vt 0.571016 0.509585
vt 0.549479 0.509585
vt 0.549479 0.515241
vt 0.505056 0.561414
vt 0.505056 0.581701
vt 0.508249 0.581701
vt 0.546286 0.545524
vt 0.555364 0.545524
vt 0.546286 0.515241
vt 0.571016 0.545524
vt 0.501863 0.561414
vt 0.501863 0.581701
vt 0.505056 0.581701
vt 0.574209 0.515241
vt 0.484620 0.561414
vt 0.484620 0.581701
vt 0.490367 0.581701
vt 0.490367 0.561414
vt 0.484620 0.564556
vt 0.487590 0.561414
vt 0.487590 0.541126
vt 0.518363 0.515212
vt 0.518363 0.520839
vt 0.518363 0.535499
vt 0.518363 0.541126
vt 0.546286 0.575806
vt 0.460731 0.561414
vt 0.518363 0.559920
vt 0.538979 0.559920
vt 0.597406 0.548665
vt 0.597406 0.545524
vt 0.589723 0.545524
vt 0.589723 0.548665
vt 0.597406 0.569860
vt 0.589723 0.569860
vt 0.583976 0.548665
vt 0.490367 0.581701
vt 0.496115 0.581701
vt 0.496115 0.561414
vt 0.471190 0.582608
vt 0.501863 0.581701
vt 0.597406 0.573002
vt 0.589723 0.573002
vt 0.583976 0.569860
vt 0.583976 0.573002
vt 0.543094 0.520839
vt 0.521556 0.520839
vt 0.114711 0.621678
vt 0.125345 0.624106
vt 0.119444 0.631506
vt 0.109978 0.631506
vt 0.104077 0.624106
vt 0.106183 0.614878
vt 0.114711 0.610771
vt 0.123239 0.614878
vt 0.113742 0.609499
vt 0.113742 0.586774
vt 0.120235 0.586774
vt 0.120235 0.609499
vt 0.126727 0.586774
vt 0.126727 0.609499
vt 0.081279 0.609499
vt 0.081279 0.586774
vt 0.087771 0.586774
vt 0.087771 0.609499
vt 0.094264 0.586774
vt 0.094264 0.609499
vt 0.100757 0.586774
vt 0.100757 0.609499
vt 0.107249 0.586774
vt 0.107249 0.609499
s 1
f 3/1/1 27/2/1 2/3/1 1/4/1
f 4/5/2 5/6/2 3/7/2 1/8/2
f 6/9/2 7/10/2 5/6/2 4/5/2
f 8/11/2 10/12/2 7/10/2 6/9/2
f 8/2/3 9/1/3 11/13/3 10/14/3
f 10/15/4 11/16/4 12/17/4 7/18/4
f 11/19/5 9/20/5 13/21/5 12/22/5
f 12/22/5 13/21/5 28/23/5 14/24/5
f 14/24/5 17/25/5 15/26/5 12/22/5
f 12/27/3 15/28/3 18/29/3 7/30/3
f 15/28/3 16/31/3 20/32/3 18/29/3
f 17/33/6 23/34/6 16/35/6 15/36/6
f 7/10/2 18/37/2 19/25/2 5/6/2
f 18/38/7 20/35/7 22/39/7 19/40/7
f 20/41/8 21/42/8 24/43/8 22/44/8
f 16/31/9 26/45/9 21/46/9 20/32/9
f 19/47/1 22/48/1 23/49/1 17/28/1
f 22/48/10 24/50/10 25/51/10 23/49/10
f 21/52/4 26/53/4 25/36/4 24/11/4
f 23/20/11 25/43/11 26/42/11 16/54/11
f 5/55/1 19/47/1 17/28/1 14/27/1
f 5/16/4 14/15/4 27/56/4 3/3/4
f 14/24/5 28/23/5 2/57/5 27/58/5
f 29/59/12 30/60/12 80/61/12 32/62/12
f 31/63/2 82/64/2 30/65/2 29/66/2
f 33/67/2 34/68/2 31/63/2 29/66/2
f 35/69/2 36/70/2 34/68/2 33/67/2
f 37/71/2 40/72/2 36/70/2 35/69/2
f 37/71/2 38/73/2 41/74/2 40/72/2
f 39/75/12 101/76/12 38/77/12 37/78/12
f 40/72/2 41/74/2 43/79/2 42/80/2
f 40/72/2 42/80/2 46/81/2 36/70/2
f 42/82/4 43/83/4 107/84/4 44/85/4
f 42/86/3 44/87/3 108/88/3 45/89/3
f 42/80/2 45/90/2 48/91/2 46/81/2
f 36/70/2 46/81/2 47/92/2 34/68/2
f 46/81/2 48/91/2 50/93/2 47/92/2
f 48/94/4 49/95/4 52/96/4 50/97/4
f 45/98/4 108/99/4 49/95/4 48/94/4
f 47/92/2 50/93/2 51/100/2 87/101/2
f 50/97/4 52/96/4 53/102/4 51/103/4
f 52/96/4 54/104/4 90/105/4 53/102/4
f 54/106/3 52/107/3 55/108/3 56/109/3
f 49/110/5 57/111/5 55/112/5 52/113/5
f 56/114/4 55/115/4 57/116/4 58/117/4
f 49/107/1 60/118/1 58/119/1 57/108/1
f 96/111/4 56/114/4 58/117/4 59/112/4
f 59/120/1 58/119/1 60/118/1 62/121/1
f 61/122/4 63/123/4 62/124/4 60/125/4
f 108/99/4 61/122/4 60/125/4 49/95/4
f 63/126/5 64/127/5 59/128/5 62/129/5
f 65/130/3 64/131/3 63/132/3 61/133/3
f 65/85/4 103/84/4 66/134/4 64/135/4
f 64/127/5 66/136/5 68/137/5 67/138/5
f 64/127/5 67/138/5 70/139/5 59/128/5
f 67/138/5 68/137/5 98/140/5 69/71/5
f 67/138/5 69/71/5 72/141/5 70/139/5
f 59/128/5 70/139/5 71/142/5 96/143/5
f 70/139/5 72/141/5 73/67/5 71/142/5
f 71/142/5 73/67/5 74/66/5 75/144/5
f 74/66/5 76/65/5 93/145/5 75/144/5
f 77/146/12 78/147/12 76/148/12 74/149/12
f 32/62/12 80/61/12 78/147/12 77/146/12
f 79/150/1 93/151/1 76/152/1 78/153/1
f 81/154/1 79/150/1 78/153/1 80/155/1
f 82/156/1 81/154/1 80/155/1 30/157/1
f 97/158/1 83/159/1 81/154/1 82/156/1
f 85/160/4 79/161/4 81/162/4 84/163/4
f 81/164/5 83/165/5 86/166/5 84/167/5
f 88/168/1 85/169/1 84/170/1 86/171/1
f 86/172/4 83/173/4 97/174/4 87/134/4
f 51/175/1 53/176/1 86/171/1 87/177/1
f 53/176/1 90/178/1 88/168/1 86/171/1
f 89/179/4 92/180/4 91/181/4 88/172/4
f 90/178/1 94/59/1 89/182/1 88/168/1
f 88/183/2 91/184/2 79/185/2 85/186/2
f 91/187/1 92/183/1 93/151/1 79/150/1
f 75/144/5 93/145/5 92/188/5 89/189/5
f 54/104/4 95/190/4 94/191/4 90/105/4
f 95/192/5 96/143/5 89/189/5 94/193/5
f 96/175/3 95/194/3 54/106/3 56/109/3
f 96/143/5 71/142/5 75/144/5 89/189/5
f 34/68/2 47/92/2 87/101/2 31/63/2
f 87/101/2 97/195/2 82/64/2 31/63/2
f 69/165/12 98/132/12 100/196/12 99/197/12
f 99/197/12 100/196/12 101/76/12 39/75/12
f 100/198/3 98/199/3 68/200/3 102/201/3
f 101/202/3 100/198/3 102/201/3 105/203/3
f 102/201/3 68/200/3 66/120/3 103/204/3
f 65/205/2 104/206/2 102/207/2 103/186/2
f 102/152/4 104/160/4 106/163/4 105/208/4
f 44/207/5 107/206/5 105/209/5 106/179/5
f 38/210/3 101/202/3 105/203/3 41/211/3
f 41/211/3 105/203/3 107/212/3 43/213/3
f 44/87/3 106/214/3 104/215/3 65/130/3
f 44/87/3 65/130/3 61/133/3 108/88/3
f 109/216/5 115/217/5 110/218/5
f 109/216/5 110/218/5 111/219/5
f 109/216/5 111/219/5 112/220/5
f 109/216/5 112/220/5 113/221/5
f 109/216/5 113/221/5 114/222/5
f 109/216/5 114/222/5 116/223/5
f 109/216/5 116/223/5 115/217/5
f 118/224/13 115/225/13 116/226/14 117/227/14
f 117/227/14 116/226/14 114/228/1 119/229/1
f 119/230/1 114/231/1 113/232/15 120/233/15
f 120/233/15 113/232/15 112/234/16 121/235/16
f 121/235/16 112/234/16 111/236/17 122/237/17
f 122/237/17 111/236/17 110/238/18 123/239/18
f 123/239/18 110/238/18 115/225/13 118/224/13
