# Blender 4.0.2
# www.blender.org
o mirror_right
v -35.145641 22.482220 33.074272
v -33.620949 22.694668 33.124016
v -32.931282 22.823915 32.045692
v -35.151016 22.517523 31.905611
v -35.157715 22.557631 30.312258
v -32.410461 22.866320 33.147141
v -35.698120 22.409428 33.005505
v -31.611122 22.983635 33.143181
v -36.237350 22.341774 32.813046
v -36.544407 22.307596 32.530083
v -36.727169 22.292858 32.144646
v -36.820408 22.293167 31.649736
v -36.851238 22.303837 31.080370
v -36.861904 22.317104 30.515421
v -36.803123 22.337509 30.035269
v -36.642490 22.369112 29.661188
v -36.310966 22.420183 29.352575
v -35.735191 22.501554 29.226435
v -35.162052 22.580381 29.169355
v -31.008621 23.076521 33.076530
v -30.632652 23.154829 32.191032
v -30.575665 23.144945 32.953213
v -30.311520 23.188332 32.770527
v -30.136324 23.218857 32.535694
v -30.066730 23.235697 32.213131
v -30.810640 23.156418 29.879404
v -30.046919 23.245836 31.887182
v -30.170500 23.237877 30.565954
v -30.287615 23.232975 29.497755
v -30.395445 23.221708 29.261087
v -30.578711 23.198839 29.144899
v -30.869406 23.160799 29.107126
v -33.074677 22.844749 30.104822
v -33.515106 22.804026 29.105959
vn 0.1396 -0.9899 -0.0243
vn 0.1395 -0.9898 -0.0294
vn 0.1366 -0.9902 -0.0304
vn 0.1369 -0.9902 -0.0272
vn 0.1358 -0.9905 -0.0227
vn 0.1435 -0.9892 -0.0298
vn 0.1347 -0.9904 -0.0303
vn 0.1477 -0.9885 -0.0338
vn 0.1359 -0.9903 -0.0291
vn 0.1368 -0.9902 -0.0277
vn 0.1371 -0.9902 -0.0267
vn 0.1371 -0.9902 -0.0262
vn 0.1369 -0.9903 -0.0258
vn 0.1367 -0.9903 -0.0256
vn 0.1367 -0.9903 -0.0252
vn 0.1357 -0.9905 -0.0227
vn 0.1347 -0.9907 -0.0200
vn 0.1350 -0.9906 -0.0206
vn 0.1343 -0.9907 -0.0200
vn 0.1466 -0.9888 -0.0273
vn 0.1428 -0.9896 -0.0194
vn 0.1453 -0.9891 -0.0251
vn 0.1448 -0.9892 -0.0230
vn 0.1426 -0.9895 -0.0216
vn 0.1422 -0.9896 -0.0216
vn 0.1367 -0.9905 -0.0137
vn 0.1423 -0.9897 -0.0143
vn 0.1413 -0.9899 -0.0102
vn 0.1357 -0.9907 -0.0128
vn 0.1338 -0.9909 -0.0148
vn 0.1325 -0.9911 -0.0154
vn 0.1332 -0.9910 -0.0161
vn 0.1355 -0.9906 -0.0190
vn 0.1338 -0.9908 -0.0186
vt 0.423890 0.624120
vt 0.525089 0.782348
vt 0.748816 0.775049
vt 0.749604 0.603565
vt 0.750587 0.369763
vt 0.347468 0.785741
vt 0.829884 0.764958
vt 0.230176 0.785160
vt 0.909008 0.736718
vt 0.954064 0.695197
vt 0.980882 0.638640
vt 0.994564 0.566019
vt 0.999088 0.482472
vt 1.000653 0.399574
vt 0.992027 0.329119
vt 0.968457 0.274228
vt 0.919810 0.228944
vt 0.835324 0.210434
vt 0.751224 0.202059
vt 0.141769 0.775380
vt 0.086601 0.645446
vt 0.078238 0.757285
vt 0.039479 0.730479
vt 0.013771 0.696020
vt 0.003560 0.648689
vt 0.112718 0.306248
vt 0.000653 0.600861
vt 0.018786 0.406989
vt 0.035971 0.250247
vt 0.051794 0.215519
vt 0.078685 0.198470
vt 0.121341 0.192927
vt 0.444932 0.339325
vt 0.509558 0.192756
s 1
f 3/1/1 2/2/2 1/3/3
f 4/4/4 3/1/1 1/3/3
f 4/4/4 5/5/5 3/1/1
f 3/1/1 6/6/6 2/2/2
f 1/3/3 7/7/7 4/4/4
f 3/1/1 8/8/8 6/6/6
f 7/7/7 9/9/9 4/4/4
f 9/9/9 10/10/10 4/4/4
f 10/10/10 11/11/11 4/4/4
f 11/11/11 12/12/12 4/4/4
f 5/5/5 4/4/4 13/13/13
f 12/12/12 13/13/13 4/4/4
f 14/14/14 5/5/5 13/13/13
f 14/14/14 15/15/15 5/5/5
f 15/15/15 16/16/16 5/5/5
f 16/16/16 17/17/17 5/5/5
f 17/17/17 18/18/18 5/5/5
f 5/5/5 18/18/18 19/19/19
f 3/1/1 20/20/20 8/8/8
f 3/1/1 21/21/21 20/20/20
f 21/21/21 22/22/22 20/20/20
f 21/21/21 23/23/23 22/22/22
f 21/21/21 24/24/24 23/23/23
f 21/21/21 25/25/25 24/24/24
f 21/21/21 3/1/1 26/26/26
f 27/27/27 21/21/21 26/26/26
f 21/21/21 27/27/27 25/25/25
f 28/28/28 27/27/27 26/26/26
f 26/26/26 29/29/29 28/28/28
f 26/26/26 30/30/30 29/29/29
f 26/26/26 31/31/31 30/30/30
f 26/26/26 32/32/32 31/31/31
f 5/5/5 33/33/33 3/1/1
f 3/1/1 33/33/33 26/26/26
f 33/33/33 32/32/32 26/26/26
f 5/5/5 19/19/19 33/33/33
f 34/34/34 32/32/32 33/33/33
f 19/19/19 34/34/34 33/33/33
